<mxfile host="app.diagrams.net" modified="2024-07-17T14:50:30.108Z" agent="Mozilla/5.0 (Windows NT 10.0; Win64; x64) AppleWebKit/537.36 (KHTML, like Gecko) Chrome/126.0.0.0 Safari/537.36" etag="O2KF6OcQkoPZhlT6YiR5" version="24.6.4" type="github" pages="12">
  <diagram name="Overall flow" id="aIydNRDStPWsSJ3BAeCJ">
    <mxGraphModel dx="1688" dy="647" grid="1" gridSize="10" guides="1" tooltips="1" connect="1" arrows="1" fold="1" page="1" pageScale="1" pageWidth="1169" pageHeight="827" math="0" shadow="0">
      <root>
        <mxCell id="kuwG-ue1jc57KhAfroKb-0" />
        <mxCell id="kuwG-ue1jc57KhAfroKb-1" parent="kuwG-ue1jc57KhAfroKb-0" />
        <mxCell id="oca5xLeXML9_MkDLj5p7-0" value="" style="whiteSpace=wrap;html=1;rounded=0;fillColor=#FFB570;" parent="kuwG-ue1jc57KhAfroKb-1" vertex="1">
          <mxGeometry x="200" y="200" width="630" height="360" as="geometry" />
        </mxCell>
        <mxCell id="hSUL1RAshXutJgXqyYZi-25" value="" style="whiteSpace=wrap;html=1;rounded=0;fillColor=#FFE6CC;" parent="kuwG-ue1jc57KhAfroKb-1" vertex="1">
          <mxGeometry x="200" y="70" width="360" height="200" as="geometry" />
        </mxCell>
        <mxCell id="hSUL1RAshXutJgXqyYZi-24" value="" style="whiteSpace=wrap;html=1;rounded=0;fillColor=#FFFFCC;" parent="kuwG-ue1jc57KhAfroKb-1" vertex="1">
          <mxGeometry x="840" y="70" width="140" height="500" as="geometry" />
        </mxCell>
        <mxCell id="hSUL1RAshXutJgXqyYZi-23" value="" style="whiteSpace=wrap;html=1;rounded=0;fillColor=#E6FFCC;" parent="kuwG-ue1jc57KhAfroKb-1" vertex="1">
          <mxGeometry x="310" y="320.25" width="660" height="149.75" as="geometry" />
        </mxCell>
        <mxCell id="kuwG-ue1jc57KhAfroKb-2" value="&lt;font style=&quot;font-size: 24px;&quot;&gt;Overall supply chain process flow&lt;/font&gt;" style="text;html=1;align=center;verticalAlign=middle;whiteSpace=wrap;rounded=0;" parent="kuwG-ue1jc57KhAfroKb-1" vertex="1">
          <mxGeometry x="10" y="10" width="440" height="30" as="geometry" />
        </mxCell>
        <mxCell id="kuwG-ue1jc57KhAfroKb-3" value="Sales&lt;div&gt;B2C&lt;/div&gt;" style="whiteSpace=wrap;html=1;rounded=0;" parent="kuwG-ue1jc57KhAfroKb-1" vertex="1">
          <mxGeometry x="40" y="80" width="70" height="137.75" as="geometry" />
        </mxCell>
        <mxCell id="kuwG-ue1jc57KhAfroKb-4" value="Production" style="whiteSpace=wrap;html=1;rounded=0;" parent="kuwG-ue1jc57KhAfroKb-1" vertex="1">
          <mxGeometry x="40" y="228.75" width="150" height="37.75" as="geometry" />
        </mxCell>
        <mxCell id="kuwG-ue1jc57KhAfroKb-5" value="Warehouse" style="whiteSpace=wrap;html=1;rounded=0;" parent="kuwG-ue1jc57KhAfroKb-1" vertex="1">
          <mxGeometry x="40" y="325" width="150" height="37.75" as="geometry" />
        </mxCell>
        <mxCell id="kuwG-ue1jc57KhAfroKb-6" value="Purchasing" style="whiteSpace=wrap;html=1;rounded=0;" parent="kuwG-ue1jc57KhAfroKb-1" vertex="1">
          <mxGeometry x="40" y="277" width="150" height="37.75" as="geometry" />
        </mxCell>
        <mxCell id="kuwG-ue1jc57KhAfroKb-7" value="Supplier" style="whiteSpace=wrap;html=1;rounded=0;" parent="kuwG-ue1jc57KhAfroKb-1" vertex="1">
          <mxGeometry x="40" y="374" width="150" height="37.75" as="geometry" />
        </mxCell>
        <mxCell id="kuwG-ue1jc57KhAfroKb-8" value="Finance" style="whiteSpace=wrap;html=1;rounded=0;" parent="kuwG-ue1jc57KhAfroKb-1" vertex="1">
          <mxGeometry x="40" y="421" width="150" height="37.75" as="geometry" />
        </mxCell>
        <mxCell id="kuwG-ue1jc57KhAfroKb-11" value="Sales&lt;div&gt;B2B&lt;/div&gt;" style="whiteSpace=wrap;html=1;rounded=0;" parent="kuwG-ue1jc57KhAfroKb-1" vertex="1">
          <mxGeometry x="120" y="80" width="70" height="137.75" as="geometry" />
        </mxCell>
        <mxCell id="hSUL1RAshXutJgXqyYZi-1" style="edgeStyle=orthogonalEdgeStyle;rounded=0;orthogonalLoop=1;jettySize=auto;html=1;entryX=0;entryY=0.5;entryDx=0;entryDy=0;" parent="kuwG-ue1jc57KhAfroKb-1" source="kuwG-ue1jc57KhAfroKb-16" target="kuwG-ue1jc57KhAfroKb-24" edge="1">
          <mxGeometry relative="1" as="geometry" />
        </mxCell>
        <mxCell id="kuwG-ue1jc57KhAfroKb-16" value="Production Plan" style="whiteSpace=wrap;html=1;rounded=0;fillColor=#FFFFFF;" parent="kuwG-ue1jc57KhAfroKb-1" vertex="1">
          <mxGeometry x="320" y="228.75" width="100" height="37.75" as="geometry" />
        </mxCell>
        <mxCell id="hSUL1RAshXutJgXqyYZi-2" style="edgeStyle=orthogonalEdgeStyle;rounded=0;orthogonalLoop=1;jettySize=auto;html=1;exitX=0.5;exitY=1;exitDx=0;exitDy=0;entryX=0.5;entryY=0;entryDx=0;entryDy=0;" parent="kuwG-ue1jc57KhAfroKb-1" source="kuwG-ue1jc57KhAfroKb-24" target="bjQaCebHrEG8nXZ2WEp--3" edge="1">
          <mxGeometry relative="1" as="geometry" />
        </mxCell>
        <mxCell id="kuwG-ue1jc57KhAfroKb-24" value="Raw Material Plan" style="whiteSpace=wrap;html=1;rounded=0;strokeColor=default;align=center;verticalAlign=middle;fontFamily=Helvetica;fontSize=12;fontColor=default;fillColor=#FFFFFF;" parent="kuwG-ue1jc57KhAfroKb-1" vertex="1">
          <mxGeometry x="450" y="228.75" width="100" height="37.75" as="geometry" />
        </mxCell>
        <mxCell id="bjQaCebHrEG8nXZ2WEp--1" value="Sales Forecast" style="whiteSpace=wrap;html=1;rounded=0;strokeColor=default;align=center;verticalAlign=middle;fontFamily=Helvetica;fontSize=12;fontColor=default;fillColor=default;" parent="kuwG-ue1jc57KhAfroKb-1" vertex="1">
          <mxGeometry x="210" y="80" width="100" height="140" as="geometry" />
        </mxCell>
        <mxCell id="hSUL1RAshXutJgXqyYZi-3" style="edgeStyle=orthogonalEdgeStyle;rounded=0;orthogonalLoop=1;jettySize=auto;html=1;exitX=0.5;exitY=1;exitDx=0;exitDy=0;entryX=0.5;entryY=0;entryDx=0;entryDy=0;" parent="kuwG-ue1jc57KhAfroKb-1" source="bjQaCebHrEG8nXZ2WEp--3" target="bjQaCebHrEG8nXZ2WEp--5" edge="1">
          <mxGeometry relative="1" as="geometry" />
        </mxCell>
        <mxCell id="bjQaCebHrEG8nXZ2WEp--3" value="Raw Material Procurement" style="whiteSpace=wrap;html=1;rounded=0;" parent="kuwG-ue1jc57KhAfroKb-1" vertex="1">
          <mxGeometry x="450" y="277" width="100" height="37.75" as="geometry" />
        </mxCell>
        <mxCell id="hSUL1RAshXutJgXqyYZi-6" style="edgeStyle=orthogonalEdgeStyle;rounded=0;orthogonalLoop=1;jettySize=auto;html=1;entryX=0;entryY=0.5;entryDx=0;entryDy=0;" parent="kuwG-ue1jc57KhAfroKb-1" source="bjQaCebHrEG8nXZ2WEp--5" target="bjQaCebHrEG8nXZ2WEp--6" edge="1">
          <mxGeometry relative="1" as="geometry">
            <Array as="points">
              <mxPoint x="560" y="368" />
              <mxPoint x="560" y="344" />
            </Array>
          </mxGeometry>
        </mxCell>
        <mxCell id="bjQaCebHrEG8nXZ2WEp--5" value="Raw Material Receiving" style="whiteSpace=wrap;html=1;rounded=0;strokeColor=default;align=center;verticalAlign=middle;fontFamily=Helvetica;fontSize=12;fontColor=default;fillColor=#FFFFFF;" parent="kuwG-ue1jc57KhAfroKb-1" vertex="1">
          <mxGeometry x="450" y="325" width="100" height="85" as="geometry" />
        </mxCell>
        <mxCell id="hSUL1RAshXutJgXqyYZi-7" style="edgeStyle=orthogonalEdgeStyle;rounded=0;orthogonalLoop=1;jettySize=auto;html=1;entryX=0.5;entryY=1;entryDx=0;entryDy=0;" parent="kuwG-ue1jc57KhAfroKb-1" source="bjQaCebHrEG8nXZ2WEp--6" target="bjQaCebHrEG8nXZ2WEp--7" edge="1">
          <mxGeometry relative="1" as="geometry" />
        </mxCell>
        <mxCell id="hSUL1RAshXutJgXqyYZi-22" style="edgeStyle=orthogonalEdgeStyle;rounded=0;orthogonalLoop=1;jettySize=auto;html=1;entryX=0;entryY=0.5;entryDx=0;entryDy=0;" parent="kuwG-ue1jc57KhAfroKb-1" source="bjQaCebHrEG8nXZ2WEp--6" target="hSUL1RAshXutJgXqyYZi-17" edge="1">
          <mxGeometry relative="1" as="geometry">
            <Array as="points">
              <mxPoint x="636" y="440" />
            </Array>
          </mxGeometry>
        </mxCell>
        <mxCell id="bjQaCebHrEG8nXZ2WEp--6" value="Inventory Withdrawal" style="whiteSpace=wrap;html=1;rounded=0;strokeColor=default;align=center;verticalAlign=middle;fontFamily=Helvetica;fontSize=12;fontColor=default;fillColor=#FFFFFF;" parent="kuwG-ue1jc57KhAfroKb-1" vertex="1">
          <mxGeometry x="585.5" y="325" width="100" height="37.75" as="geometry" />
        </mxCell>
        <mxCell id="hSUL1RAshXutJgXqyYZi-20" style="edgeStyle=orthogonalEdgeStyle;rounded=0;orthogonalLoop=1;jettySize=auto;html=1;entryX=0;entryY=0.5;entryDx=0;entryDy=0;" parent="kuwG-ue1jc57KhAfroKb-1" source="bjQaCebHrEG8nXZ2WEp--7" target="bjQaCebHrEG8nXZ2WEp--8" edge="1">
          <mxGeometry relative="1" as="geometry">
            <Array as="points">
              <mxPoint x="701" y="248" />
              <mxPoint x="701" y="344" />
            </Array>
          </mxGeometry>
        </mxCell>
        <mxCell id="bjQaCebHrEG8nXZ2WEp--7" value="Production" style="whiteSpace=wrap;html=1;rounded=0;strokeColor=default;align=center;verticalAlign=middle;fontFamily=Helvetica;fontSize=12;fontColor=default;fillColor=#FFFFFF;" parent="kuwG-ue1jc57KhAfroKb-1" vertex="1">
          <mxGeometry x="585.5" y="228.75" width="100" height="37.75" as="geometry" />
        </mxCell>
        <mxCell id="hSUL1RAshXutJgXqyYZi-13" style="edgeStyle=orthogonalEdgeStyle;rounded=0;orthogonalLoop=1;jettySize=auto;html=1;entryX=0;entryY=0.5;entryDx=0;entryDy=0;" parent="kuwG-ue1jc57KhAfroKb-1" source="bjQaCebHrEG8nXZ2WEp--8" target="hSUL1RAshXutJgXqyYZi-10" edge="1">
          <mxGeometry relative="1" as="geometry" />
        </mxCell>
        <mxCell id="bjQaCebHrEG8nXZ2WEp--8" value="FG Receiving" style="whiteSpace=wrap;html=1;rounded=0;strokeColor=default;align=center;verticalAlign=middle;fontFamily=Helvetica;fontSize=12;fontColor=default;fillColor=#FFFFFF;" parent="kuwG-ue1jc57KhAfroKb-1" vertex="1">
          <mxGeometry x="721" y="325" width="100" height="37.75" as="geometry" />
        </mxCell>
        <mxCell id="hSUL1RAshXutJgXqyYZi-0" style="edgeStyle=orthogonalEdgeStyle;rounded=0;orthogonalLoop=1;jettySize=auto;html=1;entryX=0.008;entryY=0.579;entryDx=0;entryDy=0;entryPerimeter=0;exitX=0.5;exitY=1;exitDx=0;exitDy=0;" parent="kuwG-ue1jc57KhAfroKb-1" source="bjQaCebHrEG8nXZ2WEp--1" target="kuwG-ue1jc57KhAfroKb-16" edge="1">
          <mxGeometry relative="1" as="geometry" />
        </mxCell>
        <mxCell id="hSUL1RAshXutJgXqyYZi-12" style="edgeStyle=orthogonalEdgeStyle;rounded=0;orthogonalLoop=1;jettySize=auto;html=1;entryX=0.5;entryY=0;entryDx=0;entryDy=0;" parent="kuwG-ue1jc57KhAfroKb-1" source="hSUL1RAshXutJgXqyYZi-9" target="hSUL1RAshXutJgXqyYZi-10" edge="1">
          <mxGeometry relative="1" as="geometry" />
        </mxCell>
        <mxCell id="hSUL1RAshXutJgXqyYZi-21" style="edgeStyle=orthogonalEdgeStyle;rounded=0;orthogonalLoop=1;jettySize=auto;html=1;entryX=0.5;entryY=0;entryDx=0;entryDy=0;" parent="kuwG-ue1jc57KhAfroKb-1" source="hSUL1RAshXutJgXqyYZi-9" target="hSUL1RAshXutJgXqyYZi-17" edge="1">
          <mxGeometry relative="1" as="geometry" />
        </mxCell>
        <mxCell id="hSUL1RAshXutJgXqyYZi-9" value="Sales Order Received" style="whiteSpace=wrap;html=1;rounded=0;strokeColor=default;align=center;verticalAlign=middle;fontFamily=Helvetica;fontSize=12;fontColor=default;fillColor=default;" parent="kuwG-ue1jc57KhAfroKb-1" vertex="1">
          <mxGeometry x="861" y="80" width="100" height="140" as="geometry" />
        </mxCell>
        <mxCell id="hSUL1RAshXutJgXqyYZi-16" style="edgeStyle=orthogonalEdgeStyle;rounded=0;orthogonalLoop=1;jettySize=auto;html=1;" parent="kuwG-ue1jc57KhAfroKb-1" source="hSUL1RAshXutJgXqyYZi-10" target="hSUL1RAshXutJgXqyYZi-15" edge="1">
          <mxGeometry relative="1" as="geometry" />
        </mxCell>
        <mxCell id="hSUL1RAshXutJgXqyYZi-10" value="FG Picking" style="whiteSpace=wrap;html=1;rounded=0;strokeColor=default;align=center;verticalAlign=middle;fontFamily=Helvetica;fontSize=12;fontColor=default;fillColor=#FFFFFF;" parent="kuwG-ue1jc57KhAfroKb-1" vertex="1">
          <mxGeometry x="861" y="325" width="100" height="37.75" as="geometry" />
        </mxCell>
        <mxCell id="hSUL1RAshXutJgXqyYZi-14" value="Logistics" style="whiteSpace=wrap;html=1;rounded=0;" parent="kuwG-ue1jc57KhAfroKb-1" vertex="1">
          <mxGeometry x="40" y="470" width="150" height="37.75" as="geometry" />
        </mxCell>
        <mxCell id="hSUL1RAshXutJgXqyYZi-18" style="edgeStyle=orthogonalEdgeStyle;rounded=0;orthogonalLoop=1;jettySize=auto;html=1;entryX=0.5;entryY=1;entryDx=0;entryDy=0;" parent="kuwG-ue1jc57KhAfroKb-1" source="hSUL1RAshXutJgXqyYZi-15" target="hSUL1RAshXutJgXqyYZi-17" edge="1">
          <mxGeometry relative="1" as="geometry" />
        </mxCell>
        <mxCell id="hSUL1RAshXutJgXqyYZi-15" value="Loading &amp;amp; Delivery" style="whiteSpace=wrap;html=1;rounded=0;strokeColor=default;align=center;verticalAlign=middle;fontFamily=Helvetica;fontSize=12;fontColor=default;fillColor=#FFFFFF;" parent="kuwG-ue1jc57KhAfroKb-1" vertex="1">
          <mxGeometry x="861" y="470" width="100" height="90" as="geometry" />
        </mxCell>
        <mxCell id="hSUL1RAshXutJgXqyYZi-17" value="Monetization" style="whiteSpace=wrap;html=1;rounded=0;" parent="kuwG-ue1jc57KhAfroKb-1" vertex="1">
          <mxGeometry x="990" y="421" width="100" height="37.75" as="geometry" />
        </mxCell>
        <mxCell id="hSUL1RAshXutJgXqyYZi-26" value="Strategic planning" style="text;html=1;align=center;verticalAlign=middle;whiteSpace=wrap;rounded=0;" parent="kuwG-ue1jc57KhAfroKb-1" vertex="1">
          <mxGeometry x="450" y="70" width="110" height="30" as="geometry" />
        </mxCell>
        <mxCell id="hSUL1RAshXutJgXqyYZi-27" value="Demand fulfilment" style="text;html=1;align=center;verticalAlign=middle;whiteSpace=wrap;rounded=0;" parent="kuwG-ue1jc57KhAfroKb-1" vertex="1">
          <mxGeometry x="870" y="49" width="110" height="30" as="geometry" />
        </mxCell>
        <mxCell id="hSUL1RAshXutJgXqyYZi-28" value="Inventory Management" style="text;html=1;align=center;verticalAlign=middle;whiteSpace=wrap;rounded=0;" parent="kuwG-ue1jc57KhAfroKb-1" vertex="1">
          <mxGeometry x="740" y="391" width="110" height="30" as="geometry" />
        </mxCell>
        <mxCell id="oca5xLeXML9_MkDLj5p7-1" value="Operation" style="text;html=1;align=center;verticalAlign=middle;whiteSpace=wrap;rounded=0;" parent="kuwG-ue1jc57KhAfroKb-1" vertex="1">
          <mxGeometry x="760" y="198.75" width="70" height="30" as="geometry" />
        </mxCell>
        <mxCell id="oca5xLeXML9_MkDLj5p7-9" style="edgeStyle=orthogonalEdgeStyle;rounded=0;orthogonalLoop=1;jettySize=auto;html=1;entryX=0;entryY=0.5;entryDx=0;entryDy=0;" parent="kuwG-ue1jc57KhAfroKb-1" source="oca5xLeXML9_MkDLj5p7-8" target="bjQaCebHrEG8nXZ2WEp--6" edge="1">
          <mxGeometry relative="1" as="geometry">
            <mxPoint x="540" y="500" as="targetPoint" />
            <Array as="points">
              <mxPoint x="560" y="440" />
              <mxPoint x="560" y="344" />
            </Array>
          </mxGeometry>
        </mxCell>
        <mxCell id="oca5xLeXML9_MkDLj5p7-8" value="Storefront Material Receiving" style="whiteSpace=wrap;html=1;rounded=0;strokeColor=default;align=center;verticalAlign=middle;fontFamily=Helvetica;fontSize=12;fontColor=default;fillColor=#FFFFFF;" parent="kuwG-ue1jc57KhAfroKb-1" vertex="1">
          <mxGeometry x="320" y="325" width="100" height="135" as="geometry" />
        </mxCell>
        <mxCell id="oca5xLeXML9_MkDLj5p7-10" value="Storefront Material Procurement" style="whiteSpace=wrap;html=1;rounded=0;strokeColor=default;align=center;verticalAlign=middle;fontFamily=Helvetica;fontSize=12;fontColor=default;fillColor=#FFFFFF;" parent="kuwG-ue1jc57KhAfroKb-1" vertex="1">
          <mxGeometry x="200" y="420" width="100" height="40" as="geometry" />
        </mxCell>
        <mxCell id="oca5xLeXML9_MkDLj5p7-11" style="edgeStyle=orthogonalEdgeStyle;rounded=0;orthogonalLoop=1;jettySize=auto;html=1;exitX=1;exitY=0.5;exitDx=0;exitDy=0;entryX=0.001;entryY=0.845;entryDx=0;entryDy=0;entryPerimeter=0;" parent="kuwG-ue1jc57KhAfroKb-1" source="oca5xLeXML9_MkDLj5p7-10" target="oca5xLeXML9_MkDLj5p7-8" edge="1">
          <mxGeometry relative="1" as="geometry" />
        </mxCell>
        <mxCell id="oca5xLeXML9_MkDLj5p7-12" value="3PL" style="whiteSpace=wrap;html=1;rounded=0;" parent="kuwG-ue1jc57KhAfroKb-1" vertex="1">
          <mxGeometry x="40" y="520" width="150" height="37.75" as="geometry" />
        </mxCell>
        <mxCell id="0s-Q5gsYTAYxXVa6aFCK-1" style="edgeStyle=orthogonalEdgeStyle;rounded=0;orthogonalLoop=1;jettySize=auto;html=1;" edge="1" parent="kuwG-ue1jc57KhAfroKb-1" source="0s-Q5gsYTAYxXVa6aFCK-0" target="hSUL1RAshXutJgXqyYZi-15">
          <mxGeometry relative="1" as="geometry" />
        </mxCell>
        <mxCell id="0s-Q5gsYTAYxXVa6aFCK-0" value="Logistics allocation" style="whiteSpace=wrap;html=1;rounded=0;strokeColor=default;align=center;verticalAlign=middle;fontFamily=Helvetica;fontSize=12;fontColor=default;fillColor=#FFFFFF;" vertex="1" parent="kuwG-ue1jc57KhAfroKb-1">
          <mxGeometry x="721" y="470" width="100" height="90" as="geometry" />
        </mxCell>
      </root>
    </mxGraphModel>
  </diagram>
  <diagram name="Sales Forecasting B2C" id="TFBt3ECzOIMK7KhCIZk0">
    <mxGraphModel dx="1407" dy="539" grid="1" gridSize="10" guides="1" tooltips="1" connect="1" arrows="1" fold="1" page="1" pageScale="1" pageWidth="1169" pageHeight="827" math="0" shadow="0">
      <root>
        <mxCell id="EaQ5UeQxbyehez5s6IEZ-0" />
        <mxCell id="EaQ5UeQxbyehez5s6IEZ-1" parent="EaQ5UeQxbyehez5s6IEZ-0" />
        <mxCell id="EaQ5UeQxbyehez5s6IEZ-6" value="&lt;font style=&quot;font-size: 24px;&quot;&gt;Sales Forecasting B2C information flow&lt;/font&gt;" style="text;html=1;align=center;verticalAlign=middle;whiteSpace=wrap;rounded=0;" parent="EaQ5UeQxbyehez5s6IEZ-1" vertex="1">
          <mxGeometry x="10" y="10" width="440" height="30" as="geometry" />
        </mxCell>
        <mxCell id="3Hq1pv55Sjwv7JI5zO0x-0" value="Sales B2C" style="whiteSpace=wrap;html=1;rounded=0;" vertex="1" parent="EaQ5UeQxbyehez5s6IEZ-1">
          <mxGeometry x="40" y="80" width="40" height="190" as="geometry" />
        </mxCell>
        <mxCell id="3Hq1pv55Sjwv7JI5zO0x-1" value="Production" style="whiteSpace=wrap;html=1;rounded=0;" vertex="1" parent="EaQ5UeQxbyehez5s6IEZ-1">
          <mxGeometry x="40" y="384" width="160" height="40" as="geometry" />
        </mxCell>
        <mxCell id="3Hq1pv55Sjwv7JI5zO0x-6" value="Online" style="whiteSpace=wrap;html=1;rounded=0;" vertex="1" parent="EaQ5UeQxbyehez5s6IEZ-1">
          <mxGeometry x="90" y="80" width="110" height="90" as="geometry" />
        </mxCell>
        <mxCell id="3Hq1pv55Sjwv7JI5zO0x-10" value="MDT" style="whiteSpace=wrap;html=1;rounded=0;" vertex="1" parent="EaQ5UeQxbyehez5s6IEZ-1">
          <mxGeometry x="40" y="280" width="40" height="90" as="geometry" />
        </mxCell>
        <mxCell id="3Hq1pv55Sjwv7JI5zO0x-11" value="Key Account" style="whiteSpace=wrap;html=1;rounded=0;" vertex="1" parent="EaQ5UeQxbyehez5s6IEZ-1">
          <mxGeometry x="90" y="330" width="110" height="40" as="geometry" />
        </mxCell>
        <mxCell id="3Hq1pv55Sjwv7JI5zO0x-12" value="PC (The Mall)" style="whiteSpace=wrap;html=1;rounded=0;" vertex="1" parent="EaQ5UeQxbyehez5s6IEZ-1">
          <mxGeometry x="90" y="280" width="110" height="40" as="geometry" />
        </mxCell>
        <mxCell id="2Wr53jELMXYyVp4Bvv65-1" style="edgeStyle=orthogonalEdgeStyle;rounded=0;orthogonalLoop=1;jettySize=auto;html=1;entryX=0;entryY=0.5;entryDx=0;entryDy=0;" edge="1" parent="EaQ5UeQxbyehez5s6IEZ-1" source="cyvoxbR_X0-JrqZFGfHI-0" target="2Wr53jELMXYyVp4Bvv65-0">
          <mxGeometry relative="1" as="geometry" />
        </mxCell>
        <mxCell id="cyvoxbR_X0-JrqZFGfHI-0" value="Inventory check" style="whiteSpace=wrap;html=1;rounded=0;" vertex="1" parent="EaQ5UeQxbyehez5s6IEZ-1">
          <mxGeometry x="220" y="80" width="110" height="40" as="geometry" />
        </mxCell>
        <mxCell id="VQGDGewH1DxTfWyRxZrD-0" value="" style="shape=image;verticalLabelPosition=bottom;labelBackgroundColor=default;verticalAlign=top;aspect=fixed;imageAspect=0;image=https://i.ytimg.com/vi/Gkpk4LcL1lk/sddefault.jpg;clipPath=inset(66.89% 0.67% 10% 66%);" vertex="1" parent="EaQ5UeQxbyehez5s6IEZ-1">
          <mxGeometry x="300" y="64.40000000000003" width="30" height="15.6" as="geometry" />
        </mxCell>
        <mxCell id="2Wr53jELMXYyVp4Bvv65-5" style="edgeStyle=orthogonalEdgeStyle;rounded=0;orthogonalLoop=1;jettySize=auto;html=1;entryX=0;entryY=0.5;entryDx=0;entryDy=0;" edge="1" parent="EaQ5UeQxbyehez5s6IEZ-1" source="2Wr53jELMXYyVp4Bvv65-0" target="2Wr53jELMXYyVp4Bvv65-4">
          <mxGeometry relative="1" as="geometry" />
        </mxCell>
        <mxCell id="2Wr53jELMXYyVp4Bvv65-0" value="Sales Forecasting" style="whiteSpace=wrap;html=1;rounded=0;" vertex="1" parent="EaQ5UeQxbyehez5s6IEZ-1">
          <mxGeometry x="360" y="80" width="110" height="40" as="geometry" />
        </mxCell>
        <mxCell id="2Wr53jELMXYyVp4Bvv65-3" style="edgeStyle=orthogonalEdgeStyle;rounded=0;orthogonalLoop=1;jettySize=auto;html=1;entryX=0;entryY=0.5;entryDx=0;entryDy=0;" edge="1" parent="EaQ5UeQxbyehez5s6IEZ-1" source="2Wr53jELMXYyVp4Bvv65-2" target="2Wr53jELMXYyVp4Bvv65-0">
          <mxGeometry relative="1" as="geometry">
            <Array as="points">
              <mxPoint x="340" y="150" />
              <mxPoint x="340" y="100" />
            </Array>
          </mxGeometry>
        </mxCell>
        <mxCell id="2Wr53jELMXYyVp4Bvv65-2" value="Historical Sales" style="whiteSpace=wrap;html=1;rounded=0;" vertex="1" parent="EaQ5UeQxbyehez5s6IEZ-1">
          <mxGeometry x="220" y="130" width="110" height="40" as="geometry" />
        </mxCell>
        <mxCell id="6sp6M6xmkyIUZfDezdIA-2" style="edgeStyle=orthogonalEdgeStyle;rounded=0;orthogonalLoop=1;jettySize=auto;html=1;entryX=0.5;entryY=0;entryDx=0;entryDy=0;" edge="1" parent="EaQ5UeQxbyehez5s6IEZ-1" source="2Wr53jELMXYyVp4Bvv65-4" target="6sp6M6xmkyIUZfDezdIA-0">
          <mxGeometry relative="1" as="geometry" />
        </mxCell>
        <mxCell id="2Wr53jELMXYyVp4Bvv65-4" value="Sales Forecast (Thu)" style="whiteSpace=wrap;html=1;rounded=0;" vertex="1" parent="EaQ5UeQxbyehez5s6IEZ-1">
          <mxGeometry x="500" y="80" width="110" height="40" as="geometry" />
        </mxCell>
        <mxCell id="2Wr53jELMXYyVp4Bvv65-6" value="" style="shape=image;verticalLabelPosition=bottom;labelBackgroundColor=default;verticalAlign=top;aspect=fixed;imageAspect=0;image=https://i.ytimg.com/vi/Gkpk4LcL1lk/sddefault.jpg;clipPath=inset(66.89% 0.67% 10% 66%);" vertex="1" parent="EaQ5UeQxbyehez5s6IEZ-1">
          <mxGeometry x="440" y="64.40000000000003" width="30" height="15.6" as="geometry" />
        </mxCell>
        <mxCell id="IFqBkP2y9_BR8pn88t9T-0" value="" style="shape=image;html=1;verticalAlign=top;verticalLabelPosition=bottom;labelBackgroundColor=#ffffff;imageAspect=0;aspect=fixed;image=https://cdn3.iconfinder.com/data/icons/document-icons-2/30/647714-excel-128.png" vertex="1" parent="EaQ5UeQxbyehez5s6IEZ-1">
          <mxGeometry x="592" y="63.19999999999999" width="18" height="18" as="geometry" />
        </mxCell>
        <mxCell id="IFqBkP2y9_BR8pn88t9T-1" value="Storefront" style="whiteSpace=wrap;html=1;rounded=0;" vertex="1" parent="EaQ5UeQxbyehez5s6IEZ-1">
          <mxGeometry x="90" y="180" width="110" height="90" as="geometry" />
        </mxCell>
        <mxCell id="IFqBkP2y9_BR8pn88t9T-2" style="edgeStyle=orthogonalEdgeStyle;rounded=0;orthogonalLoop=1;jettySize=auto;html=1;entryX=0;entryY=0.5;entryDx=0;entryDy=0;" edge="1" parent="EaQ5UeQxbyehez5s6IEZ-1" source="IFqBkP2y9_BR8pn88t9T-3" target="IFqBkP2y9_BR8pn88t9T-6">
          <mxGeometry relative="1" as="geometry" />
        </mxCell>
        <mxCell id="IFqBkP2y9_BR8pn88t9T-3" value="Shelf inventory check" style="whiteSpace=wrap;html=1;rounded=0;" vertex="1" parent="EaQ5UeQxbyehez5s6IEZ-1">
          <mxGeometry x="220" y="180" width="110" height="40" as="geometry" />
        </mxCell>
        <mxCell id="IFqBkP2y9_BR8pn88t9T-5" style="edgeStyle=orthogonalEdgeStyle;rounded=0;orthogonalLoop=1;jettySize=auto;html=1;entryX=0;entryY=0.5;entryDx=0;entryDy=0;" edge="1" parent="EaQ5UeQxbyehez5s6IEZ-1" source="IFqBkP2y9_BR8pn88t9T-6" target="IFqBkP2y9_BR8pn88t9T-9">
          <mxGeometry relative="1" as="geometry" />
        </mxCell>
        <mxCell id="IFqBkP2y9_BR8pn88t9T-6" value="Sales Forecasting" style="whiteSpace=wrap;html=1;rounded=0;" vertex="1" parent="EaQ5UeQxbyehez5s6IEZ-1">
          <mxGeometry x="360" y="180" width="110" height="40" as="geometry" />
        </mxCell>
        <mxCell id="IFqBkP2y9_BR8pn88t9T-7" style="edgeStyle=orthogonalEdgeStyle;rounded=0;orthogonalLoop=1;jettySize=auto;html=1;entryX=0;entryY=0.5;entryDx=0;entryDy=0;" edge="1" parent="EaQ5UeQxbyehez5s6IEZ-1" source="IFqBkP2y9_BR8pn88t9T-8" target="IFqBkP2y9_BR8pn88t9T-6">
          <mxGeometry relative="1" as="geometry">
            <Array as="points">
              <mxPoint x="340" y="250" />
              <mxPoint x="340" y="200" />
            </Array>
          </mxGeometry>
        </mxCell>
        <mxCell id="IFqBkP2y9_BR8pn88t9T-8" value="Historical Sales" style="whiteSpace=wrap;html=1;rounded=0;" vertex="1" parent="EaQ5UeQxbyehez5s6IEZ-1">
          <mxGeometry x="220" y="230" width="110" height="40" as="geometry" />
        </mxCell>
        <mxCell id="6sp6M6xmkyIUZfDezdIA-3" style="edgeStyle=orthogonalEdgeStyle;rounded=0;orthogonalLoop=1;jettySize=auto;html=1;" edge="1" parent="EaQ5UeQxbyehez5s6IEZ-1" source="IFqBkP2y9_BR8pn88t9T-9">
          <mxGeometry relative="1" as="geometry">
            <mxPoint x="740" y="400" as="targetPoint" />
          </mxGeometry>
        </mxCell>
        <mxCell id="IFqBkP2y9_BR8pn88t9T-9" value="Sales Forecast (Thu)" style="whiteSpace=wrap;html=1;rounded=0;" vertex="1" parent="EaQ5UeQxbyehez5s6IEZ-1">
          <mxGeometry x="500" y="180" width="110" height="40" as="geometry" />
        </mxCell>
        <mxCell id="IFqBkP2y9_BR8pn88t9T-10" value="" style="shape=image;verticalLabelPosition=bottom;labelBackgroundColor=default;verticalAlign=top;aspect=fixed;imageAspect=0;image=https://i.ytimg.com/vi/Gkpk4LcL1lk/sddefault.jpg;clipPath=inset(66.89% 0.67% 10% 66%);" vertex="1" parent="EaQ5UeQxbyehez5s6IEZ-1">
          <mxGeometry x="440" y="164.40000000000003" width="30" height="15.6" as="geometry" />
        </mxCell>
        <mxCell id="IFqBkP2y9_BR8pn88t9T-11" value="" style="shape=image;html=1;verticalAlign=top;verticalLabelPosition=bottom;labelBackgroundColor=#ffffff;imageAspect=0;aspect=fixed;image=https://cdn3.iconfinder.com/data/icons/document-icons-2/30/647714-excel-128.png" vertex="1" parent="EaQ5UeQxbyehez5s6IEZ-1">
          <mxGeometry x="592" y="163.2" width="18" height="18" as="geometry" />
        </mxCell>
        <mxCell id="kTylWc_3o4StWVWcAelC-0" value="" style="shape=image;html=1;verticalAlign=top;verticalLabelPosition=bottom;labelBackgroundColor=#ffffff;imageAspect=0;aspect=fixed;image=https://cdn0.iconfinder.com/data/icons/phosphor-fill-vol-3/256/hand-fill-128.png;fillColor=#FFFFFF;" vertex="1" parent="EaQ5UeQxbyehez5s6IEZ-1">
          <mxGeometry x="310" y="164.4" width="28" height="28" as="geometry" />
        </mxCell>
        <mxCell id="kTylWc_3o4StWVWcAelC-1" value="" style="shape=image;html=1;verticalAlign=top;verticalLabelPosition=bottom;labelBackgroundColor=#ffffff;imageAspect=0;aspect=fixed;image=https://cdn0.iconfinder.com/data/icons/phosphor-fill-vol-3/256/hand-fill-128.png;fillColor=#FFFFFF;" vertex="1" parent="EaQ5UeQxbyehez5s6IEZ-1">
          <mxGeometry x="310" y="215" width="28" height="28" as="geometry" />
        </mxCell>
        <mxCell id="kTylWc_3o4StWVWcAelC-2" value="" style="shape=image;html=1;verticalAlign=top;verticalLabelPosition=bottom;labelBackgroundColor=#ffffff;imageAspect=0;aspect=fixed;image=https://cdn0.iconfinder.com/data/icons/phosphor-fill-vol-3/256/hand-fill-128.png;fillColor=#FFFFFF;" vertex="1" parent="EaQ5UeQxbyehez5s6IEZ-1">
          <mxGeometry x="310" y="115.00000000000001" width="28" height="28" as="geometry" />
        </mxCell>
        <mxCell id="6MfaPPnJlwpd6EY69S__-2" style="edgeStyle=orthogonalEdgeStyle;rounded=0;orthogonalLoop=1;jettySize=auto;html=1;entryX=0;entryY=0.5;entryDx=0;entryDy=0;" edge="1" parent="EaQ5UeQxbyehez5s6IEZ-1" source="kTylWc_3o4StWVWcAelC-3" target="6MfaPPnJlwpd6EY69S__-1">
          <mxGeometry relative="1" as="geometry">
            <Array as="points">
              <mxPoint x="340" y="300" />
              <mxPoint x="340" y="350" />
            </Array>
          </mxGeometry>
        </mxCell>
        <mxCell id="kTylWc_3o4StWVWcAelC-3" value="Branch sales and stock" style="whiteSpace=wrap;html=1;rounded=0;" vertex="1" parent="EaQ5UeQxbyehez5s6IEZ-1">
          <mxGeometry x="220" y="280" width="110" height="40" as="geometry" />
        </mxCell>
        <mxCell id="6MfaPPnJlwpd6EY69S__-0" value="" style="image;aspect=fixed;perimeter=ellipsePerimeter;html=1;align=center;shadow=0;dashed=0;spacingTop=3;image=img/lib/active_directory/cell_phone.svg;" vertex="1" parent="EaQ5UeQxbyehez5s6IEZ-1">
          <mxGeometry x="319" y="260" width="11" height="26.19" as="geometry" />
        </mxCell>
        <mxCell id="6MfaPPnJlwpd6EY69S__-5" style="edgeStyle=orthogonalEdgeStyle;rounded=0;orthogonalLoop=1;jettySize=auto;html=1;entryX=0;entryY=0.5;entryDx=0;entryDy=0;" edge="1" parent="EaQ5UeQxbyehez5s6IEZ-1" source="6MfaPPnJlwpd6EY69S__-1" target="6MfaPPnJlwpd6EY69S__-4">
          <mxGeometry relative="1" as="geometry" />
        </mxCell>
        <mxCell id="6MfaPPnJlwpd6EY69S__-1" value="Sales Forecasting" style="whiteSpace=wrap;html=1;rounded=0;" vertex="1" parent="EaQ5UeQxbyehez5s6IEZ-1">
          <mxGeometry x="360" y="330" width="110" height="40" as="geometry" />
        </mxCell>
        <mxCell id="6MfaPPnJlwpd6EY69S__-3" value="" style="shape=image;html=1;verticalAlign=top;verticalLabelPosition=bottom;labelBackgroundColor=#ffffff;imageAspect=0;aspect=fixed;image=https://cdn3.iconfinder.com/data/icons/document-icons-2/30/647714-excel-128.png" vertex="1" parent="EaQ5UeQxbyehez5s6IEZ-1">
          <mxGeometry x="592" y="312" width="18" height="18" as="geometry" />
        </mxCell>
        <mxCell id="6sp6M6xmkyIUZfDezdIA-4" style="edgeStyle=orthogonalEdgeStyle;rounded=0;orthogonalLoop=1;jettySize=auto;html=1;" edge="1" parent="EaQ5UeQxbyehez5s6IEZ-1" source="6MfaPPnJlwpd6EY69S__-4">
          <mxGeometry relative="1" as="geometry">
            <mxPoint x="740" y="390" as="targetPoint" />
          </mxGeometry>
        </mxCell>
        <mxCell id="6MfaPPnJlwpd6EY69S__-4" value="Sales Forecast (Thu)" style="whiteSpace=wrap;html=1;rounded=0;" vertex="1" parent="EaQ5UeQxbyehez5s6IEZ-1">
          <mxGeometry x="500" y="330" width="110" height="40" as="geometry" />
        </mxCell>
        <mxCell id="6sp6M6xmkyIUZfDezdIA-0" value="" style="ellipse;whiteSpace=wrap;html=1;" vertex="1" parent="EaQ5UeQxbyehez5s6IEZ-1">
          <mxGeometry x="725" y="390" width="30" height="27.75" as="geometry" />
        </mxCell>
        <mxCell id="6sp6M6xmkyIUZfDezdIA-1" value="Production Planning" style="text;html=1;align=center;verticalAlign=middle;whiteSpace=wrap;rounded=0;" vertex="1" parent="EaQ5UeQxbyehez5s6IEZ-1">
          <mxGeometry x="710" y="422.63" width="60" height="30" as="geometry" />
        </mxCell>
        <mxCell id="-I8LjhM_lC8fNmmOZw4K-0" value="" style="shape=image;verticalLabelPosition=bottom;labelBackgroundColor=default;verticalAlign=top;aspect=fixed;imageAspect=0;image=https://i.ytimg.com/vi/Gkpk4LcL1lk/sddefault.jpg;clipPath=inset(66.89% 0.67% 10% 66%);" vertex="1" parent="EaQ5UeQxbyehez5s6IEZ-1">
          <mxGeometry x="440" y="314.40000000000003" width="30" height="15.6" as="geometry" />
        </mxCell>
      </root>
    </mxGraphModel>
  </diagram>
  <diagram name="Sales Forecasting B2B" id="azB50BDIGhVEfd_5aXlY">
    <mxGraphModel dx="1407" dy="539" grid="1" gridSize="10" guides="1" tooltips="1" connect="1" arrows="1" fold="1" page="1" pageScale="1" pageWidth="1169" pageHeight="827" math="0" shadow="0">
      <root>
        <mxCell id="JZ_r_AqSHelRdaP1_dvN-0" />
        <mxCell id="JZ_r_AqSHelRdaP1_dvN-1" parent="JZ_r_AqSHelRdaP1_dvN-0" />
        <mxCell id="JZ_r_AqSHelRdaP1_dvN-2" value="&lt;font style=&quot;font-size: 24px;&quot;&gt;Sales Forecasting B2B information flow&lt;/font&gt;" style="text;html=1;align=center;verticalAlign=middle;whiteSpace=wrap;rounded=0;" vertex="1" parent="JZ_r_AqSHelRdaP1_dvN-1">
          <mxGeometry x="10" y="10" width="440" height="30" as="geometry" />
        </mxCell>
        <mxCell id="JZ_r_AqSHelRdaP1_dvN-3" value="Sales B2B" style="whiteSpace=wrap;html=1;rounded=0;" vertex="1" parent="JZ_r_AqSHelRdaP1_dvN-1">
          <mxGeometry x="40" y="80" width="40" height="290" as="geometry" />
        </mxCell>
        <mxCell id="JZ_r_AqSHelRdaP1_dvN-5" value="Sales B2B" style="whiteSpace=wrap;html=1;rounded=0;" vertex="1" parent="JZ_r_AqSHelRdaP1_dvN-1">
          <mxGeometry x="90" y="80" width="110" height="90" as="geometry" />
        </mxCell>
        <mxCell id="JZ_r_AqSHelRdaP1_dvN-20" value="Sales Wet Market" style="whiteSpace=wrap;html=1;rounded=0;" vertex="1" parent="JZ_r_AqSHelRdaP1_dvN-1">
          <mxGeometry x="90" y="180" width="110" height="90" as="geometry" />
        </mxCell>
        <mxCell id="Pqhc32nQIrvFPBRfA3ZS-0" value="Sales Admin" style="whiteSpace=wrap;html=1;rounded=0;" vertex="1" parent="JZ_r_AqSHelRdaP1_dvN-1">
          <mxGeometry x="90" y="280" width="110" height="90" as="geometry" />
        </mxCell>
        <mxCell id="MvmwjeqEmWj7rKBR_H39-0" style="edgeStyle=orthogonalEdgeStyle;rounded=0;orthogonalLoop=1;jettySize=auto;html=1;entryX=0;entryY=0.5;entryDx=0;entryDy=0;" edge="1" parent="JZ_r_AqSHelRdaP1_dvN-1" source="MvmwjeqEmWj7rKBR_H39-1" target="MvmwjeqEmWj7rKBR_H39-4">
          <mxGeometry relative="1" as="geometry" />
        </mxCell>
        <mxCell id="MvmwjeqEmWj7rKBR_H39-1" value="Inventory check" style="whiteSpace=wrap;html=1;rounded=0;" vertex="1" parent="JZ_r_AqSHelRdaP1_dvN-1">
          <mxGeometry x="220" y="280" width="110" height="40" as="geometry" />
        </mxCell>
        <mxCell id="MvmwjeqEmWj7rKBR_H39-2" value="" style="shape=image;verticalLabelPosition=bottom;labelBackgroundColor=default;verticalAlign=top;aspect=fixed;imageAspect=0;image=https://i.ytimg.com/vi/Gkpk4LcL1lk/sddefault.jpg;clipPath=inset(66.89% 0.67% 10% 66%);" vertex="1" parent="JZ_r_AqSHelRdaP1_dvN-1">
          <mxGeometry x="300" y="264.40000000000003" width="30" height="15.6" as="geometry" />
        </mxCell>
        <mxCell id="MvmwjeqEmWj7rKBR_H39-3" style="edgeStyle=orthogonalEdgeStyle;rounded=0;orthogonalLoop=1;jettySize=auto;html=1;entryX=0;entryY=0.5;entryDx=0;entryDy=0;" edge="1" parent="JZ_r_AqSHelRdaP1_dvN-1" source="MvmwjeqEmWj7rKBR_H39-4" target="MvmwjeqEmWj7rKBR_H39-7">
          <mxGeometry relative="1" as="geometry" />
        </mxCell>
        <mxCell id="MvmwjeqEmWj7rKBR_H39-4" value="Sales Forecasting" style="whiteSpace=wrap;html=1;rounded=0;" vertex="1" parent="JZ_r_AqSHelRdaP1_dvN-1">
          <mxGeometry x="360" y="280" width="110" height="40" as="geometry" />
        </mxCell>
        <mxCell id="MvmwjeqEmWj7rKBR_H39-5" style="edgeStyle=orthogonalEdgeStyle;rounded=0;orthogonalLoop=1;jettySize=auto;html=1;entryX=0;entryY=0.5;entryDx=0;entryDy=0;" edge="1" parent="JZ_r_AqSHelRdaP1_dvN-1" source="MvmwjeqEmWj7rKBR_H39-6" target="MvmwjeqEmWj7rKBR_H39-4">
          <mxGeometry relative="1" as="geometry">
            <Array as="points">
              <mxPoint x="340" y="350" />
              <mxPoint x="340" y="300" />
            </Array>
          </mxGeometry>
        </mxCell>
        <mxCell id="MvmwjeqEmWj7rKBR_H39-6" value="Historical Sales" style="whiteSpace=wrap;html=1;rounded=0;" vertex="1" parent="JZ_r_AqSHelRdaP1_dvN-1">
          <mxGeometry x="220" y="330" width="110" height="40" as="geometry" />
        </mxCell>
        <mxCell id="iUgTmOKdWFGkZi91st98-1" style="edgeStyle=orthogonalEdgeStyle;rounded=0;orthogonalLoop=1;jettySize=auto;html=1;" edge="1" parent="JZ_r_AqSHelRdaP1_dvN-1" source="MvmwjeqEmWj7rKBR_H39-7" target="JJ8tXUmNSRgQL1fG2ceO-0">
          <mxGeometry relative="1" as="geometry" />
        </mxCell>
        <mxCell id="MvmwjeqEmWj7rKBR_H39-7" value="Sales Forecast (Wed)" style="whiteSpace=wrap;html=1;rounded=0;" vertex="1" parent="JZ_r_AqSHelRdaP1_dvN-1">
          <mxGeometry x="500" y="280" width="110" height="40" as="geometry" />
        </mxCell>
        <mxCell id="MvmwjeqEmWj7rKBR_H39-8" value="" style="shape=image;verticalLabelPosition=bottom;labelBackgroundColor=default;verticalAlign=top;aspect=fixed;imageAspect=0;image=https://i.ytimg.com/vi/Gkpk4LcL1lk/sddefault.jpg;clipPath=inset(66.89% 0.67% 10% 66%);" vertex="1" parent="JZ_r_AqSHelRdaP1_dvN-1">
          <mxGeometry x="440" y="264.40000000000003" width="30" height="15.6" as="geometry" />
        </mxCell>
        <mxCell id="MvmwjeqEmWj7rKBR_H39-9" value="" style="shape=image;html=1;verticalAlign=top;verticalLabelPosition=bottom;labelBackgroundColor=#ffffff;imageAspect=0;aspect=fixed;image=https://cdn3.iconfinder.com/data/icons/document-icons-2/30/647714-excel-128.png" vertex="1" parent="JZ_r_AqSHelRdaP1_dvN-1">
          <mxGeometry x="592" y="263.2" width="18" height="18" as="geometry" />
        </mxCell>
        <mxCell id="MvmwjeqEmWj7rKBR_H39-11" value="" style="shape=image;html=1;verticalAlign=top;verticalLabelPosition=bottom;labelBackgroundColor=#ffffff;imageAspect=0;aspect=fixed;image=https://cdn3.iconfinder.com/data/icons/document-icons-2/30/647714-excel-128.png" vertex="1" parent="JZ_r_AqSHelRdaP1_dvN-1">
          <mxGeometry x="312" y="312" width="18" height="18" as="geometry" />
        </mxCell>
        <mxCell id="MvmwjeqEmWj7rKBR_H39-14" style="edgeStyle=orthogonalEdgeStyle;rounded=0;orthogonalLoop=1;jettySize=auto;html=1;entryX=0;entryY=0.5;entryDx=0;entryDy=0;" edge="1" parent="JZ_r_AqSHelRdaP1_dvN-1" source="MvmwjeqEmWj7rKBR_H39-12" target="MvmwjeqEmWj7rKBR_H39-6">
          <mxGeometry relative="1" as="geometry">
            <Array as="points">
              <mxPoint x="210" y="100" />
              <mxPoint x="210" y="350" />
            </Array>
          </mxGeometry>
        </mxCell>
        <mxCell id="MvmwjeqEmWj7rKBR_H39-12" value="Sales Order" style="whiteSpace=wrap;html=1;rounded=0;" vertex="1" parent="JZ_r_AqSHelRdaP1_dvN-1">
          <mxGeometry x="220" y="80" width="110" height="40" as="geometry" />
        </mxCell>
        <mxCell id="MvmwjeqEmWj7rKBR_H39-15" style="edgeStyle=orthogonalEdgeStyle;rounded=0;orthogonalLoop=1;jettySize=auto;html=1;entryX=0;entryY=0.5;entryDx=0;entryDy=0;" edge="1" parent="JZ_r_AqSHelRdaP1_dvN-1" source="MvmwjeqEmWj7rKBR_H39-13" target="MvmwjeqEmWj7rKBR_H39-6">
          <mxGeometry relative="1" as="geometry">
            <Array as="points">
              <mxPoint x="210" y="200" />
              <mxPoint x="210" y="350" />
            </Array>
          </mxGeometry>
        </mxCell>
        <mxCell id="MvmwjeqEmWj7rKBR_H39-13" value="Sales Order" style="whiteSpace=wrap;html=1;rounded=0;" vertex="1" parent="JZ_r_AqSHelRdaP1_dvN-1">
          <mxGeometry x="220" y="180" width="110" height="40" as="geometry" />
        </mxCell>
        <mxCell id="JJ8tXUmNSRgQL1fG2ceO-0" value="" style="ellipse;whiteSpace=wrap;html=1;" vertex="1" parent="JZ_r_AqSHelRdaP1_dvN-1">
          <mxGeometry x="725" y="384" width="30" height="27.75" as="geometry" />
        </mxCell>
        <mxCell id="JJ8tXUmNSRgQL1fG2ceO-1" value="Production Planning" style="text;html=1;align=center;verticalAlign=middle;whiteSpace=wrap;rounded=0;" vertex="1" parent="JZ_r_AqSHelRdaP1_dvN-1">
          <mxGeometry x="710" y="416.63" width="60" height="30" as="geometry" />
        </mxCell>
        <mxCell id="iUgTmOKdWFGkZi91st98-0" value="Production" style="whiteSpace=wrap;html=1;rounded=0;" vertex="1" parent="JZ_r_AqSHelRdaP1_dvN-1">
          <mxGeometry x="40" y="384" width="160" height="40" as="geometry" />
        </mxCell>
      </root>
    </mxGraphModel>
  </diagram>
  <diagram name="MPS" id="3PSEQ6IP6d7wRdHTJW9H">
    <mxGraphModel dx="1688" dy="647" grid="1" gridSize="10" guides="1" tooltips="1" connect="1" arrows="1" fold="1" page="1" pageScale="1" pageWidth="1169" pageHeight="827" math="0" shadow="0">
      <root>
        <mxCell id="Lp7DW3RqeQi7_vj7h4bg-0" />
        <mxCell id="Lp7DW3RqeQi7_vj7h4bg-1" parent="Lp7DW3RqeQi7_vj7h4bg-0" />
        <mxCell id="Lp7DW3RqeQi7_vj7h4bg-6" value="&lt;font style=&quot;font-size: 24px;&quot;&gt;Master Production Scheduling information flow&lt;/font&gt;" style="text;html=1;align=center;verticalAlign=middle;whiteSpace=wrap;rounded=0;" parent="Lp7DW3RqeQi7_vj7h4bg-1" vertex="1">
          <mxGeometry x="10" y="10" width="520" height="30" as="geometry" />
        </mxCell>
        <mxCell id="Lp7DW3RqeQi7_vj7h4bg-9" value="Sales&lt;div&gt;B2C&lt;/div&gt;" style="whiteSpace=wrap;html=1;rounded=0;" parent="Lp7DW3RqeQi7_vj7h4bg-1" vertex="1">
          <mxGeometry x="40" y="80" width="70" height="137.75" as="geometry" />
        </mxCell>
        <mxCell id="Lp7DW3RqeQi7_vj7h4bg-10" value="Production" style="whiteSpace=wrap;html=1;rounded=0;" parent="Lp7DW3RqeQi7_vj7h4bg-1" vertex="1">
          <mxGeometry x="40" y="228.75" width="150" height="37.75" as="geometry" />
        </mxCell>
        <mxCell id="Lp7DW3RqeQi7_vj7h4bg-11" value="Warehouse" style="whiteSpace=wrap;html=1;rounded=0;" parent="Lp7DW3RqeQi7_vj7h4bg-1" vertex="1">
          <mxGeometry x="40" y="327.75" width="150" height="37.75" as="geometry" />
        </mxCell>
        <mxCell id="Lp7DW3RqeQi7_vj7h4bg-12" value="Purchasing" style="whiteSpace=wrap;html=1;rounded=0;" parent="Lp7DW3RqeQi7_vj7h4bg-1" vertex="1">
          <mxGeometry x="40" y="278.75" width="150" height="37.75" as="geometry" />
        </mxCell>
        <mxCell id="Lp7DW3RqeQi7_vj7h4bg-13" value="Supplier" style="whiteSpace=wrap;html=1;rounded=0;" parent="Lp7DW3RqeQi7_vj7h4bg-1" vertex="1">
          <mxGeometry x="40" y="428.75" width="150" height="37.75" as="geometry" />
        </mxCell>
        <mxCell id="Lp7DW3RqeQi7_vj7h4bg-14" value="Finance" style="whiteSpace=wrap;html=1;rounded=0;" parent="Lp7DW3RqeQi7_vj7h4bg-1" vertex="1">
          <mxGeometry x="40" y="380" width="150" height="37.75" as="geometry" />
        </mxCell>
        <mxCell id="Lp7DW3RqeQi7_vj7h4bg-16" style="edgeStyle=orthogonalEdgeStyle;rounded=0;orthogonalLoop=1;jettySize=auto;html=1;entryX=0;entryY=0.5;entryDx=0;entryDy=0;exitX=0.463;exitY=1.007;exitDx=0;exitDy=0;exitPerimeter=0;" parent="Lp7DW3RqeQi7_vj7h4bg-1" source="Lp7DW3RqeQi7_vj7h4bg-17" target="Lp7DW3RqeQi7_vj7h4bg-22" edge="1">
          <mxGeometry relative="1" as="geometry">
            <mxPoint x="330" y="477.63" as="targetPoint" />
          </mxGeometry>
        </mxCell>
        <mxCell id="Lp7DW3RqeQi7_vj7h4bg-17" value="Sales Forecast&lt;div&gt;(Thu)&lt;/div&gt;" style="whiteSpace=wrap;html=1;rounded=0;" parent="Lp7DW3RqeQi7_vj7h4bg-1" vertex="1">
          <mxGeometry x="280" y="79.88000000000001" width="100" height="137.75" as="geometry" />
        </mxCell>
        <mxCell id="AkhXkspRv0ggRXg5d-rm-4" style="edgeStyle=orthogonalEdgeStyle;rounded=0;orthogonalLoop=1;jettySize=auto;html=1;entryX=0;entryY=0.5;entryDx=0;entryDy=0;" parent="Lp7DW3RqeQi7_vj7h4bg-1" source="Lp7DW3RqeQi7_vj7h4bg-22" target="AkhXkspRv0ggRXg5d-rm-3" edge="1">
          <mxGeometry relative="1" as="geometry" />
        </mxCell>
        <mxCell id="Lp7DW3RqeQi7_vj7h4bg-22" value="Production Planning (Thu)" style="whiteSpace=wrap;html=1;rounded=1;" parent="Lp7DW3RqeQi7_vj7h4bg-1" vertex="1">
          <mxGeometry x="670" y="228.75" width="100" height="37.75" as="geometry" />
        </mxCell>
        <mxCell id="Lp7DW3RqeQi7_vj7h4bg-26" value="" style="shape=image;html=1;verticalAlign=top;verticalLabelPosition=bottom;labelBackgroundColor=#ffffff;imageAspect=0;aspect=fixed;image=https://cdn3.iconfinder.com/data/icons/document-icons-2/30/647714-excel-128.png" parent="Lp7DW3RqeQi7_vj7h4bg-1" vertex="1">
          <mxGeometry x="321" y="165.75" width="18" height="18" as="geometry" />
        </mxCell>
        <mxCell id="Lp7DW3RqeQi7_vj7h4bg-38" value="Sales&lt;div&gt;B2B&lt;/div&gt;" style="whiteSpace=wrap;html=1;rounded=0;" parent="Lp7DW3RqeQi7_vj7h4bg-1" vertex="1">
          <mxGeometry x="120" y="80" width="70" height="137.75" as="geometry" />
        </mxCell>
        <mxCell id="Lp7DW3RqeQi7_vj7h4bg-39" style="edgeStyle=orthogonalEdgeStyle;rounded=0;orthogonalLoop=1;jettySize=auto;html=1;entryX=0;entryY=0.5;entryDx=0;entryDy=0;" parent="Lp7DW3RqeQi7_vj7h4bg-1" source="Lp7DW3RqeQi7_vj7h4bg-40" target="Lp7DW3RqeQi7_vj7h4bg-17" edge="1">
          <mxGeometry relative="1" as="geometry" />
        </mxCell>
        <mxCell id="Lp7DW3RqeQi7_vj7h4bg-40" value="" style="ellipse;whiteSpace=wrap;html=1;" parent="Lp7DW3RqeQi7_vj7h4bg-1" vertex="1">
          <mxGeometry x="210" y="135.75" width="30" height="27.75" as="geometry" />
        </mxCell>
        <mxCell id="Lp7DW3RqeQi7_vj7h4bg-41" value="Sales Forecasting" style="text;html=1;align=center;verticalAlign=middle;whiteSpace=wrap;rounded=0;" parent="Lp7DW3RqeQi7_vj7h4bg-1" vertex="1">
          <mxGeometry x="195" y="165.75" width="60" height="30" as="geometry" />
        </mxCell>
        <mxCell id="FWT2HOInemEjzCXhcxw_-0" value="Adhoc Sales Order" style="whiteSpace=wrap;html=1;rounded=0;" parent="Lp7DW3RqeQi7_vj7h4bg-1" vertex="1">
          <mxGeometry x="410" y="79.88000000000001" width="100" height="137.75" as="geometry" />
        </mxCell>
        <mxCell id="AkhXkspRv0ggRXg5d-rm-0" style="edgeStyle=orthogonalEdgeStyle;rounded=0;orthogonalLoop=1;jettySize=auto;html=1;exitX=0.5;exitY=1;exitDx=0;exitDy=0;entryX=0;entryY=0.5;entryDx=0;entryDy=0;" parent="Lp7DW3RqeQi7_vj7h4bg-1" source="FWT2HOInemEjzCXhcxw_-0" target="Lp7DW3RqeQi7_vj7h4bg-22" edge="1">
          <mxGeometry relative="1" as="geometry" />
        </mxCell>
        <mxCell id="AkhXkspRv0ggRXg5d-rm-8" style="edgeStyle=orthogonalEdgeStyle;rounded=0;orthogonalLoop=1;jettySize=auto;html=1;entryX=0;entryY=0.5;entryDx=0;entryDy=0;" parent="Lp7DW3RqeQi7_vj7h4bg-1" source="AkhXkspRv0ggRXg5d-rm-3" target="AkhXkspRv0ggRXg5d-rm-5" edge="1">
          <mxGeometry relative="1" as="geometry" />
        </mxCell>
        <mxCell id="AkhXkspRv0ggRXg5d-rm-3" value="Production Plan&lt;div&gt;(Sat-Fri)&lt;/div&gt;" style="whiteSpace=wrap;html=1;rounded=0;" parent="Lp7DW3RqeQi7_vj7h4bg-1" vertex="1">
          <mxGeometry x="800" y="228.75" width="100" height="37.75" as="geometry" />
        </mxCell>
        <mxCell id="AkhXkspRv0ggRXg5d-rm-5" value="" style="ellipse;whiteSpace=wrap;html=1;" parent="Lp7DW3RqeQi7_vj7h4bg-1" vertex="1">
          <mxGeometry x="940" y="233.75" width="30" height="27.75" as="geometry" />
        </mxCell>
        <mxCell id="AkhXkspRv0ggRXg5d-rm-6" value="MRP" style="text;html=1;align=center;verticalAlign=middle;whiteSpace=wrap;rounded=0;" parent="Lp7DW3RqeQi7_vj7h4bg-1" vertex="1">
          <mxGeometry x="925" y="266.5" width="60" height="30" as="geometry" />
        </mxCell>
        <mxCell id="ECGNaMSk7jIm-BEeA-U5-0" value="" style="shape=image;html=1;verticalAlign=top;verticalLabelPosition=bottom;labelBackgroundColor=#ffffff;imageAspect=0;aspect=fixed;image=https://cdn3.iconfinder.com/data/icons/document-icons-2/30/647714-excel-128.png" parent="Lp7DW3RqeQi7_vj7h4bg-1" vertex="1">
          <mxGeometry x="882" y="210.75" width="18" height="18" as="geometry" />
        </mxCell>
        <mxCell id="ZqTvXqKsnIaurgsCbHFh-0" value="" style="image;aspect=fixed;perimeter=ellipsePerimeter;html=1;align=center;shadow=0;dashed=0;spacingTop=3;image=img/lib/active_directory/cell_phone.svg;" parent="Lp7DW3RqeQi7_vj7h4bg-1" vertex="1">
          <mxGeometry x="454.5" y="165.75" width="11" height="26.19" as="geometry" />
        </mxCell>
      </root>
    </mxGraphModel>
  </diagram>
  <diagram name="MRP" id="_WpK9GcKDZ6MbUbV-8WO">
    <mxGraphModel dx="1407" dy="539" grid="1" gridSize="10" guides="1" tooltips="1" connect="1" arrows="1" fold="1" page="1" pageScale="1" pageWidth="1169" pageHeight="827" math="0" shadow="0">
      <root>
        <mxCell id="O_Iy7LO-BlmU1noZ7wO6-0" />
        <mxCell id="O_Iy7LO-BlmU1noZ7wO6-1" parent="O_Iy7LO-BlmU1noZ7wO6-0" />
        <mxCell id="O_Iy7LO-BlmU1noZ7wO6-30" value="&lt;font style=&quot;font-size: 24px;&quot;&gt;Raw Material Planning information flow&lt;/font&gt;" style="text;html=1;align=center;verticalAlign=middle;whiteSpace=wrap;rounded=0;" parent="O_Iy7LO-BlmU1noZ7wO6-1" vertex="1">
          <mxGeometry x="10" y="10" width="440" height="30" as="geometry" />
        </mxCell>
        <mxCell id="y9YY_HSq4wRC6tmuaotU-0" value="Sales&lt;div&gt;B2C&lt;/div&gt;" style="whiteSpace=wrap;html=1;rounded=0;" parent="O_Iy7LO-BlmU1noZ7wO6-1" vertex="1">
          <mxGeometry x="40" y="80" width="70" height="137.75" as="geometry" />
        </mxCell>
        <mxCell id="Q86Qknj2SIJDINQwdJXk-0" value="Production" style="whiteSpace=wrap;html=1;rounded=0;" parent="O_Iy7LO-BlmU1noZ7wO6-1" vertex="1">
          <mxGeometry x="40" y="228.75" width="150" height="37.75" as="geometry" />
        </mxCell>
        <mxCell id="Q86Qknj2SIJDINQwdJXk-1" value="Warehouse" style="whiteSpace=wrap;html=1;rounded=0;" parent="O_Iy7LO-BlmU1noZ7wO6-1" vertex="1">
          <mxGeometry x="40" y="325.75" width="150" height="37.75" as="geometry" />
        </mxCell>
        <mxCell id="o7-lMj8LcBiv46t0_ATD-0" value="Purchasing" style="whiteSpace=wrap;html=1;rounded=0;" parent="O_Iy7LO-BlmU1noZ7wO6-1" vertex="1">
          <mxGeometry x="40" y="278.75" width="150" height="37.75" as="geometry" />
        </mxCell>
        <mxCell id="o7-lMj8LcBiv46t0_ATD-1" value="Supplier" style="whiteSpace=wrap;html=1;rounded=0;" parent="O_Iy7LO-BlmU1noZ7wO6-1" vertex="1">
          <mxGeometry x="40" y="420" width="150" height="37.75" as="geometry" />
        </mxCell>
        <mxCell id="o7-lMj8LcBiv46t0_ATD-2" value="Finance" style="whiteSpace=wrap;html=1;rounded=0;" parent="O_Iy7LO-BlmU1noZ7wO6-1" vertex="1">
          <mxGeometry x="40" y="373" width="150" height="37.75" as="geometry" />
        </mxCell>
        <mxCell id="dNegRV6yfQrcQl7lEnRx-1" style="edgeStyle=orthogonalEdgeStyle;rounded=0;orthogonalLoop=1;jettySize=auto;html=1;entryX=0;entryY=0.5;entryDx=0;entryDy=0;" edge="1" parent="O_Iy7LO-BlmU1noZ7wO6-1" source="ZAY6LWtMjEuoTKu7gdT_-0" target="dNegRV6yfQrcQl7lEnRx-0">
          <mxGeometry relative="1" as="geometry" />
        </mxCell>
        <mxCell id="ZAY6LWtMjEuoTKu7gdT_-0" value="Raw Material Planning" style="whiteSpace=wrap;html=1;rounded=1;" parent="O_Iy7LO-BlmU1noZ7wO6-1" vertex="1">
          <mxGeometry x="585" y="228.75" width="100" height="37.75" as="geometry" />
        </mxCell>
        <mxCell id="PVYQ5Nz8jUjxe8M2Wp3h-0" value="Sales&lt;div&gt;B2B&lt;/div&gt;" style="whiteSpace=wrap;html=1;rounded=0;" parent="O_Iy7LO-BlmU1noZ7wO6-1" vertex="1">
          <mxGeometry x="120" y="80" width="70" height="137.75" as="geometry" />
        </mxCell>
        <mxCell id="Xi74beb4t60paUX_cstA-1" style="edgeStyle=orthogonalEdgeStyle;rounded=0;orthogonalLoop=1;jettySize=auto;html=1;exitX=1;exitY=0.5;exitDx=0;exitDy=0;entryX=0;entryY=0.5;entryDx=0;entryDy=0;" parent="O_Iy7LO-BlmU1noZ7wO6-1" source="PVYQ5Nz8jUjxe8M2Wp3h-4" target="Xi74beb4t60paUX_cstA-0" edge="1">
          <mxGeometry relative="1" as="geometry" />
        </mxCell>
        <mxCell id="PVYQ5Nz8jUjxe8M2Wp3h-4" value="" style="ellipse;whiteSpace=wrap;html=1;" parent="O_Iy7LO-BlmU1noZ7wO6-1" vertex="1">
          <mxGeometry x="348" y="233.75" width="30" height="27.75" as="geometry" />
        </mxCell>
        <mxCell id="PVYQ5Nz8jUjxe8M2Wp3h-5" value="Production Planning" style="text;html=1;align=center;verticalAlign=middle;whiteSpace=wrap;rounded=0;" parent="O_Iy7LO-BlmU1noZ7wO6-1" vertex="1">
          <mxGeometry x="333" y="266.38" width="60" height="30" as="geometry" />
        </mxCell>
        <mxCell id="Xi74beb4t60paUX_cstA-2" style="edgeStyle=orthogonalEdgeStyle;rounded=0;orthogonalLoop=1;jettySize=auto;html=1;entryX=0;entryY=0.5;entryDx=0;entryDy=0;" parent="O_Iy7LO-BlmU1noZ7wO6-1" source="Xi74beb4t60paUX_cstA-0" target="ZAY6LWtMjEuoTKu7gdT_-0" edge="1">
          <mxGeometry relative="1" as="geometry" />
        </mxCell>
        <mxCell id="Xi74beb4t60paUX_cstA-0" value="Production Plan&lt;div&gt;(Sat-Fri)&lt;/div&gt;" style="whiteSpace=wrap;html=1;rounded=0;" parent="O_Iy7LO-BlmU1noZ7wO6-1" vertex="1">
          <mxGeometry x="440" y="228.75" width="100" height="37.75" as="geometry" />
        </mxCell>
        <mxCell id="8I-DMyHDoQjdAcyfeCuW-0" value="" style="ellipse;whiteSpace=wrap;html=1;" parent="O_Iy7LO-BlmU1noZ7wO6-1" vertex="1">
          <mxGeometry x="895" y="340.19" width="30" height="27.75" as="geometry" />
        </mxCell>
        <mxCell id="8I-DMyHDoQjdAcyfeCuW-2" value="Warehouse&lt;div&gt;Receiving&lt;/div&gt;" style="text;html=1;align=center;verticalAlign=middle;whiteSpace=wrap;rounded=0;" parent="O_Iy7LO-BlmU1noZ7wO6-1" vertex="1">
          <mxGeometry x="880" y="369.94" width="60" height="30" as="geometry" />
        </mxCell>
        <mxCell id="uqncpxjX-vMt5Q9ktr0d-0" value="" style="ellipse;whiteSpace=wrap;html=1;" vertex="1" parent="O_Iy7LO-BlmU1noZ7wO6-1">
          <mxGeometry x="895" y="278.75" width="30" height="27.75" as="geometry" />
        </mxCell>
        <mxCell id="uqncpxjX-vMt5Q9ktr0d-1" value="Procurement" style="text;html=1;align=center;verticalAlign=middle;whiteSpace=wrap;rounded=0;" vertex="1" parent="O_Iy7LO-BlmU1noZ7wO6-1">
          <mxGeometry x="880" y="305.82" width="60" height="30" as="geometry" />
        </mxCell>
        <mxCell id="3_EMBv0VPo5Oy8AUEtZj-0" value="" style="shape=image;html=1;verticalAlign=top;verticalLabelPosition=bottom;labelBackgroundColor=#ffffff;imageAspect=0;aspect=fixed;image=https://cdn3.iconfinder.com/data/icons/document-icons-2/30/647714-excel-128.png" vertex="1" parent="O_Iy7LO-BlmU1noZ7wO6-1">
          <mxGeometry x="522" y="210.75" width="18" height="18" as="geometry" />
        </mxCell>
        <mxCell id="dNegRV6yfQrcQl7lEnRx-3" style="edgeStyle=orthogonalEdgeStyle;rounded=0;orthogonalLoop=1;jettySize=auto;html=1;exitX=1;exitY=0.5;exitDx=0;exitDy=0;entryX=0;entryY=0.5;entryDx=0;entryDy=0;" edge="1" parent="O_Iy7LO-BlmU1noZ7wO6-1" source="dNegRV6yfQrcQl7lEnRx-0" target="uqncpxjX-vMt5Q9ktr0d-0">
          <mxGeometry relative="1" as="geometry" />
        </mxCell>
        <mxCell id="dNegRV6yfQrcQl7lEnRx-4" style="edgeStyle=orthogonalEdgeStyle;rounded=0;orthogonalLoop=1;jettySize=auto;html=1;entryX=0;entryY=0.5;entryDx=0;entryDy=0;" edge="1" parent="O_Iy7LO-BlmU1noZ7wO6-1" source="dNegRV6yfQrcQl7lEnRx-0" target="8I-DMyHDoQjdAcyfeCuW-0">
          <mxGeometry relative="1" as="geometry" />
        </mxCell>
        <mxCell id="dNegRV6yfQrcQl7lEnRx-0" value="Raw Material Plan&lt;div&gt;(Sat-Fri)&lt;/div&gt;" style="whiteSpace=wrap;html=1;rounded=0;" vertex="1" parent="O_Iy7LO-BlmU1noZ7wO6-1">
          <mxGeometry x="730" y="228.75" width="100" height="37.75" as="geometry" />
        </mxCell>
        <mxCell id="dNegRV6yfQrcQl7lEnRx-2" value="" style="shape=image;html=1;verticalAlign=top;verticalLabelPosition=bottom;labelBackgroundColor=#ffffff;imageAspect=0;aspect=fixed;image=https://cdn3.iconfinder.com/data/icons/document-icons-2/30/647714-excel-128.png" vertex="1" parent="O_Iy7LO-BlmU1noZ7wO6-1">
          <mxGeometry x="812" y="210.75" width="18" height="18" as="geometry" />
        </mxCell>
      </root>
    </mxGraphModel>
  </diagram>
  <diagram name="Procurement" id="5T9mwH23swbSJPdpW0DJ">
    <mxGraphModel dx="1182" dy="453" grid="1" gridSize="10" guides="1" tooltips="1" connect="1" arrows="1" fold="1" page="1" pageScale="1" pageWidth="1169" pageHeight="827" math="0" shadow="0">
      <root>
        <mxCell id="aLGtTrMvCx1nG7uPnPYJ-0" />
        <mxCell id="aLGtTrMvCx1nG7uPnPYJ-1" parent="aLGtTrMvCx1nG7uPnPYJ-0" />
        <mxCell id="aLGtTrMvCx1nG7uPnPYJ-2" value="&lt;font style=&quot;font-size: 24px;&quot;&gt;Procurement information flow&lt;/font&gt;" style="text;html=1;align=center;verticalAlign=middle;whiteSpace=wrap;rounded=0;" parent="aLGtTrMvCx1nG7uPnPYJ-1" vertex="1">
          <mxGeometry x="10" y="10" width="440" height="30" as="geometry" />
        </mxCell>
        <mxCell id="aLGtTrMvCx1nG7uPnPYJ-4" value="Production" style="whiteSpace=wrap;html=1;rounded=0;" parent="aLGtTrMvCx1nG7uPnPYJ-1" vertex="1">
          <mxGeometry x="30" y="80" width="150" height="37.75" as="geometry" />
        </mxCell>
        <mxCell id="aLGtTrMvCx1nG7uPnPYJ-5" value="Warehouse" style="whiteSpace=wrap;html=1;rounded=0;" parent="aLGtTrMvCx1nG7uPnPYJ-1" vertex="1">
          <mxGeometry x="30" y="278.38" width="150" height="37.75" as="geometry" />
        </mxCell>
        <mxCell id="aLGtTrMvCx1nG7uPnPYJ-6" value="Purchasing" style="whiteSpace=wrap;html=1;rounded=0;" parent="aLGtTrMvCx1nG7uPnPYJ-1" vertex="1">
          <mxGeometry x="30" y="129" width="150" height="141" as="geometry" />
        </mxCell>
        <mxCell id="aLGtTrMvCx1nG7uPnPYJ-7" value="Supplier" style="whiteSpace=wrap;html=1;rounded=0;" parent="aLGtTrMvCx1nG7uPnPYJ-1" vertex="1">
          <mxGeometry x="30" y="378.38" width="150" height="37.75" as="geometry" />
        </mxCell>
        <mxCell id="aLGtTrMvCx1nG7uPnPYJ-8" value="Finance" style="whiteSpace=wrap;html=1;rounded=0;" parent="aLGtTrMvCx1nG7uPnPYJ-1" vertex="1">
          <mxGeometry x="30" y="328.38" width="150" height="37.75" as="geometry" />
        </mxCell>
        <mxCell id="aLGtTrMvCx1nG7uPnPYJ-12" style="edgeStyle=orthogonalEdgeStyle;rounded=0;orthogonalLoop=1;jettySize=auto;html=1;entryX=0;entryY=0.5;entryDx=0;entryDy=0;" parent="aLGtTrMvCx1nG7uPnPYJ-1" source="aLGtTrMvCx1nG7uPnPYJ-13" target="aLGtTrMvCx1nG7uPnPYJ-16" edge="1">
          <mxGeometry relative="1" as="geometry" />
        </mxCell>
        <mxCell id="aLGtTrMvCx1nG7uPnPYJ-13" value="Production Plan&lt;div&gt;(Sat-Fri)&lt;/div&gt;" style="whiteSpace=wrap;html=1;rounded=0;" parent="aLGtTrMvCx1nG7uPnPYJ-1" vertex="1">
          <mxGeometry x="230" y="80" width="100" height="37.75" as="geometry" />
        </mxCell>
        <mxCell id="aLGtTrMvCx1nG7uPnPYJ-14" value="" style="shape=image;html=1;verticalAlign=top;verticalLabelPosition=bottom;labelBackgroundColor=#ffffff;imageAspect=0;aspect=fixed;image=https://cdn3.iconfinder.com/data/icons/document-icons-2/30/647714-excel-128.png" parent="aLGtTrMvCx1nG7uPnPYJ-1" vertex="1">
          <mxGeometry x="312" y="62" width="18" height="18" as="geometry" />
        </mxCell>
        <mxCell id="iiSn1mHSaAEGco8xfPrK-1" style="edgeStyle=orthogonalEdgeStyle;rounded=0;orthogonalLoop=1;jettySize=auto;html=1;entryX=0;entryY=0.5;entryDx=0;entryDy=0;" edge="1" parent="aLGtTrMvCx1nG7uPnPYJ-1" source="aLGtTrMvCx1nG7uPnPYJ-16" target="iiSn1mHSaAEGco8xfPrK-0">
          <mxGeometry relative="1" as="geometry" />
        </mxCell>
        <mxCell id="aLGtTrMvCx1nG7uPnPYJ-16" value="Raw Material Plan&lt;div&gt;(Sat-Fri)&lt;/div&gt;" style="whiteSpace=wrap;html=1;rounded=0;" parent="aLGtTrMvCx1nG7uPnPYJ-1" vertex="1">
          <mxGeometry x="360" y="80" width="100" height="37.75" as="geometry" />
        </mxCell>
        <mxCell id="PKV5MRzm9uDbY2Ap73T2-2" style="edgeStyle=orthogonalEdgeStyle;rounded=0;orthogonalLoop=1;jettySize=auto;html=1;entryX=0;entryY=0.5;entryDx=0;entryDy=0;" parent="aLGtTrMvCx1nG7uPnPYJ-1" source="wCQcrsWUK4pL3Tdn1tlW-0" target="PKV5MRzm9uDbY2Ap73T2-1" edge="1">
          <mxGeometry relative="1" as="geometry" />
        </mxCell>
        <mxCell id="wCQcrsWUK4pL3Tdn1tlW-0" value="Ingredient spot order" style="whiteSpace=wrap;html=1;rounded=0;" parent="aLGtTrMvCx1nG7uPnPYJ-1" vertex="1">
          <mxGeometry x="360" y="180.13" width="100" height="37.75" as="geometry" />
        </mxCell>
        <mxCell id="wCQcrsWUK4pL3Tdn1tlW-3" value="" style="shape=image;html=1;verticalAlign=top;verticalLabelPosition=bottom;labelBackgroundColor=#ffffff;imageAspect=0;aspect=fixed;image=https://cdn3.iconfinder.com/data/icons/document-icons-2/30/647714-excel-128.png" parent="aLGtTrMvCx1nG7uPnPYJ-1" vertex="1">
          <mxGeometry x="442" y="62" width="18" height="18" as="geometry" />
        </mxCell>
        <mxCell id="JZHvkCWfxTW3Ravd7q1p-1" style="edgeStyle=orthogonalEdgeStyle;rounded=0;orthogonalLoop=1;jettySize=auto;html=1;entryX=0.5;entryY=0;entryDx=0;entryDy=0;" parent="aLGtTrMvCx1nG7uPnPYJ-1" source="PKV5MRzm9uDbY2Ap73T2-0" target="JZHvkCWfxTW3Ravd7q1p-0" edge="1">
          <mxGeometry relative="1" as="geometry" />
        </mxCell>
        <mxCell id="PKV5MRzm9uDbY2Ap73T2-0" value="Raw Material PO" style="whiteSpace=wrap;html=1;rounded=0;" parent="aLGtTrMvCx1nG7uPnPYJ-1" vertex="1">
          <mxGeometry x="490" y="129" width="100" height="37.75" as="geometry" />
        </mxCell>
        <mxCell id="sb5H6eBVDWJQCxRPcNbo-2" style="edgeStyle=orthogonalEdgeStyle;rounded=0;orthogonalLoop=1;jettySize=auto;html=1;entryX=0.5;entryY=0;entryDx=0;entryDy=0;" parent="aLGtTrMvCx1nG7uPnPYJ-1" source="PKV5MRzm9uDbY2Ap73T2-1" target="JZHvkCWfxTW3Ravd7q1p-0" edge="1">
          <mxGeometry relative="1" as="geometry" />
        </mxCell>
        <mxCell id="PKV5MRzm9uDbY2Ap73T2-1" value="Ingredient PO" style="whiteSpace=wrap;html=1;rounded=0;" parent="aLGtTrMvCx1nG7uPnPYJ-1" vertex="1">
          <mxGeometry x="490" y="180.13" width="100" height="37.75" as="geometry" />
        </mxCell>
        <mxCell id="JZHvkCWfxTW3Ravd7q1p-0" value="Supply Material" style="whiteSpace=wrap;html=1;rounded=0;" parent="aLGtTrMvCx1nG7uPnPYJ-1" vertex="1">
          <mxGeometry x="610" y="382.38" width="100" height="37.75" as="geometry" />
        </mxCell>
        <mxCell id="auqtKn5rxvTDy5F-X_rK-1" style="edgeStyle=orthogonalEdgeStyle;rounded=0;orthogonalLoop=1;jettySize=auto;html=1;entryX=0;entryY=0.5;entryDx=0;entryDy=0;" parent="aLGtTrMvCx1nG7uPnPYJ-1" source="auqtKn5rxvTDy5F-X_rK-0" target="wCQcrsWUK4pL3Tdn1tlW-0" edge="1">
          <mxGeometry relative="1" as="geometry" />
        </mxCell>
        <mxCell id="auqtKn5rxvTDy5F-X_rK-0" value="Ingredient stock check" style="whiteSpace=wrap;html=1;rounded=0;" parent="aLGtTrMvCx1nG7uPnPYJ-1" vertex="1">
          <mxGeometry x="230" y="180.13" width="100" height="37.75" as="geometry" />
        </mxCell>
        <mxCell id="TQjftqkgPCvjPBgqd5gz-0" value="" style="shape=image;html=1;verticalAlign=top;verticalLabelPosition=bottom;labelBackgroundColor=#ffffff;imageAspect=0;aspect=fixed;image=https://cdn0.iconfinder.com/data/icons/phosphor-fill-vol-3/256/hand-fill-128.png;fillColor=#FFFFFF;" parent="aLGtTrMvCx1nG7uPnPYJ-1" vertex="1">
          <mxGeometry x="312" y="161.13" width="28" height="28" as="geometry" />
        </mxCell>
        <mxCell id="TQjftqkgPCvjPBgqd5gz-1" value="" style="shape=image;html=1;verticalAlign=top;verticalLabelPosition=bottom;labelBackgroundColor=#ffffff;imageAspect=0;aspect=fixed;image=https://cdn0.iconfinder.com/data/icons/phosphor-fill-vol-3/256/hand-fill-128.png;fillColor=#FFFFFF;" parent="aLGtTrMvCx1nG7uPnPYJ-1" vertex="1">
          <mxGeometry x="442" y="161.13" width="28" height="28" as="geometry" />
        </mxCell>
        <mxCell id="TQjftqkgPCvjPBgqd5gz-5" style="edgeStyle=orthogonalEdgeStyle;rounded=0;orthogonalLoop=1;jettySize=auto;html=1;entryX=0.5;entryY=0;entryDx=0;entryDy=0;" parent="aLGtTrMvCx1nG7uPnPYJ-1" source="TQjftqkgPCvjPBgqd5gz-2" target="JZHvkCWfxTW3Ravd7q1p-0" edge="1">
          <mxGeometry relative="1" as="geometry" />
        </mxCell>
        <mxCell id="TQjftqkgPCvjPBgqd5gz-2" value="Packaging PO" style="whiteSpace=wrap;html=1;rounded=0;" parent="aLGtTrMvCx1nG7uPnPYJ-1" vertex="1">
          <mxGeometry x="490" y="232.38" width="100" height="37.75" as="geometry" />
        </mxCell>
        <mxCell id="TQjftqkgPCvjPBgqd5gz-4" style="edgeStyle=orthogonalEdgeStyle;rounded=0;orthogonalLoop=1;jettySize=auto;html=1;entryX=0;entryY=0.5;entryDx=0;entryDy=0;" parent="aLGtTrMvCx1nG7uPnPYJ-1" source="TQjftqkgPCvjPBgqd5gz-3" target="TQjftqkgPCvjPBgqd5gz-2" edge="1">
          <mxGeometry relative="1" as="geometry">
            <Array as="points">
              <mxPoint x="470" y="297.38" />
              <mxPoint x="470" y="251.38" />
            </Array>
          </mxGeometry>
        </mxCell>
        <mxCell id="TQjftqkgPCvjPBgqd5gz-3" value="Packaging spot order (PR)" style="whiteSpace=wrap;html=1;rounded=0;" parent="aLGtTrMvCx1nG7uPnPYJ-1" vertex="1">
          <mxGeometry x="360" y="278.38" width="100" height="37.75" as="geometry" />
        </mxCell>
        <mxCell id="sb5H6eBVDWJQCxRPcNbo-1" style="edgeStyle=orthogonalEdgeStyle;rounded=0;orthogonalLoop=1;jettySize=auto;html=1;entryX=0;entryY=0.5;entryDx=0;entryDy=0;" parent="aLGtTrMvCx1nG7uPnPYJ-1" source="CXxJuMkpgPi5fjGD_L0f-0" target="sb5H6eBVDWJQCxRPcNbo-0" edge="1">
          <mxGeometry relative="1" as="geometry" />
        </mxCell>
        <mxCell id="CXxJuMkpgPi5fjGD_L0f-0" value="Storefront material spot order" style="whiteSpace=wrap;html=1;rounded=0;" parent="aLGtTrMvCx1nG7uPnPYJ-1" vertex="1">
          <mxGeometry x="360" y="332.38" width="100" height="37.75" as="geometry" />
        </mxCell>
        <mxCell id="sb5H6eBVDWJQCxRPcNbo-3" style="edgeStyle=orthogonalEdgeStyle;rounded=0;orthogonalLoop=1;jettySize=auto;html=1;" parent="aLGtTrMvCx1nG7uPnPYJ-1" source="sb5H6eBVDWJQCxRPcNbo-0" edge="1">
          <mxGeometry relative="1" as="geometry">
            <mxPoint x="660" y="382.38" as="targetPoint" />
          </mxGeometry>
        </mxCell>
        <mxCell id="sb5H6eBVDWJQCxRPcNbo-0" value="Storefront material PO" style="whiteSpace=wrap;html=1;rounded=0;" parent="aLGtTrMvCx1nG7uPnPYJ-1" vertex="1">
          <mxGeometry x="490" y="332.38" width="100" height="37.75" as="geometry" />
        </mxCell>
        <mxCell id="sb5H6eBVDWJQCxRPcNbo-4" value="" style="shape=image;html=1;verticalAlign=top;verticalLabelPosition=bottom;labelBackgroundColor=#ffffff;imageAspect=0;aspect=fixed;image=https://cdn0.iconfinder.com/data/icons/phosphor-fill-vol-3/256/hand-fill-128.png;fillColor=#FFFFFF;" parent="aLGtTrMvCx1nG7uPnPYJ-1" vertex="1">
          <mxGeometry x="442" y="262.38" width="28" height="28" as="geometry" />
        </mxCell>
        <mxCell id="sb5H6eBVDWJQCxRPcNbo-5" value="" style="shape=image;html=1;verticalAlign=top;verticalLabelPosition=bottom;labelBackgroundColor=#ffffff;imageAspect=0;aspect=fixed;image=https://cdn0.iconfinder.com/data/icons/phosphor-fill-vol-3/256/hand-fill-128.png;fillColor=#FFFFFF;" parent="aLGtTrMvCx1nG7uPnPYJ-1" vertex="1">
          <mxGeometry x="442" y="316.38" width="28" height="28" as="geometry" />
        </mxCell>
        <mxCell id="iiSn1mHSaAEGco8xfPrK-0" value="Raw Material order (PR)" style="whiteSpace=wrap;html=1;rounded=0;" vertex="1" parent="aLGtTrMvCx1nG7uPnPYJ-1">
          <mxGeometry x="490" y="80" width="100" height="37.75" as="geometry" />
        </mxCell>
        <mxCell id="iiSn1mHSaAEGco8xfPrK-4" value="" style="endArrow=classic;html=1;rounded=0;exitX=0.5;exitY=1;exitDx=0;exitDy=0;entryX=0.5;entryY=0;entryDx=0;entryDy=0;" edge="1" parent="aLGtTrMvCx1nG7uPnPYJ-1" source="iiSn1mHSaAEGco8xfPrK-0" target="PKV5MRzm9uDbY2Ap73T2-0">
          <mxGeometry width="50" height="50" relative="1" as="geometry">
            <mxPoint x="635" y="112" as="sourcePoint" />
            <mxPoint x="685" y="62" as="targetPoint" />
          </mxGeometry>
        </mxCell>
      </root>
    </mxGraphModel>
  </diagram>
  <diagram name="Material receiving" id="TuAz-KD_Ymm_1TcQqgIj">
    <mxGraphModel dx="1407" dy="539" grid="1" gridSize="10" guides="1" tooltips="1" connect="1" arrows="1" fold="1" page="1" pageScale="1" pageWidth="1169" pageHeight="827" math="0" shadow="0">
      <root>
        <mxCell id="qaj5zATMnUIq8szRWWFh-0" />
        <mxCell id="qaj5zATMnUIq8szRWWFh-1" parent="qaj5zATMnUIq8szRWWFh-0" />
        <mxCell id="qaj5zATMnUIq8szRWWFh-6" value="&lt;font style=&quot;font-size: 24px;&quot;&gt;Material Receiving information flow&lt;/font&gt;" style="text;html=1;align=center;verticalAlign=middle;whiteSpace=wrap;rounded=0;" parent="qaj5zATMnUIq8szRWWFh-1" vertex="1">
          <mxGeometry x="10" y="10" width="440" height="30" as="geometry" />
        </mxCell>
        <mxCell id="qaj5zATMnUIq8szRWWFh-10" value="Production" style="whiteSpace=wrap;html=1;rounded=0;" parent="qaj5zATMnUIq8szRWWFh-1" vertex="1">
          <mxGeometry x="40" y="80" width="150" height="37.75" as="geometry" />
        </mxCell>
        <mxCell id="qaj5zATMnUIq8szRWWFh-11" value="Warehouse" style="whiteSpace=wrap;html=1;rounded=0;" parent="qaj5zATMnUIq8szRWWFh-1" vertex="1">
          <mxGeometry x="40" y="179" width="150" height="37.75" as="geometry" />
        </mxCell>
        <mxCell id="qaj5zATMnUIq8szRWWFh-12" value="Purchasing" style="whiteSpace=wrap;html=1;rounded=0;" parent="qaj5zATMnUIq8szRWWFh-1" vertex="1">
          <mxGeometry x="40" y="130" width="150" height="37.75" as="geometry" />
        </mxCell>
        <mxCell id="qaj5zATMnUIq8szRWWFh-13" value="Supplier" style="whiteSpace=wrap;html=1;rounded=0;" parent="qaj5zATMnUIq8szRWWFh-1" vertex="1">
          <mxGeometry x="40" y="280" width="150" height="37.75" as="geometry" />
        </mxCell>
        <mxCell id="qaj5zATMnUIq8szRWWFh-14" value="Finance" style="whiteSpace=wrap;html=1;rounded=0;" parent="qaj5zATMnUIq8szRWWFh-1" vertex="1">
          <mxGeometry x="40" y="231.25" width="150" height="37.75" as="geometry" />
        </mxCell>
        <mxCell id="uJtgWq79T4M8viE7-oRs-11" style="edgeStyle=orthogonalEdgeStyle;rounded=0;orthogonalLoop=1;jettySize=auto;html=1;entryX=0;entryY=0.5;entryDx=0;entryDy=0;jumpStyle=arc;" edge="1" parent="qaj5zATMnUIq8szRWWFh-1" source="qaj5zATMnUIq8szRWWFh-22" target="uJtgWq79T4M8viE7-oRs-6">
          <mxGeometry relative="1" as="geometry">
            <Array as="points">
              <mxPoint x="520" y="99.25" />
              <mxPoint x="520" y="198.25" />
            </Array>
          </mxGeometry>
        </mxCell>
        <mxCell id="qaj5zATMnUIq8szRWWFh-22" value="Raw Material Plan" style="whiteSpace=wrap;html=1;rounded=0;" parent="qaj5zATMnUIq8szRWWFh-1" vertex="1">
          <mxGeometry x="317" y="80" width="100" height="37.75" as="geometry" />
        </mxCell>
        <mxCell id="uJtgWq79T4M8viE7-oRs-4" style="edgeStyle=orthogonalEdgeStyle;rounded=0;orthogonalLoop=1;jettySize=auto;html=1;entryX=0.5;entryY=0;entryDx=0;entryDy=0;" edge="1" parent="qaj5zATMnUIq8szRWWFh-1" source="qaj5zATMnUIq8szRWWFh-25" target="qaj5zATMnUIq8szRWWFh-30">
          <mxGeometry relative="1" as="geometry" />
        </mxCell>
        <mxCell id="qaj5zATMnUIq8szRWWFh-25" value="Raw Material/ Ingredient/ Packaging PO" style="whiteSpace=wrap;html=1;rounded=0;fontSize=10;" parent="qaj5zATMnUIq8szRWWFh-1" vertex="1">
          <mxGeometry x="317" y="130" width="100" height="37.75" as="geometry" />
        </mxCell>
        <mxCell id="uJtgWq79T4M8viE7-oRs-12" style="edgeStyle=orthogonalEdgeStyle;rounded=0;orthogonalLoop=1;jettySize=auto;html=1;" edge="1" parent="qaj5zATMnUIq8szRWWFh-1" source="qaj5zATMnUIq8szRWWFh-30" target="pxEpm9sJCeyKYrBLoR3k-2">
          <mxGeometry relative="1" as="geometry" />
        </mxCell>
        <mxCell id="qaj5zATMnUIq8szRWWFh-30" value="Supply Material" style="whiteSpace=wrap;html=1;rounded=1;" parent="qaj5zATMnUIq8szRWWFh-1" vertex="1">
          <mxGeometry x="440" y="280" width="100" height="37.75" as="geometry" />
        </mxCell>
        <mxCell id="qaj5zATMnUIq8szRWWFh-31" value="Update inventory" style="whiteSpace=wrap;html=1;rounded=1;shape=label;fixedSize=1;" parent="qaj5zATMnUIq8szRWWFh-1" vertex="1">
          <mxGeometry x="1090" y="180" width="100" height="37.75" as="geometry" />
        </mxCell>
        <mxCell id="qaj5zATMnUIq8szRWWFh-32" style="edgeStyle=orthogonalEdgeStyle;rounded=0;orthogonalLoop=1;jettySize=auto;html=1;" parent="qaj5zATMnUIq8szRWWFh-1" source="qaj5zATMnUIq8szRWWFh-33" target="qaj5zATMnUIq8szRWWFh-34" edge="1">
          <mxGeometry relative="1" as="geometry" />
        </mxCell>
        <mxCell id="qaj5zATMnUIq8szRWWFh-33" value="Payment Process" style="whiteSpace=wrap;html=1;rounded=1;" parent="qaj5zATMnUIq8szRWWFh-1" vertex="1">
          <mxGeometry x="957" y="231.25" width="100" height="37.75" as="geometry" />
        </mxCell>
        <mxCell id="qaj5zATMnUIq8szRWWFh-34" value="Payment Received" style="whiteSpace=wrap;html=1;rounded=1;" parent="qaj5zATMnUIq8szRWWFh-1" vertex="1">
          <mxGeometry x="957" y="280" width="100" height="37.75" as="geometry" />
        </mxCell>
        <mxCell id="qaj5zATMnUIq8szRWWFh-36" style="edgeStyle=orthogonalEdgeStyle;rounded=0;orthogonalLoop=1;jettySize=auto;html=1;entryX=0;entryY=0.5;entryDx=0;entryDy=0;exitX=0.5;exitY=1;exitDx=0;exitDy=0;" parent="qaj5zATMnUIq8szRWWFh-1" source="qaj5zATMnUIq8szRWWFh-37" target="qaj5zATMnUIq8szRWWFh-33" edge="1">
          <mxGeometry relative="1" as="geometry" />
        </mxCell>
        <mxCell id="w1foKDMWAECmkVCDI-GT-4" style="edgeStyle=orthogonalEdgeStyle;rounded=0;orthogonalLoop=1;jettySize=auto;html=1;entryX=0;entryY=0.5;entryDx=0;entryDy=0;" parent="qaj5zATMnUIq8szRWWFh-1" source="qaj5zATMnUIq8szRWWFh-37" target="w1foKDMWAECmkVCDI-GT-3" edge="1">
          <mxGeometry relative="1" as="geometry" />
        </mxCell>
        <mxCell id="qaj5zATMnUIq8szRWWFh-37" value="Raw Material receipt (GR)" style="whiteSpace=wrap;html=1;rounded=0;" parent="qaj5zATMnUIq8szRWWFh-1" vertex="1">
          <mxGeometry x="827" y="180" width="100" height="37.75" as="geometry" />
        </mxCell>
        <mxCell id="qaj5zATMnUIq8szRWWFh-42" style="edgeStyle=orthogonalEdgeStyle;rounded=0;orthogonalLoop=1;jettySize=auto;html=1;exitX=1;exitY=0.5;exitDx=0;exitDy=0;entryX=0;entryY=0.5;entryDx=0;entryDy=0;" parent="qaj5zATMnUIq8szRWWFh-1" source="qaj5zATMnUIq8szRWWFh-43" target="qaj5zATMnUIq8szRWWFh-22" edge="1">
          <mxGeometry relative="1" as="geometry" />
        </mxCell>
        <mxCell id="qaj5zATMnUIq8szRWWFh-43" value="" style="ellipse;whiteSpace=wrap;html=1;" parent="qaj5zATMnUIq8szRWWFh-1" vertex="1">
          <mxGeometry x="255" y="85.12" width="30" height="27.75" as="geometry" />
        </mxCell>
        <mxCell id="qaj5zATMnUIq8szRWWFh-44" value="MRP" style="text;html=1;align=center;verticalAlign=middle;whiteSpace=wrap;rounded=0;" parent="qaj5zATMnUIq8szRWWFh-1" vertex="1">
          <mxGeometry x="240" y="105.88" width="60" height="30" as="geometry" />
        </mxCell>
        <mxCell id="G8PMC5KpcXYe-67c_UXC-1" value="" style="shape=image;html=1;verticalAlign=top;verticalLabelPosition=bottom;labelBackgroundColor=#ffffff;imageAspect=0;aspect=fixed;image=https://cdn1.iconfinder.com/data/icons/office-icons-17/512/ilustracoes_04-14-128.png" parent="qaj5zATMnUIq8szRWWFh-1" vertex="1">
          <mxGeometry x="640" y="251" width="30" height="30" as="geometry" />
        </mxCell>
        <mxCell id="G8PMC5KpcXYe-67c_UXC-3" value="" style="shape=image;html=1;verticalAlign=top;verticalLabelPosition=bottom;labelBackgroundColor=#ffffff;imageAspect=0;aspect=fixed;image=https://cdn1.iconfinder.com/data/icons/office-icons-17/512/ilustracoes_04-14-128.png" parent="qaj5zATMnUIq8szRWWFh-1" vertex="1">
          <mxGeometry x="897" y="147.75" width="30" height="30" as="geometry" />
        </mxCell>
        <mxCell id="PVzXVi60ebG8zCEd1BeM-0" value="" style="shape=image;html=1;verticalAlign=top;verticalLabelPosition=bottom;labelBackgroundColor=#ffffff;imageAspect=0;aspect=fixed;image=https://cdn3.iconfinder.com/data/icons/document-icons-2/30/647714-excel-128.png" parent="qaj5zATMnUIq8szRWWFh-1" vertex="1">
          <mxGeometry x="369" y="62" width="18" height="18" as="geometry" />
        </mxCell>
        <mxCell id="pxEpm9sJCeyKYrBLoR3k-0" style="edgeStyle=orthogonalEdgeStyle;rounded=0;orthogonalLoop=1;jettySize=auto;html=1;entryX=0;entryY=0.5;entryDx=0;entryDy=0;" parent="qaj5zATMnUIq8szRWWFh-1" source="PVzXVi60ebG8zCEd1BeM-1" target="qaj5zATMnUIq8szRWWFh-25" edge="1">
          <mxGeometry relative="1" as="geometry" />
        </mxCell>
        <mxCell id="PVzXVi60ebG8zCEd1BeM-1" value="" style="ellipse;whiteSpace=wrap;html=1;" parent="qaj5zATMnUIq8szRWWFh-1" vertex="1">
          <mxGeometry x="255" y="135" width="30" height="27.75" as="geometry" />
        </mxCell>
        <mxCell id="PVzXVi60ebG8zCEd1BeM-2" value="Procurement" style="text;html=1;align=center;verticalAlign=middle;whiteSpace=wrap;rounded=0;" parent="qaj5zATMnUIq8szRWWFh-1" vertex="1">
          <mxGeometry x="240" y="158.75" width="60" height="30" as="geometry" />
        </mxCell>
        <mxCell id="uJtgWq79T4M8viE7-oRs-13" style="edgeStyle=orthogonalEdgeStyle;rounded=0;orthogonalLoop=1;jettySize=auto;html=1;entryX=0;entryY=0.5;entryDx=0;entryDy=0;" edge="1" parent="qaj5zATMnUIq8szRWWFh-1" source="pxEpm9sJCeyKYrBLoR3k-2" target="uJtgWq79T4M8viE7-oRs-8">
          <mxGeometry relative="1" as="geometry">
            <Array as="points">
              <mxPoint x="680" y="299.25" />
              <mxPoint x="680" y="250.25" />
            </Array>
          </mxGeometry>
        </mxCell>
        <mxCell id="uJtgWq79T4M8viE7-oRs-14" style="edgeStyle=orthogonalEdgeStyle;rounded=0;orthogonalLoop=1;jettySize=auto;html=1;exitX=1;exitY=0.5;exitDx=0;exitDy=0;entryX=0;entryY=0.5;entryDx=0;entryDy=0;" edge="1" parent="qaj5zATMnUIq8szRWWFh-1" source="pxEpm9sJCeyKYrBLoR3k-2" target="uJtgWq79T4M8viE7-oRs-6">
          <mxGeometry relative="1" as="geometry">
            <Array as="points">
              <mxPoint x="680" y="299.25" />
              <mxPoint x="680" y="199.25" />
            </Array>
          </mxGeometry>
        </mxCell>
        <mxCell id="uJtgWq79T4M8viE7-oRs-15" style="edgeStyle=orthogonalEdgeStyle;rounded=0;orthogonalLoop=1;jettySize=auto;html=1;entryX=0;entryY=0.5;entryDx=0;entryDy=0;jumpStyle=arc;" edge="1" parent="qaj5zATMnUIq8szRWWFh-1" source="pxEpm9sJCeyKYrBLoR3k-2" target="uJtgWq79T4M8viE7-oRs-2">
          <mxGeometry relative="1" as="geometry">
            <Array as="points">
              <mxPoint x="680" y="299.25" />
              <mxPoint x="680" y="150.25" />
            </Array>
          </mxGeometry>
        </mxCell>
        <mxCell id="pxEpm9sJCeyKYrBLoR3k-2" value="Invoice" style="whiteSpace=wrap;html=1;rounded=0;" parent="qaj5zATMnUIq8szRWWFh-1" vertex="1">
          <mxGeometry x="565" y="280" width="100" height="37.75" as="geometry" />
        </mxCell>
        <mxCell id="w1foKDMWAECmkVCDI-GT-2" value="" style="shape=image;html=1;verticalAlign=top;verticalLabelPosition=bottom;labelBackgroundColor=#ffffff;imageAspect=0;aspect=fixed;image=https://cdn1.iconfinder.com/data/icons/office-icons-17/512/ilustracoes_04-14-128.png" parent="qaj5zATMnUIq8szRWWFh-1" vertex="1">
          <mxGeometry x="387" y="50" width="30" height="30" as="geometry" />
        </mxCell>
        <mxCell id="kHiq7UtdGBudSQCIZAKQ-0" style="edgeStyle=orthogonalEdgeStyle;rounded=0;orthogonalLoop=1;jettySize=auto;html=1;entryX=0;entryY=0.5;entryDx=0;entryDy=0;" parent="qaj5zATMnUIq8szRWWFh-1" source="w1foKDMWAECmkVCDI-GT-3" target="qaj5zATMnUIq8szRWWFh-31" edge="1">
          <mxGeometry relative="1" as="geometry" />
        </mxCell>
        <mxCell id="w1foKDMWAECmkVCDI-GT-3" value="Update inventory" style="whiteSpace=wrap;html=1;rounded=1;" parent="qaj5zATMnUIq8szRWWFh-1" vertex="1">
          <mxGeometry x="957" y="179.75" width="100" height="37.75" as="geometry" />
        </mxCell>
        <mxCell id="w1foKDMWAECmkVCDI-GT-5" value="" style="shape=image;html=1;verticalAlign=top;verticalLabelPosition=bottom;labelBackgroundColor=#ffffff;imageAspect=0;aspect=fixed;image=https://cdn3.iconfinder.com/data/icons/document-icons-2/30/647714-excel-128.png" parent="qaj5zATMnUIq8szRWWFh-1" vertex="1">
          <mxGeometry x="1039" y="159.75" width="18" height="18" as="geometry" />
        </mxCell>
        <mxCell id="w1foKDMWAECmkVCDI-GT-6" value="" style="shape=image;verticalLabelPosition=bottom;labelBackgroundColor=default;verticalAlign=top;aspect=fixed;imageAspect=0;image=https://i.ytimg.com/vi/Gkpk4LcL1lk/sddefault.jpg;clipPath=inset(66.89% 0.67% 10% 66%);" parent="qaj5zATMnUIq8szRWWFh-1" vertex="1">
          <mxGeometry x="1160" y="162.15000000000003" width="30" height="15.6" as="geometry" />
        </mxCell>
        <mxCell id="d6B0r30rGwzh-Qh6aB0p-1" style="edgeStyle=orthogonalEdgeStyle;rounded=0;orthogonalLoop=1;jettySize=auto;html=1;entryX=0;entryY=0.5;entryDx=0;entryDy=0;" edge="1" parent="qaj5zATMnUIq8szRWWFh-1" source="EoA6p1zeA5Rs0rLgLgqp-0" target="d6B0r30rGwzh-Qh6aB0p-0">
          <mxGeometry relative="1" as="geometry" />
        </mxCell>
        <mxCell id="EoA6p1zeA5Rs0rLgLgqp-0" value="" style="ellipse;whiteSpace=wrap;html=1;" vertex="1" parent="qaj5zATMnUIq8szRWWFh-1">
          <mxGeometry x="255" y="235.25" width="30" height="27.75" as="geometry" />
        </mxCell>
        <mxCell id="EoA6p1zeA5Rs0rLgLgqp-1" value="Procurement" style="text;html=1;align=center;verticalAlign=middle;whiteSpace=wrap;rounded=0;" vertex="1" parent="qaj5zATMnUIq8szRWWFh-1">
          <mxGeometry x="240" y="259" width="60" height="30" as="geometry" />
        </mxCell>
        <mxCell id="uJtgWq79T4M8viE7-oRs-10" style="edgeStyle=orthogonalEdgeStyle;rounded=0;orthogonalLoop=1;jettySize=auto;html=1;entryX=0.5;entryY=0;entryDx=0;entryDy=0;" edge="1" parent="qaj5zATMnUIq8szRWWFh-1" source="d6B0r30rGwzh-Qh6aB0p-0" target="qaj5zATMnUIq8szRWWFh-30">
          <mxGeometry relative="1" as="geometry" />
        </mxCell>
        <mxCell id="d6B0r30rGwzh-Qh6aB0p-0" value="Storefront material PO" style="whiteSpace=wrap;html=1;rounded=0;" vertex="1" parent="qaj5zATMnUIq8szRWWFh-1">
          <mxGeometry x="317" y="231.25" width="100" height="37.75" as="geometry" />
        </mxCell>
        <mxCell id="uJtgWq79T4M8viE7-oRs-2" value="Ingredient receiving" style="whiteSpace=wrap;html=1;rounded=0;fontSize=12;strokeColor=default;align=center;verticalAlign=middle;fontFamily=Helvetica;fontColor=default;fillColor=default;" vertex="1" parent="qaj5zATMnUIq8szRWWFh-1">
          <mxGeometry x="700" y="131" width="100" height="37.75" as="geometry" />
        </mxCell>
        <mxCell id="uJtgWq79T4M8viE7-oRs-16" style="edgeStyle=orthogonalEdgeStyle;rounded=0;orthogonalLoop=1;jettySize=auto;html=1;entryX=0;entryY=0.5;entryDx=0;entryDy=0;" edge="1" parent="qaj5zATMnUIq8szRWWFh-1" source="uJtgWq79T4M8viE7-oRs-6" target="qaj5zATMnUIq8szRWWFh-37">
          <mxGeometry relative="1" as="geometry" />
        </mxCell>
        <mxCell id="uJtgWq79T4M8viE7-oRs-6" value="Raw Material receiving" style="whiteSpace=wrap;html=1;rounded=0;fontSize=12;strokeColor=default;align=center;verticalAlign=middle;fontFamily=Helvetica;fontColor=default;fillColor=default;" vertex="1" parent="qaj5zATMnUIq8szRWWFh-1">
          <mxGeometry x="700" y="180" width="100" height="37.75" as="geometry" />
        </mxCell>
        <mxCell id="uJtgWq79T4M8viE7-oRs-17" style="edgeStyle=orthogonalEdgeStyle;rounded=0;orthogonalLoop=1;jettySize=auto;html=1;" edge="1" parent="qaj5zATMnUIq8szRWWFh-1" source="uJtgWq79T4M8viE7-oRs-8" target="qaj5zATMnUIq8szRWWFh-31">
          <mxGeometry relative="1" as="geometry">
            <Array as="points">
              <mxPoint x="750" y="331.25" />
              <mxPoint x="1140" y="331.25" />
            </Array>
          </mxGeometry>
        </mxCell>
        <mxCell id="xd6v0N7IMzQXnWXEan3K-0" style="edgeStyle=orthogonalEdgeStyle;rounded=0;orthogonalLoop=1;jettySize=auto;html=1;entryX=0;entryY=0.5;entryDx=0;entryDy=0;" edge="1" parent="qaj5zATMnUIq8szRWWFh-1" source="uJtgWq79T4M8viE7-oRs-8" target="qaj5zATMnUIq8szRWWFh-33">
          <mxGeometry relative="1" as="geometry" />
        </mxCell>
        <mxCell id="uJtgWq79T4M8viE7-oRs-8" value="Storefront Material receiving*" style="whiteSpace=wrap;html=1;rounded=0;fontSize=11;strokeColor=default;align=center;verticalAlign=middle;fontFamily=Helvetica;fontColor=default;fillColor=default;" vertex="1" parent="qaj5zATMnUIq8szRWWFh-1">
          <mxGeometry x="700" y="231.25" width="100" height="37.75" as="geometry" />
        </mxCell>
        <mxCell id="xd6v0N7IMzQXnWXEan3K-1" style="edgeStyle=orthogonalEdgeStyle;rounded=0;orthogonalLoop=1;jettySize=auto;html=1;entryX=0;entryY=0.5;entryDx=0;entryDy=0;jumpStyle=arc;" edge="1" parent="qaj5zATMnUIq8szRWWFh-1" source="uJtgWq79T4M8viE7-oRs-2" target="qaj5zATMnUIq8szRWWFh-33">
          <mxGeometry relative="1" as="geometry">
            <Array as="points">
              <mxPoint x="810" y="150.25" />
              <mxPoint x="810" y="250.25" />
            </Array>
          </mxGeometry>
        </mxCell>
        <mxCell id="xd6v0N7IMzQXnWXEan3K-2" value="Storefront Material receiving : Frozen/Repack materials are received, counted, and stored by WH but added into inventory by Finance." style="text;html=1;align=center;verticalAlign=middle;whiteSpace=wrap;rounded=0;" vertex="1" parent="qaj5zATMnUIq8szRWWFh-1">
          <mxGeometry x="200" y="341.25" width="720" height="30" as="geometry" />
        </mxCell>
      </root>
    </mxGraphModel>
  </diagram>
  <diagram name="Material withdrawal" id="69MOi2POqwGSyUjbkyCy">
    <mxGraphModel dx="1407" dy="539" grid="1" gridSize="10" guides="1" tooltips="1" connect="1" arrows="1" fold="1" page="1" pageScale="1" pageWidth="1169" pageHeight="827" math="0" shadow="0">
      <root>
        <mxCell id="oNAKaguSZ59vwd06GjXb-0" />
        <mxCell id="oNAKaguSZ59vwd06GjXb-1" parent="oNAKaguSZ59vwd06GjXb-0" />
        <mxCell id="oNAKaguSZ59vwd06GjXb-2" value="&lt;font style=&quot;font-size: 24px;&quot;&gt;Material withdrawal information flow&lt;/font&gt;" style="text;html=1;align=center;verticalAlign=middle;whiteSpace=wrap;rounded=0;" parent="oNAKaguSZ59vwd06GjXb-1" vertex="1">
          <mxGeometry x="10" y="10" width="440" height="30" as="geometry" />
        </mxCell>
        <mxCell id="oNAKaguSZ59vwd06GjXb-4" value="Production" style="whiteSpace=wrap;html=1;rounded=0;" parent="oNAKaguSZ59vwd06GjXb-1" vertex="1">
          <mxGeometry x="41" y="80" width="150" height="37.75" as="geometry" />
        </mxCell>
        <mxCell id="oNAKaguSZ59vwd06GjXb-5" value="Warehouse" style="whiteSpace=wrap;html=1;rounded=0;" parent="oNAKaguSZ59vwd06GjXb-1" vertex="1">
          <mxGeometry x="41" y="131.25" width="150" height="37.75" as="geometry" />
        </mxCell>
        <mxCell id="oNAKaguSZ59vwd06GjXb-8" value="Finance" style="whiteSpace=wrap;html=1;rounded=0;" parent="oNAKaguSZ59vwd06GjXb-1" vertex="1">
          <mxGeometry x="41" y="231.25" width="150" height="37.75" as="geometry" />
        </mxCell>
        <mxCell id="oRwtb93GPz8_4yF8OyGb-1" style="edgeStyle=orthogonalEdgeStyle;rounded=0;orthogonalLoop=1;jettySize=auto;html=1;entryX=0;entryY=0.5;entryDx=0;entryDy=0;" parent="oNAKaguSZ59vwd06GjXb-1" source="qqs8u-20F-squnNK9gB4-0" target="oRwtb93GPz8_4yF8OyGb-0" edge="1">
          <mxGeometry relative="1" as="geometry" />
        </mxCell>
        <mxCell id="qqs8u-20F-squnNK9gB4-0" value="Production Plan&lt;div&gt;(Sat-Fri)&lt;/div&gt;" style="whiteSpace=wrap;html=1;rounded=0;" parent="oNAKaguSZ59vwd06GjXb-1" vertex="1">
          <mxGeometry x="241" y="80" width="100" height="37.75" as="geometry" />
        </mxCell>
        <mxCell id="qqs8u-20F-squnNK9gB4-1" value="" style="shape=image;html=1;verticalAlign=top;verticalLabelPosition=bottom;labelBackgroundColor=#ffffff;imageAspect=0;aspect=fixed;image=https://cdn3.iconfinder.com/data/icons/document-icons-2/30/647714-excel-128.png" parent="oNAKaguSZ59vwd06GjXb-1" vertex="1">
          <mxGeometry x="323" y="62" width="18" height="18" as="geometry" />
        </mxCell>
        <mxCell id="oRwtb93GPz8_4yF8OyGb-3" style="edgeStyle=orthogonalEdgeStyle;rounded=0;orthogonalLoop=1;jettySize=auto;html=1;entryX=0;entryY=0.5;entryDx=0;entryDy=0;" parent="oNAKaguSZ59vwd06GjXb-1" source="oRwtb93GPz8_4yF8OyGb-0" target="oRwtb93GPz8_4yF8OyGb-2" edge="1">
          <mxGeometry relative="1" as="geometry" />
        </mxCell>
        <mxCell id="oRwtb93GPz8_4yF8OyGb-0" value="Production order&lt;div&gt;(D+1)&lt;/div&gt;" style="whiteSpace=wrap;html=1;rounded=0;" parent="oNAKaguSZ59vwd06GjXb-1" vertex="1">
          <mxGeometry x="371" y="80" width="100" height="37.75" as="geometry" />
        </mxCell>
        <mxCell id="ZgGAXZl4Fk2rtYwrxTHk-1" style="edgeStyle=orthogonalEdgeStyle;rounded=0;orthogonalLoop=1;jettySize=auto;html=1;entryX=0.5;entryY=0;entryDx=0;entryDy=0;" parent="oNAKaguSZ59vwd06GjXb-1" source="oRwtb93GPz8_4yF8OyGb-2" target="ZgGAXZl4Fk2rtYwrxTHk-0" edge="1">
          <mxGeometry relative="1" as="geometry" />
        </mxCell>
        <mxCell id="oRwtb93GPz8_4yF8OyGb-2" value="RM withdrawal order" style="whiteSpace=wrap;html=1;rounded=0;" parent="oNAKaguSZ59vwd06GjXb-1" vertex="1">
          <mxGeometry x="501" y="80" width="100" height="37.75" as="geometry" />
        </mxCell>
        <mxCell id="ZgGAXZl4Fk2rtYwrxTHk-3" style="edgeStyle=orthogonalEdgeStyle;rounded=0;orthogonalLoop=1;jettySize=auto;html=1;entryX=0;entryY=0.5;entryDx=0;entryDy=0;" parent="oNAKaguSZ59vwd06GjXb-1" source="ZgGAXZl4Fk2rtYwrxTHk-0" target="ZgGAXZl4Fk2rtYwrxTHk-2" edge="1">
          <mxGeometry relative="1" as="geometry" />
        </mxCell>
        <mxCell id="ZgGAXZl4Fk2rtYwrxTHk-0" value="Picking order" style="whiteSpace=wrap;html=1;rounded=1;" parent="oNAKaguSZ59vwd06GjXb-1" vertex="1">
          <mxGeometry x="501" y="131.25" width="100" height="37.75" as="geometry" />
        </mxCell>
        <mxCell id="ZgGAXZl4Fk2rtYwrxTHk-5" style="edgeStyle=orthogonalEdgeStyle;rounded=0;orthogonalLoop=1;jettySize=auto;html=1;entryX=0.5;entryY=0;entryDx=0;entryDy=0;" parent="oNAKaguSZ59vwd06GjXb-1" source="ZgGAXZl4Fk2rtYwrxTHk-2" target="ZgGAXZl4Fk2rtYwrxTHk-4" edge="1">
          <mxGeometry relative="1" as="geometry" />
        </mxCell>
        <mxCell id="xQkSg6Bz0MLBeYKPaR8T-7" style="edgeStyle=orthogonalEdgeStyle;rounded=0;orthogonalLoop=1;jettySize=auto;html=1;entryX=0;entryY=0.5;entryDx=0;entryDy=0;" edge="1" parent="oNAKaguSZ59vwd06GjXb-1" source="ZgGAXZl4Fk2rtYwrxTHk-2" target="xQkSg6Bz0MLBeYKPaR8T-6">
          <mxGeometry relative="1" as="geometry">
            <Array as="points">
              <mxPoint x="741" y="150.25" />
              <mxPoint x="741" y="200.25" />
            </Array>
          </mxGeometry>
        </mxCell>
        <mxCell id="ZgGAXZl4Fk2rtYwrxTHk-2" value="Update withdrawal order" style="whiteSpace=wrap;html=1;rounded=1;" parent="oNAKaguSZ59vwd06GjXb-1" vertex="1">
          <mxGeometry x="631" y="131.25" width="100" height="37.75" as="geometry" />
        </mxCell>
        <mxCell id="ZgGAXZl4Fk2rtYwrxTHk-4" value="Copy to finance" style="whiteSpace=wrap;html=1;rounded=0;" parent="oNAKaguSZ59vwd06GjXb-1" vertex="1">
          <mxGeometry x="631" y="231.25" width="100" height="37.75" as="geometry" />
        </mxCell>
        <mxCell id="ZgGAXZl4Fk2rtYwrxTHk-8" value="Confirm RM picked item" style="whiteSpace=wrap;html=1;rounded=1;" parent="oNAKaguSZ59vwd06GjXb-1" vertex="1">
          <mxGeometry x="761" y="80" width="100" height="87.75" as="geometry" />
        </mxCell>
        <mxCell id="CtEihyJR6HFWO9zZ-b5Z-0" value="" style="shape=image;html=1;verticalAlign=top;verticalLabelPosition=bottom;labelBackgroundColor=#ffffff;imageAspect=0;aspect=fixed;image=https://cdn1.iconfinder.com/data/icons/office-icons-17/512/ilustracoes_04-14-128.png" parent="oNAKaguSZ59vwd06GjXb-1" vertex="1">
          <mxGeometry x="441" y="50" width="30" height="30" as="geometry" />
        </mxCell>
        <mxCell id="CtEihyJR6HFWO9zZ-b5Z-1" value="" style="shape=image;html=1;verticalAlign=top;verticalLabelPosition=bottom;labelBackgroundColor=#ffffff;imageAspect=0;aspect=fixed;image=https://cdn1.iconfinder.com/data/icons/office-icons-17/512/ilustracoes_04-14-128.png" parent="oNAKaguSZ59vwd06GjXb-1" vertex="1">
          <mxGeometry x="571" y="50" width="30" height="30" as="geometry" />
        </mxCell>
        <mxCell id="CtEihyJR6HFWO9zZ-b5Z-3" value="" style="shape=image;html=1;verticalAlign=top;verticalLabelPosition=bottom;labelBackgroundColor=#ffffff;imageAspect=0;aspect=fixed;image=https://cdn1.iconfinder.com/data/icons/office-icons-17/512/ilustracoes_04-14-128.png" parent="oNAKaguSZ59vwd06GjXb-1" vertex="1">
          <mxGeometry x="701" y="201.25" width="30" height="30" as="geometry" />
        </mxCell>
        <mxCell id="CtEihyJR6HFWO9zZ-b5Z-6" style="edgeStyle=orthogonalEdgeStyle;rounded=0;orthogonalLoop=1;jettySize=auto;html=1;entryX=0;entryY=0.5;entryDx=0;entryDy=0;" parent="oNAKaguSZ59vwd06GjXb-1" source="CtEihyJR6HFWO9zZ-b5Z-4" target="CtEihyJR6HFWO9zZ-b5Z-5" edge="1">
          <mxGeometry relative="1" as="geometry" />
        </mxCell>
        <mxCell id="CtEihyJR6HFWO9zZ-b5Z-4" value="Update inventory" style="whiteSpace=wrap;html=1;rounded=0;" parent="oNAKaguSZ59vwd06GjXb-1" vertex="1">
          <mxGeometry x="891" y="131.25" width="100" height="37.75" as="geometry" />
        </mxCell>
        <mxCell id="CtEihyJR6HFWO9zZ-b5Z-5" value="Update inventory" style="whiteSpace=wrap;html=1;rounded=0;" parent="oNAKaguSZ59vwd06GjXb-1" vertex="1">
          <mxGeometry x="1021" y="131.25" width="100" height="37.75" as="geometry" />
        </mxCell>
        <mxCell id="CtEihyJR6HFWO9zZ-b5Z-7" style="edgeStyle=orthogonalEdgeStyle;rounded=0;orthogonalLoop=1;jettySize=auto;html=1;entryX=0;entryY=0.5;entryDx=0;entryDy=0;" parent="oNAKaguSZ59vwd06GjXb-1" edge="1">
          <mxGeometry relative="1" as="geometry">
            <mxPoint x="861" y="149.83999999999997" as="sourcePoint" />
            <mxPoint x="891" y="149.83999999999997" as="targetPoint" />
          </mxGeometry>
        </mxCell>
        <mxCell id="MnsqgmYo5PAvaXW5IFn--0" value="" style="shape=image;verticalLabelPosition=bottom;labelBackgroundColor=default;verticalAlign=top;aspect=fixed;imageAspect=0;image=https://i.ytimg.com/vi/Gkpk4LcL1lk/sddefault.jpg;clipPath=inset(66.89% 0.67% 10% 66%);" parent="oNAKaguSZ59vwd06GjXb-1" vertex="1">
          <mxGeometry x="1091" y="114.45000000000005" width="30" height="15.6" as="geometry" />
        </mxCell>
        <mxCell id="zeKbJbH26Jgqg6spkIeI-3" style="edgeStyle=orthogonalEdgeStyle;rounded=0;orthogonalLoop=1;jettySize=auto;html=1;entryX=0;entryY=0.5;entryDx=0;entryDy=0;" edge="1" parent="oNAKaguSZ59vwd06GjXb-1" source="25Yu6LgzO0DWNyHl9qdu-0" target="zeKbJbH26Jgqg6spkIeI-1">
          <mxGeometry relative="1" as="geometry" />
        </mxCell>
        <mxCell id="25Yu6LgzO0DWNyHl9qdu-0" value="FG Production" style="whiteSpace=wrap;html=1;rounded=0;" parent="oNAKaguSZ59vwd06GjXb-1" vertex="1">
          <mxGeometry x="891" y="80" width="100" height="37.75" as="geometry" />
        </mxCell>
        <mxCell id="25Yu6LgzO0DWNyHl9qdu-2" style="edgeStyle=orthogonalEdgeStyle;rounded=0;orthogonalLoop=1;jettySize=auto;html=1;entryX=0;entryY=0.5;entryDx=0;entryDy=0;" parent="oNAKaguSZ59vwd06GjXb-1" edge="1">
          <mxGeometry relative="1" as="geometry">
            <mxPoint x="861" y="98.79999999999998" as="sourcePoint" />
            <mxPoint x="891" y="98.79999999999998" as="targetPoint" />
          </mxGeometry>
        </mxCell>
        <mxCell id="QNPLyraiFkUigvQzF3pZ-0" value="" style="shape=image;html=1;verticalAlign=top;verticalLabelPosition=bottom;labelBackgroundColor=#ffffff;imageAspect=0;aspect=fixed;image=https://cdn3.iconfinder.com/data/icons/document-icons-2/30/647714-excel-128.png" parent="oNAKaguSZ59vwd06GjXb-1" vertex="1">
          <mxGeometry x="973" y="114.44999999999999" width="18" height="18" as="geometry" />
        </mxCell>
        <mxCell id="xQkSg6Bz0MLBeYKPaR8T-0" value="Storefront" style="whiteSpace=wrap;html=1;rounded=0;" vertex="1" parent="oNAKaguSZ59vwd06GjXb-1">
          <mxGeometry x="41" y="181" width="150" height="37.75" as="geometry" />
        </mxCell>
        <mxCell id="xQkSg6Bz0MLBeYKPaR8T-2" style="edgeStyle=orthogonalEdgeStyle;rounded=0;orthogonalLoop=1;jettySize=auto;html=1;entryX=0.5;entryY=1;entryDx=0;entryDy=0;" edge="1" parent="oNAKaguSZ59vwd06GjXb-1" source="xQkSg6Bz0MLBeYKPaR8T-1" target="ZgGAXZl4Fk2rtYwrxTHk-0">
          <mxGeometry relative="1" as="geometry" />
        </mxCell>
        <mxCell id="xQkSg6Bz0MLBeYKPaR8T-1" value="Frozen/Repack withdrawal order" style="whiteSpace=wrap;html=1;rounded=0;" vertex="1" parent="oNAKaguSZ59vwd06GjXb-1">
          <mxGeometry x="241" y="181" width="100" height="37.75" as="geometry" />
        </mxCell>
        <mxCell id="xQkSg6Bz0MLBeYKPaR8T-3" value="" style="shape=image;verticalLabelPosition=bottom;labelBackgroundColor=default;verticalAlign=top;aspect=fixed;imageAspect=0;image=https://i.ytimg.com/vi/Gkpk4LcL1lk/sddefault.jpg;clipPath=inset(66.89% 0.67% 10% 66%);" vertex="1" parent="oNAKaguSZ59vwd06GjXb-1">
          <mxGeometry x="311" y="165.00000000000006" width="30" height="15.6" as="geometry" />
        </mxCell>
        <mxCell id="xQkSg6Bz0MLBeYKPaR8T-5" style="edgeStyle=orthogonalEdgeStyle;rounded=0;orthogonalLoop=1;jettySize=auto;html=1;entryX=-0.008;entryY=0.805;entryDx=0;entryDy=0;entryPerimeter=0;" edge="1" parent="oNAKaguSZ59vwd06GjXb-1" source="ZgGAXZl4Fk2rtYwrxTHk-2" target="ZgGAXZl4Fk2rtYwrxTHk-8">
          <mxGeometry relative="1" as="geometry" />
        </mxCell>
        <mxCell id="xQkSg6Bz0MLBeYKPaR8T-10" style="edgeStyle=orthogonalEdgeStyle;rounded=0;orthogonalLoop=1;jettySize=auto;html=1;entryX=0;entryY=0.5;entryDx=0;entryDy=0;" edge="1" parent="oNAKaguSZ59vwd06GjXb-1" source="xQkSg6Bz0MLBeYKPaR8T-6" target="xQkSg6Bz0MLBeYKPaR8T-9">
          <mxGeometry relative="1" as="geometry" />
        </mxCell>
        <mxCell id="xQkSg6Bz0MLBeYKPaR8T-12" style="edgeStyle=orthogonalEdgeStyle;rounded=0;orthogonalLoop=1;jettySize=auto;html=1;entryX=0.5;entryY=1;entryDx=0;entryDy=0;" edge="1" parent="oNAKaguSZ59vwd06GjXb-1" source="xQkSg6Bz0MLBeYKPaR8T-6" target="CtEihyJR6HFWO9zZ-b5Z-4">
          <mxGeometry relative="1" as="geometry" />
        </mxCell>
        <mxCell id="xQkSg6Bz0MLBeYKPaR8T-6" value="Confirm Storefront picked item" style="whiteSpace=wrap;html=1;rounded=1;fontSize=11;" vertex="1" parent="oNAKaguSZ59vwd06GjXb-1">
          <mxGeometry x="761" y="181" width="100" height="37.5" as="geometry" />
        </mxCell>
        <mxCell id="xQkSg6Bz0MLBeYKPaR8T-9" value="Update POS inventory" style="whiteSpace=wrap;html=1;rounded=1;fontSize=11;" vertex="1" parent="oNAKaguSZ59vwd06GjXb-1">
          <mxGeometry x="1021" y="180.60000000000002" width="100" height="37.5" as="geometry" />
        </mxCell>
        <mxCell id="xQkSg6Bz0MLBeYKPaR8T-13" value="" style="image;points=[];aspect=fixed;html=1;align=center;shadow=0;dashed=0;image=img/lib/allied_telesis/computer_and_terminals/POS_Printer.svg;" vertex="1" parent="oNAKaguSZ59vwd06GjXb-1">
          <mxGeometry x="1101" y="167.75" width="26.98" height="23.5" as="geometry" />
        </mxCell>
        <mxCell id="zeKbJbH26Jgqg6spkIeI-1" value="" style="ellipse;whiteSpace=wrap;html=1;" vertex="1" parent="oNAKaguSZ59vwd06GjXb-1">
          <mxGeometry x="1059" y="85" width="30" height="27.75" as="geometry" />
        </mxCell>
        <mxCell id="zeKbJbH26Jgqg6spkIeI-2" value="Production" style="text;html=1;align=center;verticalAlign=middle;whiteSpace=wrap;rounded=0;" vertex="1" parent="oNAKaguSZ59vwd06GjXb-1">
          <mxGeometry x="1044" y="56" width="60" height="30" as="geometry" />
        </mxCell>
      </root>
    </mxGraphModel>
  </diagram>
  <diagram name="Production" id="2_iKEKZ6By1m9mI6zboE">
    <mxGraphModel dx="2954" dy="1132" grid="1" gridSize="10" guides="1" tooltips="1" connect="1" arrows="1" fold="1" page="1" pageScale="1" pageWidth="1169" pageHeight="827" math="0" shadow="0">
      <root>
        <mxCell id="44Cxax0M29LHMcy_NqOd-0" />
        <mxCell id="44Cxax0M29LHMcy_NqOd-1" parent="44Cxax0M29LHMcy_NqOd-0" />
        <mxCell id="44Cxax0M29LHMcy_NqOd-2" value="&lt;font style=&quot;font-size: 24px;&quot;&gt;Material withdrawal information flow&lt;/font&gt;" style="text;html=1;align=center;verticalAlign=middle;whiteSpace=wrap;rounded=0;" vertex="1" parent="44Cxax0M29LHMcy_NqOd-1">
          <mxGeometry x="10" y="10" width="440" height="30" as="geometry" />
        </mxCell>
        <mxCell id="44Cxax0M29LHMcy_NqOd-3" value="Production" style="whiteSpace=wrap;html=1;rounded=0;" vertex="1" parent="44Cxax0M29LHMcy_NqOd-1">
          <mxGeometry x="41" y="80" width="150" height="37.75" as="geometry" />
        </mxCell>
        <mxCell id="44Cxax0M29LHMcy_NqOd-4" value="Warehouse" style="whiteSpace=wrap;html=1;rounded=0;" vertex="1" parent="44Cxax0M29LHMcy_NqOd-1">
          <mxGeometry x="41" y="131.25" width="150" height="37.75" as="geometry" />
        </mxCell>
        <mxCell id="44Cxax0M29LHMcy_NqOd-5" value="Finance" style="whiteSpace=wrap;html=1;rounded=0;" vertex="1" parent="44Cxax0M29LHMcy_NqOd-1">
          <mxGeometry x="41" y="231.25" width="150" height="37.75" as="geometry" />
        </mxCell>
        <mxCell id="44Cxax0M29LHMcy_NqOd-6" style="edgeStyle=orthogonalEdgeStyle;rounded=0;orthogonalLoop=1;jettySize=auto;html=1;entryX=0;entryY=0.5;entryDx=0;entryDy=0;" edge="1" parent="44Cxax0M29LHMcy_NqOd-1" source="44Cxax0M29LHMcy_NqOd-7" target="44Cxax0M29LHMcy_NqOd-10">
          <mxGeometry relative="1" as="geometry" />
        </mxCell>
        <mxCell id="44Cxax0M29LHMcy_NqOd-7" value="Production Plan&lt;div&gt;(Sat-Fri)&lt;/div&gt;" style="whiteSpace=wrap;html=1;rounded=0;" vertex="1" parent="44Cxax0M29LHMcy_NqOd-1">
          <mxGeometry x="241" y="80" width="100" height="37.75" as="geometry" />
        </mxCell>
        <mxCell id="44Cxax0M29LHMcy_NqOd-8" value="" style="shape=image;html=1;verticalAlign=top;verticalLabelPosition=bottom;labelBackgroundColor=#ffffff;imageAspect=0;aspect=fixed;image=https://cdn3.iconfinder.com/data/icons/document-icons-2/30/647714-excel-128.png" vertex="1" parent="44Cxax0M29LHMcy_NqOd-1">
          <mxGeometry x="323" y="62" width="18" height="18" as="geometry" />
        </mxCell>
        <mxCell id="44Cxax0M29LHMcy_NqOd-9" style="edgeStyle=orthogonalEdgeStyle;rounded=0;orthogonalLoop=1;jettySize=auto;html=1;entryX=0;entryY=0.5;entryDx=0;entryDy=0;" edge="1" parent="44Cxax0M29LHMcy_NqOd-1" source="44Cxax0M29LHMcy_NqOd-10" target="44Cxax0M29LHMcy_NqOd-12">
          <mxGeometry relative="1" as="geometry" />
        </mxCell>
        <mxCell id="44Cxax0M29LHMcy_NqOd-10" value="Production order&lt;div&gt;(D+1)&lt;/div&gt;" style="whiteSpace=wrap;html=1;rounded=0;" vertex="1" parent="44Cxax0M29LHMcy_NqOd-1">
          <mxGeometry x="371" y="80" width="100" height="37.75" as="geometry" />
        </mxCell>
        <mxCell id="44Cxax0M29LHMcy_NqOd-11" style="edgeStyle=orthogonalEdgeStyle;rounded=0;orthogonalLoop=1;jettySize=auto;html=1;entryX=0.5;entryY=0;entryDx=0;entryDy=0;" edge="1" parent="44Cxax0M29LHMcy_NqOd-1" source="44Cxax0M29LHMcy_NqOd-12" target="44Cxax0M29LHMcy_NqOd-14">
          <mxGeometry relative="1" as="geometry" />
        </mxCell>
        <mxCell id="44Cxax0M29LHMcy_NqOd-12" value="RM withdrawal order" style="whiteSpace=wrap;html=1;rounded=0;" vertex="1" parent="44Cxax0M29LHMcy_NqOd-1">
          <mxGeometry x="501" y="80" width="100" height="37.75" as="geometry" />
        </mxCell>
        <mxCell id="44Cxax0M29LHMcy_NqOd-13" style="edgeStyle=orthogonalEdgeStyle;rounded=0;orthogonalLoop=1;jettySize=auto;html=1;entryX=0;entryY=0.5;entryDx=0;entryDy=0;" edge="1" parent="44Cxax0M29LHMcy_NqOd-1" source="44Cxax0M29LHMcy_NqOd-14" target="44Cxax0M29LHMcy_NqOd-17">
          <mxGeometry relative="1" as="geometry" />
        </mxCell>
        <mxCell id="44Cxax0M29LHMcy_NqOd-14" value="Picking order" style="whiteSpace=wrap;html=1;rounded=1;" vertex="1" parent="44Cxax0M29LHMcy_NqOd-1">
          <mxGeometry x="501" y="131.25" width="100" height="37.75" as="geometry" />
        </mxCell>
        <mxCell id="44Cxax0M29LHMcy_NqOd-15" style="edgeStyle=orthogonalEdgeStyle;rounded=0;orthogonalLoop=1;jettySize=auto;html=1;entryX=0.5;entryY=0;entryDx=0;entryDy=0;" edge="1" parent="44Cxax0M29LHMcy_NqOd-1" source="44Cxax0M29LHMcy_NqOd-17" target="44Cxax0M29LHMcy_NqOd-18">
          <mxGeometry relative="1" as="geometry" />
        </mxCell>
        <mxCell id="44Cxax0M29LHMcy_NqOd-16" style="edgeStyle=orthogonalEdgeStyle;rounded=0;orthogonalLoop=1;jettySize=auto;html=1;entryX=0;entryY=0.5;entryDx=0;entryDy=0;" edge="1" parent="44Cxax0M29LHMcy_NqOd-1" source="44Cxax0M29LHMcy_NqOd-17" target="44Cxax0M29LHMcy_NqOd-39">
          <mxGeometry relative="1" as="geometry">
            <Array as="points">
              <mxPoint x="741" y="150.25" />
              <mxPoint x="741" y="200.25" />
            </Array>
          </mxGeometry>
        </mxCell>
        <mxCell id="44Cxax0M29LHMcy_NqOd-17" value="Update withdrawal order" style="whiteSpace=wrap;html=1;rounded=1;" vertex="1" parent="44Cxax0M29LHMcy_NqOd-1">
          <mxGeometry x="631" y="131.25" width="100" height="37.75" as="geometry" />
        </mxCell>
        <mxCell id="44Cxax0M29LHMcy_NqOd-18" value="Copy to finance" style="whiteSpace=wrap;html=1;rounded=0;" vertex="1" parent="44Cxax0M29LHMcy_NqOd-1">
          <mxGeometry x="631" y="231.25" width="100" height="37.75" as="geometry" />
        </mxCell>
        <mxCell id="44Cxax0M29LHMcy_NqOd-19" value="Confirm RM picked item" style="whiteSpace=wrap;html=1;rounded=1;" vertex="1" parent="44Cxax0M29LHMcy_NqOd-1">
          <mxGeometry x="761" y="80" width="100" height="87.75" as="geometry" />
        </mxCell>
        <mxCell id="44Cxax0M29LHMcy_NqOd-20" value="" style="shape=image;html=1;verticalAlign=top;verticalLabelPosition=bottom;labelBackgroundColor=#ffffff;imageAspect=0;aspect=fixed;image=https://cdn1.iconfinder.com/data/icons/office-icons-17/512/ilustracoes_04-14-128.png" vertex="1" parent="44Cxax0M29LHMcy_NqOd-1">
          <mxGeometry x="441" y="50" width="30" height="30" as="geometry" />
        </mxCell>
        <mxCell id="44Cxax0M29LHMcy_NqOd-21" value="" style="shape=image;html=1;verticalAlign=top;verticalLabelPosition=bottom;labelBackgroundColor=#ffffff;imageAspect=0;aspect=fixed;image=https://cdn1.iconfinder.com/data/icons/office-icons-17/512/ilustracoes_04-14-128.png" vertex="1" parent="44Cxax0M29LHMcy_NqOd-1">
          <mxGeometry x="571" y="50" width="30" height="30" as="geometry" />
        </mxCell>
        <mxCell id="44Cxax0M29LHMcy_NqOd-22" value="" style="shape=image;html=1;verticalAlign=top;verticalLabelPosition=bottom;labelBackgroundColor=#ffffff;imageAspect=0;aspect=fixed;image=https://cdn1.iconfinder.com/data/icons/office-icons-17/512/ilustracoes_04-14-128.png" vertex="1" parent="44Cxax0M29LHMcy_NqOd-1">
          <mxGeometry x="701" y="201.25" width="30" height="30" as="geometry" />
        </mxCell>
        <mxCell id="44Cxax0M29LHMcy_NqOd-23" style="edgeStyle=orthogonalEdgeStyle;rounded=0;orthogonalLoop=1;jettySize=auto;html=1;entryX=0;entryY=0.5;entryDx=0;entryDy=0;" edge="1" parent="44Cxax0M29LHMcy_NqOd-1" source="44Cxax0M29LHMcy_NqOd-24" target="44Cxax0M29LHMcy_NqOd-25">
          <mxGeometry relative="1" as="geometry" />
        </mxCell>
        <mxCell id="44Cxax0M29LHMcy_NqOd-24" value="Update inventory" style="whiteSpace=wrap;html=1;rounded=0;" vertex="1" parent="44Cxax0M29LHMcy_NqOd-1">
          <mxGeometry x="891" y="131.25" width="100" height="37.75" as="geometry" />
        </mxCell>
        <mxCell id="44Cxax0M29LHMcy_NqOd-25" value="Update inventory" style="whiteSpace=wrap;html=1;rounded=0;" vertex="1" parent="44Cxax0M29LHMcy_NqOd-1">
          <mxGeometry x="1021" y="131.25" width="100" height="37.75" as="geometry" />
        </mxCell>
        <mxCell id="44Cxax0M29LHMcy_NqOd-26" style="edgeStyle=orthogonalEdgeStyle;rounded=0;orthogonalLoop=1;jettySize=auto;html=1;entryX=0;entryY=0.5;entryDx=0;entryDy=0;" edge="1" parent="44Cxax0M29LHMcy_NqOd-1">
          <mxGeometry relative="1" as="geometry">
            <mxPoint x="861" y="149.83999999999997" as="sourcePoint" />
            <mxPoint x="891" y="149.83999999999997" as="targetPoint" />
          </mxGeometry>
        </mxCell>
        <mxCell id="44Cxax0M29LHMcy_NqOd-27" value="" style="shape=image;verticalLabelPosition=bottom;labelBackgroundColor=default;verticalAlign=top;aspect=fixed;imageAspect=0;image=https://i.ytimg.com/vi/Gkpk4LcL1lk/sddefault.jpg;clipPath=inset(66.89% 0.67% 10% 66%);" vertex="1" parent="44Cxax0M29LHMcy_NqOd-1">
          <mxGeometry x="1091" y="114.45000000000005" width="30" height="15.6" as="geometry" />
        </mxCell>
        <mxCell id="44Cxax0M29LHMcy_NqOd-28" style="edgeStyle=orthogonalEdgeStyle;rounded=0;orthogonalLoop=1;jettySize=auto;html=1;entryX=0;entryY=0.5;entryDx=0;entryDy=0;" edge="1" parent="44Cxax0M29LHMcy_NqOd-1" source="44Cxax0M29LHMcy_NqOd-29" target="44Cxax0M29LHMcy_NqOd-42">
          <mxGeometry relative="1" as="geometry" />
        </mxCell>
        <mxCell id="44Cxax0M29LHMcy_NqOd-29" value="FG Production" style="whiteSpace=wrap;html=1;rounded=0;" vertex="1" parent="44Cxax0M29LHMcy_NqOd-1">
          <mxGeometry x="891" y="80" width="100" height="37.75" as="geometry" />
        </mxCell>
        <mxCell id="44Cxax0M29LHMcy_NqOd-30" style="edgeStyle=orthogonalEdgeStyle;rounded=0;orthogonalLoop=1;jettySize=auto;html=1;entryX=0;entryY=0.5;entryDx=0;entryDy=0;" edge="1" parent="44Cxax0M29LHMcy_NqOd-1">
          <mxGeometry relative="1" as="geometry">
            <mxPoint x="861" y="98.79999999999998" as="sourcePoint" />
            <mxPoint x="891" y="98.79999999999998" as="targetPoint" />
          </mxGeometry>
        </mxCell>
        <mxCell id="44Cxax0M29LHMcy_NqOd-31" value="" style="shape=image;html=1;verticalAlign=top;verticalLabelPosition=bottom;labelBackgroundColor=#ffffff;imageAspect=0;aspect=fixed;image=https://cdn3.iconfinder.com/data/icons/document-icons-2/30/647714-excel-128.png" vertex="1" parent="44Cxax0M29LHMcy_NqOd-1">
          <mxGeometry x="973" y="114.44999999999999" width="18" height="18" as="geometry" />
        </mxCell>
        <mxCell id="44Cxax0M29LHMcy_NqOd-32" value="Storefront" style="whiteSpace=wrap;html=1;rounded=0;" vertex="1" parent="44Cxax0M29LHMcy_NqOd-1">
          <mxGeometry x="41" y="181" width="150" height="37.75" as="geometry" />
        </mxCell>
        <mxCell id="44Cxax0M29LHMcy_NqOd-33" style="edgeStyle=orthogonalEdgeStyle;rounded=0;orthogonalLoop=1;jettySize=auto;html=1;entryX=0.5;entryY=1;entryDx=0;entryDy=0;" edge="1" parent="44Cxax0M29LHMcy_NqOd-1" source="44Cxax0M29LHMcy_NqOd-34" target="44Cxax0M29LHMcy_NqOd-14">
          <mxGeometry relative="1" as="geometry" />
        </mxCell>
        <mxCell id="44Cxax0M29LHMcy_NqOd-34" value="Frozen/Repack withdrawal order" style="whiteSpace=wrap;html=1;rounded=0;" vertex="1" parent="44Cxax0M29LHMcy_NqOd-1">
          <mxGeometry x="241" y="181" width="100" height="37.75" as="geometry" />
        </mxCell>
        <mxCell id="44Cxax0M29LHMcy_NqOd-35" value="" style="shape=image;verticalLabelPosition=bottom;labelBackgroundColor=default;verticalAlign=top;aspect=fixed;imageAspect=0;image=https://i.ytimg.com/vi/Gkpk4LcL1lk/sddefault.jpg;clipPath=inset(66.89% 0.67% 10% 66%);" vertex="1" parent="44Cxax0M29LHMcy_NqOd-1">
          <mxGeometry x="311" y="165.00000000000006" width="30" height="15.6" as="geometry" />
        </mxCell>
        <mxCell id="44Cxax0M29LHMcy_NqOd-36" style="edgeStyle=orthogonalEdgeStyle;rounded=0;orthogonalLoop=1;jettySize=auto;html=1;entryX=-0.008;entryY=0.805;entryDx=0;entryDy=0;entryPerimeter=0;" edge="1" parent="44Cxax0M29LHMcy_NqOd-1" source="44Cxax0M29LHMcy_NqOd-17" target="44Cxax0M29LHMcy_NqOd-19">
          <mxGeometry relative="1" as="geometry" />
        </mxCell>
        <mxCell id="44Cxax0M29LHMcy_NqOd-37" style="edgeStyle=orthogonalEdgeStyle;rounded=0;orthogonalLoop=1;jettySize=auto;html=1;entryX=0;entryY=0.5;entryDx=0;entryDy=0;" edge="1" parent="44Cxax0M29LHMcy_NqOd-1" source="44Cxax0M29LHMcy_NqOd-39" target="44Cxax0M29LHMcy_NqOd-40">
          <mxGeometry relative="1" as="geometry" />
        </mxCell>
        <mxCell id="44Cxax0M29LHMcy_NqOd-38" style="edgeStyle=orthogonalEdgeStyle;rounded=0;orthogonalLoop=1;jettySize=auto;html=1;entryX=0.5;entryY=1;entryDx=0;entryDy=0;" edge="1" parent="44Cxax0M29LHMcy_NqOd-1" source="44Cxax0M29LHMcy_NqOd-39" target="44Cxax0M29LHMcy_NqOd-24">
          <mxGeometry relative="1" as="geometry" />
        </mxCell>
        <mxCell id="44Cxax0M29LHMcy_NqOd-39" value="Confirm Storefront picked item" style="whiteSpace=wrap;html=1;rounded=1;fontSize=11;" vertex="1" parent="44Cxax0M29LHMcy_NqOd-1">
          <mxGeometry x="761" y="181" width="100" height="37.5" as="geometry" />
        </mxCell>
        <mxCell id="44Cxax0M29LHMcy_NqOd-40" value="Update POS inventory" style="whiteSpace=wrap;html=1;rounded=1;fontSize=11;" vertex="1" parent="44Cxax0M29LHMcy_NqOd-1">
          <mxGeometry x="1021" y="180.60000000000002" width="100" height="37.5" as="geometry" />
        </mxCell>
        <mxCell id="44Cxax0M29LHMcy_NqOd-41" value="" style="image;points=[];aspect=fixed;html=1;align=center;shadow=0;dashed=0;image=img/lib/allied_telesis/computer_and_terminals/POS_Printer.svg;" vertex="1" parent="44Cxax0M29LHMcy_NqOd-1">
          <mxGeometry x="1101" y="167.75" width="26.98" height="23.5" as="geometry" />
        </mxCell>
        <mxCell id="44Cxax0M29LHMcy_NqOd-42" value="" style="ellipse;whiteSpace=wrap;html=1;" vertex="1" parent="44Cxax0M29LHMcy_NqOd-1">
          <mxGeometry x="1059" y="85" width="30" height="27.75" as="geometry" />
        </mxCell>
        <mxCell id="44Cxax0M29LHMcy_NqOd-43" value="Production" style="text;html=1;align=center;verticalAlign=middle;whiteSpace=wrap;rounded=0;" vertex="1" parent="44Cxax0M29LHMcy_NqOd-1">
          <mxGeometry x="1044" y="56" width="60" height="30" as="geometry" />
        </mxCell>
      </root>
    </mxGraphModel>
  </diagram>
  <diagram name="FG receiving" id="6Qos29WYg7-rVcg-bHuJ">
    <mxGraphModel dx="2954" dy="1132" grid="1" gridSize="10" guides="1" tooltips="1" connect="1" arrows="1" fold="1" page="1" pageScale="1" pageWidth="1169" pageHeight="827" math="0" shadow="0">
      <root>
        <mxCell id="fA2I_pHYrqz7Ve5M-0mP-0" />
        <mxCell id="fA2I_pHYrqz7Ve5M-0mP-1" parent="fA2I_pHYrqz7Ve5M-0mP-0" />
        <mxCell id="fA2I_pHYrqz7Ve5M-0mP-2" value="&lt;font style=&quot;font-size: 24px;&quot;&gt;FG Picking and Loading information flow&lt;/font&gt;" style="text;html=1;align=center;verticalAlign=middle;whiteSpace=wrap;rounded=0;" vertex="1" parent="fA2I_pHYrqz7Ve5M-0mP-1">
          <mxGeometry x="10" y="10" width="440" height="30" as="geometry" />
        </mxCell>
        <mxCell id="fA2I_pHYrqz7Ve5M-0mP-3" value="Sales&lt;div&gt;B2C&lt;/div&gt;" style="whiteSpace=wrap;html=1;rounded=0;" vertex="1" parent="fA2I_pHYrqz7Ve5M-0mP-1">
          <mxGeometry x="40" y="80" width="70" height="137.75" as="geometry" />
        </mxCell>
        <mxCell id="fA2I_pHYrqz7Ve5M-0mP-4" value="Warehouse" style="whiteSpace=wrap;html=1;rounded=0;" vertex="1" parent="fA2I_pHYrqz7Ve5M-0mP-1">
          <mxGeometry x="40" y="327.75" width="150" height="37.75" as="geometry" />
        </mxCell>
        <mxCell id="fA2I_pHYrqz7Ve5M-0mP-5" value="Logistics" style="whiteSpace=wrap;html=1;rounded=0;" vertex="1" parent="fA2I_pHYrqz7Ve5M-0mP-1">
          <mxGeometry x="40" y="378.09000000000003" width="150" height="37.75" as="geometry" />
        </mxCell>
        <mxCell id="fA2I_pHYrqz7Ve5M-0mP-6" value="Sales&lt;div&gt;B2B&lt;/div&gt;" style="whiteSpace=wrap;html=1;rounded=0;" vertex="1" parent="fA2I_pHYrqz7Ve5M-0mP-1">
          <mxGeometry x="120" y="80" width="70" height="137.75" as="geometry" />
        </mxCell>
        <mxCell id="fA2I_pHYrqz7Ve5M-0mP-7" style="edgeStyle=orthogonalEdgeStyle;rounded=0;orthogonalLoop=1;jettySize=auto;html=1;entryX=0;entryY=0.5;entryDx=0;entryDy=0;" edge="1" parent="fA2I_pHYrqz7Ve5M-0mP-1" source="fA2I_pHYrqz7Ve5M-0mP-8" target="fA2I_pHYrqz7Ve5M-0mP-50">
          <mxGeometry relative="1" as="geometry" />
        </mxCell>
        <mxCell id="fA2I_pHYrqz7Ve5M-0mP-8" value="&lt;font style=&quot;font-size: 11px;&quot;&gt;Export Sales Order with DO code&lt;/font&gt;" style="whiteSpace=wrap;html=1;rounded=0;shape=label;fixedSize=1;" vertex="1" parent="fA2I_pHYrqz7Ve5M-0mP-1">
          <mxGeometry x="240" y="327.75" width="100" height="37.75" as="geometry" />
        </mxCell>
        <mxCell id="fA2I_pHYrqz7Ve5M-0mP-9" value="" style="shape=image;verticalLabelPosition=bottom;labelBackgroundColor=default;verticalAlign=top;aspect=fixed;imageAspect=0;image=https://i.ytimg.com/vi/Gkpk4LcL1lk/sddefault.jpg;clipPath=inset(66.89% 0.67% 10% 66%);" vertex="1" parent="fA2I_pHYrqz7Ve5M-0mP-1">
          <mxGeometry x="310" y="312.15000000000003" width="30" height="15.6" as="geometry" />
        </mxCell>
        <mxCell id="fA2I_pHYrqz7Ve5M-0mP-10" style="edgeStyle=orthogonalEdgeStyle;rounded=0;orthogonalLoop=1;jettySize=auto;html=1;entryX=0;entryY=0.5;entryDx=0;entryDy=0;" edge="1" parent="fA2I_pHYrqz7Ve5M-0mP-1" source="fA2I_pHYrqz7Ve5M-0mP-11" target="fA2I_pHYrqz7Ve5M-0mP-19">
          <mxGeometry relative="1" as="geometry" />
        </mxCell>
        <mxCell id="fA2I_pHYrqz7Ve5M-0mP-11" value="Check available inventory" style="whiteSpace=wrap;html=1;rounded=1;shape=label;fixedSize=1;" vertex="1" parent="fA2I_pHYrqz7Ve5M-0mP-1">
          <mxGeometry x="481" y="327.75" width="100" height="37.75" as="geometry" />
        </mxCell>
        <mxCell id="fA2I_pHYrqz7Ve5M-0mP-12" style="edgeStyle=orthogonalEdgeStyle;rounded=0;orthogonalLoop=1;jettySize=auto;html=1;" edge="1" parent="fA2I_pHYrqz7Ve5M-0mP-1" source="fA2I_pHYrqz7Ve5M-0mP-13" target="fA2I_pHYrqz7Ve5M-0mP-8">
          <mxGeometry relative="1" as="geometry" />
        </mxCell>
        <mxCell id="fA2I_pHYrqz7Ve5M-0mP-13" value="Input Sales Order" style="whiteSpace=wrap;html=1;rounded=1;shape=label;fixedSize=1;" vertex="1" parent="fA2I_pHYrqz7Ve5M-0mP-1">
          <mxGeometry x="240" y="78.88" width="100" height="140" as="geometry" />
        </mxCell>
        <mxCell id="fA2I_pHYrqz7Ve5M-0mP-14" value="" style="shape=image;verticalLabelPosition=bottom;labelBackgroundColor=default;verticalAlign=top;aspect=fixed;imageAspect=0;image=https://i.ytimg.com/vi/Gkpk4LcL1lk/sddefault.jpg;clipPath=inset(66.89% 0.67% 10% 66%);" vertex="1" parent="fA2I_pHYrqz7Ve5M-0mP-1">
          <mxGeometry x="310" y="63.28000000000004" width="30" height="15.6" as="geometry" />
        </mxCell>
        <mxCell id="fA2I_pHYrqz7Ve5M-0mP-15" style="edgeStyle=orthogonalEdgeStyle;rounded=0;orthogonalLoop=1;jettySize=auto;html=1;entryX=0;entryY=0.5;entryDx=0;entryDy=0;" edge="1" parent="fA2I_pHYrqz7Ve5M-0mP-1" source="fA2I_pHYrqz7Ve5M-0mP-16" target="fA2I_pHYrqz7Ve5M-0mP-52">
          <mxGeometry relative="1" as="geometry" />
        </mxCell>
        <mxCell id="fA2I_pHYrqz7Ve5M-0mP-16" value="Export Delivery Order" style="whiteSpace=wrap;html=1;rounded=1;shape=label;fixedSize=1;" vertex="1" parent="fA2I_pHYrqz7Ve5M-0mP-1">
          <mxGeometry x="961" y="80" width="100" height="140" as="geometry" />
        </mxCell>
        <mxCell id="fA2I_pHYrqz7Ve5M-0mP-17" value="Recheck picked item" style="whiteSpace=wrap;html=1;rounded=1;shape=label;fixedSize=1;" vertex="1" parent="fA2I_pHYrqz7Ve5M-0mP-1">
          <mxGeometry x="961" y="327.75" width="100" height="37.75" as="geometry" />
        </mxCell>
        <mxCell id="fA2I_pHYrqz7Ve5M-0mP-18" style="edgeStyle=orthogonalEdgeStyle;rounded=0;orthogonalLoop=1;jettySize=auto;html=1;entryX=0;entryY=0.5;entryDx=0;entryDy=0;" edge="1" parent="fA2I_pHYrqz7Ve5M-0mP-1" source="fA2I_pHYrqz7Ve5M-0mP-19" target="fA2I_pHYrqz7Ve5M-0mP-25">
          <mxGeometry relative="1" as="geometry" />
        </mxCell>
        <mxCell id="fA2I_pHYrqz7Ve5M-0mP-19" value="Update available inventory" style="whiteSpace=wrap;html=1;rounded=1;shape=label;fixedSize=1;" vertex="1" parent="fA2I_pHYrqz7Ve5M-0mP-1">
          <mxGeometry x="601" y="327.75" width="100" height="37.75" as="geometry" />
        </mxCell>
        <mxCell id="fA2I_pHYrqz7Ve5M-0mP-20" value="" style="shape=image;html=1;verticalAlign=top;verticalLabelPosition=bottom;labelBackgroundColor=#ffffff;imageAspect=0;aspect=fixed;image=https://cdn1.iconfinder.com/data/icons/office-icons-17/512/ilustracoes_04-14-128.png" vertex="1" parent="fA2I_pHYrqz7Ve5M-0mP-1">
          <mxGeometry x="430" y="301.56" width="30" height="30" as="geometry" />
        </mxCell>
        <mxCell id="fA2I_pHYrqz7Ve5M-0mP-21" value="" style="shape=image;html=1;verticalAlign=top;verticalLabelPosition=bottom;labelBackgroundColor=#ffffff;imageAspect=0;aspect=fixed;image=https://cdn1.iconfinder.com/data/icons/office-icons-17/512/ilustracoes_04-14-128.png" vertex="1" parent="fA2I_pHYrqz7Ve5M-0mP-1">
          <mxGeometry x="671" y="296.55" width="30" height="30" as="geometry" />
        </mxCell>
        <mxCell id="fA2I_pHYrqz7Ve5M-0mP-22" value="" style="shape=image;html=1;verticalAlign=top;verticalLabelPosition=bottom;labelBackgroundColor=#ffffff;imageAspect=0;aspect=fixed;image=https://cdn0.iconfinder.com/data/icons/phosphor-fill-vol-3/256/hand-fill-128.png" vertex="1" parent="fA2I_pHYrqz7Ve5M-0mP-1">
          <mxGeometry x="557" y="299.75" width="28" height="28" as="geometry" />
        </mxCell>
        <mxCell id="fA2I_pHYrqz7Ve5M-0mP-23" style="edgeStyle=orthogonalEdgeStyle;rounded=0;orthogonalLoop=1;jettySize=auto;html=1;" edge="1" parent="fA2I_pHYrqz7Ve5M-0mP-1" source="fA2I_pHYrqz7Ve5M-0mP-59" target="fA2I_pHYrqz7Ve5M-0mP-17">
          <mxGeometry relative="1" as="geometry" />
        </mxCell>
        <mxCell id="fA2I_pHYrqz7Ve5M-0mP-24" style="edgeStyle=orthogonalEdgeStyle;rounded=0;orthogonalLoop=1;jettySize=auto;html=1;entryX=0.5;entryY=1;entryDx=0;entryDy=0;" edge="1" parent="fA2I_pHYrqz7Ve5M-0mP-1" source="fA2I_pHYrqz7Ve5M-0mP-25" target="fA2I_pHYrqz7Ve5M-0mP-53">
          <mxGeometry relative="1" as="geometry" />
        </mxCell>
        <mxCell id="fA2I_pHYrqz7Ve5M-0mP-25" value="Inform available inventory to sales" style="whiteSpace=wrap;html=1;rounded=1;shape=label;fixedSize=1;" vertex="1" parent="fA2I_pHYrqz7Ve5M-0mP-1">
          <mxGeometry x="721" y="327.75" width="100" height="37.75" as="geometry" />
        </mxCell>
        <mxCell id="fA2I_pHYrqz7Ve5M-0mP-26" value="" style="image;aspect=fixed;perimeter=ellipsePerimeter;html=1;align=center;shadow=0;dashed=0;spacingTop=3;image=img/lib/active_directory/cell_phone.svg;" vertex="1" parent="fA2I_pHYrqz7Ve5M-0mP-1">
          <mxGeometry x="810" y="299.75" width="11" height="26.19" as="geometry" />
        </mxCell>
        <mxCell id="fA2I_pHYrqz7Ve5M-0mP-27" style="edgeStyle=orthogonalEdgeStyle;rounded=0;orthogonalLoop=1;jettySize=auto;html=1;entryX=0.5;entryY=0;entryDx=0;entryDy=0;exitX=0.5;exitY=1;exitDx=0;exitDy=0;" edge="1" parent="fA2I_pHYrqz7Ve5M-0mP-1" source="fA2I_pHYrqz7Ve5M-0mP-29" target="fA2I_pHYrqz7Ve5M-0mP-11">
          <mxGeometry relative="1" as="geometry" />
        </mxCell>
        <mxCell id="fA2I_pHYrqz7Ve5M-0mP-28" style="edgeStyle=orthogonalEdgeStyle;rounded=0;orthogonalLoop=1;jettySize=auto;html=1;" edge="1" parent="fA2I_pHYrqz7Ve5M-0mP-1" source="fA2I_pHYrqz7Ve5M-0mP-29" target="fA2I_pHYrqz7Ve5M-0mP-13">
          <mxGeometry relative="1" as="geometry" />
        </mxCell>
        <mxCell id="fA2I_pHYrqz7Ve5M-0mP-29" value="Adhoc Sales Order" style="whiteSpace=wrap;html=1;rounded=0;shape=label;fixedSize=1;" vertex="1" parent="fA2I_pHYrqz7Ve5M-0mP-1">
          <mxGeometry x="481" y="79" width="100" height="140" as="geometry" />
        </mxCell>
        <mxCell id="fA2I_pHYrqz7Ve5M-0mP-30" value="" style="image;aspect=fixed;perimeter=ellipsePerimeter;html=1;align=center;shadow=0;dashed=0;spacingTop=3;image=img/lib/active_directory/cell_phone.svg;" vertex="1" parent="fA2I_pHYrqz7Ve5M-0mP-1">
          <mxGeometry x="570" y="51.56" width="11" height="26.19" as="geometry" />
        </mxCell>
        <mxCell id="fA2I_pHYrqz7Ve5M-0mP-31" value="" style="shape=image;html=1;verticalAlign=top;verticalLabelPosition=bottom;labelBackgroundColor=#ffffff;imageAspect=0;aspect=fixed;image=https://cdn1.iconfinder.com/data/icons/office-icons-17/512/ilustracoes_04-14-128.png" vertex="1" parent="fA2I_pHYrqz7Ve5M-0mP-1">
          <mxGeometry x="1150" y="48.87999999999999" width="30" height="30" as="geometry" />
        </mxCell>
        <mxCell id="fA2I_pHYrqz7Ve5M-0mP-32" value="" style="shape=image;verticalLabelPosition=bottom;labelBackgroundColor=default;verticalAlign=top;aspect=fixed;imageAspect=0;image=https://i.ytimg.com/vi/Gkpk4LcL1lk/sddefault.jpg;clipPath=inset(66.89% 0.67% 10% 66%);" vertex="1" parent="fA2I_pHYrqz7Ve5M-0mP-1">
          <mxGeometry x="1031" y="63.28000000000002" width="30" height="15.6" as="geometry" />
        </mxCell>
        <mxCell id="fA2I_pHYrqz7Ve5M-0mP-33" value="Reorder picked item by car" style="whiteSpace=wrap;html=1;rounded=1;shape=label;fixedSize=1;" vertex="1" parent="fA2I_pHYrqz7Ve5M-0mP-1">
          <mxGeometry x="1080" y="327.75" width="100" height="37.75" as="geometry" />
        </mxCell>
        <mxCell id="fA2I_pHYrqz7Ve5M-0mP-34" value="Logistics allocation" style="whiteSpace=wrap;html=1;rounded=0;shape=label;fixedSize=1;" vertex="1" parent="fA2I_pHYrqz7Ve5M-0mP-1">
          <mxGeometry x="1080" y="378.09000000000003" width="100" height="37.75" as="geometry" />
        </mxCell>
        <mxCell id="fA2I_pHYrqz7Ve5M-0mP-35" value="" style="image;aspect=fixed;perimeter=ellipsePerimeter;html=1;align=center;shadow=0;dashed=0;spacingTop=3;image=img/lib/active_directory/cell_phone.svg;" vertex="1" parent="fA2I_pHYrqz7Ve5M-0mP-1">
          <mxGeometry x="1169" y="400" width="11" height="26.19" as="geometry" />
        </mxCell>
        <mxCell id="fA2I_pHYrqz7Ve5M-0mP-36" value="Confirm loading item" style="whiteSpace=wrap;html=1;rounded=1;shape=label;fixedSize=1;" vertex="1" parent="fA2I_pHYrqz7Ve5M-0mP-1">
          <mxGeometry x="1330" y="328.95" width="100" height="142.25" as="geometry" />
        </mxCell>
        <mxCell id="fA2I_pHYrqz7Ve5M-0mP-37" value="3PL" style="whiteSpace=wrap;html=1;rounded=0;" vertex="1" parent="fA2I_pHYrqz7Ve5M-0mP-1">
          <mxGeometry x="40" y="428.34000000000003" width="150" height="37.75" as="geometry" />
        </mxCell>
        <mxCell id="fA2I_pHYrqz7Ve5M-0mP-38" value="Delivery invoice" style="whiteSpace=wrap;html=1;rounded=0;shape=label;fixedSize=1;" vertex="1" parent="fA2I_pHYrqz7Ve5M-0mP-1">
          <mxGeometry x="1200" y="378.34000000000003" width="100" height="87.75" as="geometry" />
        </mxCell>
        <mxCell id="fA2I_pHYrqz7Ve5M-0mP-39" style="edgeStyle=orthogonalEdgeStyle;rounded=0;orthogonalLoop=1;jettySize=auto;html=1;" edge="1" parent="fA2I_pHYrqz7Ve5M-0mP-1" source="fA2I_pHYrqz7Ve5M-0mP-41" target="fA2I_pHYrqz7Ve5M-0mP-43">
          <mxGeometry relative="1" as="geometry" />
        </mxCell>
        <mxCell id="fA2I_pHYrqz7Ve5M-0mP-40" style="edgeStyle=orthogonalEdgeStyle;rounded=0;orthogonalLoop=1;jettySize=auto;html=1;entryX=0;entryY=0.5;entryDx=0;entryDy=0;" edge="1" parent="fA2I_pHYrqz7Ve5M-0mP-1" source="fA2I_pHYrqz7Ve5M-0mP-41" target="fA2I_pHYrqz7Ve5M-0mP-45">
          <mxGeometry relative="1" as="geometry" />
        </mxCell>
        <mxCell id="fA2I_pHYrqz7Ve5M-0mP-41" value="Loading" style="whiteSpace=wrap;html=1;rounded=1;shape=label;fixedSize=1;" vertex="1" parent="fA2I_pHYrqz7Ve5M-0mP-1">
          <mxGeometry x="1450" y="328.95" width="100" height="37.75" as="geometry" />
        </mxCell>
        <mxCell id="fA2I_pHYrqz7Ve5M-0mP-42" value="" style="shape=image;html=1;verticalAlign=top;verticalLabelPosition=bottom;labelBackgroundColor=#ffffff;imageAspect=0;aspect=fixed;image=https://cdn1.iconfinder.com/data/icons/office-icons-17/512/ilustracoes_04-14-128.png" vertex="1" parent="fA2I_pHYrqz7Ve5M-0mP-1">
          <mxGeometry x="1270" y="378.34000000000003" width="30" height="30" as="geometry" />
        </mxCell>
        <mxCell id="fA2I_pHYrqz7Ve5M-0mP-43" value="Delivery" style="whiteSpace=wrap;html=1;rounded=1;shape=label;fixedSize=1;" vertex="1" parent="fA2I_pHYrqz7Ve5M-0mP-1">
          <mxGeometry x="1450" y="379.54" width="100" height="87.75" as="geometry" />
        </mxCell>
        <mxCell id="fA2I_pHYrqz7Ve5M-0mP-44" style="edgeStyle=orthogonalEdgeStyle;rounded=0;orthogonalLoop=1;jettySize=auto;html=1;entryX=0;entryY=0.5;entryDx=0;entryDy=0;" edge="1" parent="fA2I_pHYrqz7Ve5M-0mP-1" source="fA2I_pHYrqz7Ve5M-0mP-45" target="fA2I_pHYrqz7Ve5M-0mP-46">
          <mxGeometry relative="1" as="geometry" />
        </mxCell>
        <mxCell id="fA2I_pHYrqz7Ve5M-0mP-45" value="Update inventory" style="whiteSpace=wrap;html=1;rounded=1;shape=label;fixedSize=1;" vertex="1" parent="fA2I_pHYrqz7Ve5M-0mP-1">
          <mxGeometry x="1570" y="328.95" width="100" height="37.75" as="geometry" />
        </mxCell>
        <mxCell id="fA2I_pHYrqz7Ve5M-0mP-46" value="Update inventory" style="whiteSpace=wrap;html=1;rounded=1;shape=label;fixedSize=1;" vertex="1" parent="fA2I_pHYrqz7Ve5M-0mP-1">
          <mxGeometry x="1690" y="328.95" width="100" height="37.75" as="geometry" />
        </mxCell>
        <mxCell id="fA2I_pHYrqz7Ve5M-0mP-47" value="" style="shape=image;verticalLabelPosition=bottom;labelBackgroundColor=default;verticalAlign=top;aspect=fixed;imageAspect=0;image=https://i.ytimg.com/vi/Gkpk4LcL1lk/sddefault.jpg;clipPath=inset(66.89% 0.67% 10% 66%);" vertex="1" parent="fA2I_pHYrqz7Ve5M-0mP-1">
          <mxGeometry x="1760" y="312.15000000000003" width="30" height="15.6" as="geometry" />
        </mxCell>
        <mxCell id="fA2I_pHYrqz7Ve5M-0mP-48" value="" style="shape=image;html=1;verticalAlign=top;verticalLabelPosition=bottom;labelBackgroundColor=#ffffff;imageAspect=0;aspect=fixed;image=https://cdn3.iconfinder.com/data/icons/document-icons-2/30/647714-excel-128.png" vertex="1" parent="fA2I_pHYrqz7Ve5M-0mP-1">
          <mxGeometry x="1652" y="312.15" width="18" height="18" as="geometry" />
        </mxCell>
        <mxCell id="fA2I_pHYrqz7Ve5M-0mP-49" style="edgeStyle=orthogonalEdgeStyle;rounded=0;orthogonalLoop=1;jettySize=auto;html=1;entryX=0;entryY=0.5;entryDx=0;entryDy=0;" edge="1" parent="fA2I_pHYrqz7Ve5M-0mP-1" source="fA2I_pHYrqz7Ve5M-0mP-50" target="fA2I_pHYrqz7Ve5M-0mP-11">
          <mxGeometry relative="1" as="geometry" />
        </mxCell>
        <mxCell id="fA2I_pHYrqz7Ve5M-0mP-50" value="Sales Order with DO code" style="whiteSpace=wrap;html=1;rounded=0;shape=label;fixedSize=1;" vertex="1" parent="fA2I_pHYrqz7Ve5M-0mP-1">
          <mxGeometry x="360" y="327.75" width="100" height="37.75" as="geometry" />
        </mxCell>
        <mxCell id="fA2I_pHYrqz7Ve5M-0mP-51" style="edgeStyle=orthogonalEdgeStyle;rounded=0;orthogonalLoop=1;jettySize=auto;html=1;entryX=0.5;entryY=0;entryDx=0;entryDy=0;exitX=0.469;exitY=1.003;exitDx=0;exitDy=0;exitPerimeter=0;" edge="1" parent="fA2I_pHYrqz7Ve5M-0mP-1" source="fA2I_pHYrqz7Ve5M-0mP-52" target="fA2I_pHYrqz7Ve5M-0mP-17">
          <mxGeometry relative="1" as="geometry" />
        </mxCell>
        <mxCell id="fA2I_pHYrqz7Ve5M-0mP-52" value="Delivery Order" style="whiteSpace=wrap;html=1;rounded=0;shape=label;fixedSize=1;" vertex="1" parent="fA2I_pHYrqz7Ve5M-0mP-1">
          <mxGeometry x="1080" y="80" width="100" height="140" as="geometry" />
        </mxCell>
        <mxCell id="fA2I_pHYrqz7Ve5M-0mP-53" value="Check available inventory from Warehouse" style="whiteSpace=wrap;html=1;rounded=1;shape=label;fixedSize=1;" vertex="1" parent="fA2I_pHYrqz7Ve5M-0mP-1">
          <mxGeometry x="721" y="77.75" width="100" height="140" as="geometry" />
        </mxCell>
        <mxCell id="fA2I_pHYrqz7Ve5M-0mP-54" style="edgeStyle=orthogonalEdgeStyle;rounded=0;orthogonalLoop=1;jettySize=auto;html=1;entryX=0.5;entryY=0;entryDx=0;entryDy=0;" edge="1" parent="fA2I_pHYrqz7Ve5M-0mP-1" source="fA2I_pHYrqz7Ve5M-0mP-55" target="fA2I_pHYrqz7Ve5M-0mP-13">
          <mxGeometry relative="1" as="geometry">
            <Array as="points">
              <mxPoint x="892" y="50" />
              <mxPoint x="290" y="50" />
            </Array>
          </mxGeometry>
        </mxCell>
        <mxCell id="fA2I_pHYrqz7Ve5M-0mP-55" value="Inform customer for partial delivery" style="whiteSpace=wrap;html=1;rounded=1;shape=label;fixedSize=1;" vertex="1" parent="fA2I_pHYrqz7Ve5M-0mP-1">
          <mxGeometry x="842" y="78.88" width="100" height="140" as="geometry" />
        </mxCell>
        <mxCell id="fA2I_pHYrqz7Ve5M-0mP-56" value="" style="image;aspect=fixed;perimeter=ellipsePerimeter;html=1;align=center;shadow=0;dashed=0;spacingTop=3;image=img/lib/active_directory/cell_phone.svg;" vertex="1" parent="fA2I_pHYrqz7Ve5M-0mP-1">
          <mxGeometry x="810" y="51.56" width="11" height="26.19" as="geometry" />
        </mxCell>
        <mxCell id="fA2I_pHYrqz7Ve5M-0mP-57" value="" style="image;aspect=fixed;perimeter=ellipsePerimeter;html=1;align=center;shadow=0;dashed=0;spacingTop=3;image=img/lib/active_directory/cell_phone.svg;" vertex="1" parent="fA2I_pHYrqz7Ve5M-0mP-1">
          <mxGeometry x="931" y="52.690000000000005" width="11" height="26.19" as="geometry" />
        </mxCell>
        <mxCell id="fA2I_pHYrqz7Ve5M-0mP-58" value="" style="edgeStyle=orthogonalEdgeStyle;rounded=0;orthogonalLoop=1;jettySize=auto;html=1;" edge="1" parent="fA2I_pHYrqz7Ve5M-0mP-1" source="fA2I_pHYrqz7Ve5M-0mP-25" target="fA2I_pHYrqz7Ve5M-0mP-59">
          <mxGeometry relative="1" as="geometry">
            <mxPoint x="840" y="347" as="sourcePoint" />
            <mxPoint x="1040" y="347" as="targetPoint" />
          </mxGeometry>
        </mxCell>
        <mxCell id="fA2I_pHYrqz7Ve5M-0mP-59" value="Pick item" style="whiteSpace=wrap;html=1;rounded=1;shape=label;fixedSize=1;" vertex="1" parent="fA2I_pHYrqz7Ve5M-0mP-1">
          <mxGeometry x="842" y="327.75" width="100" height="37.75" as="geometry" />
        </mxCell>
        <mxCell id="fA2I_pHYrqz7Ve5M-0mP-60" style="edgeStyle=orthogonalEdgeStyle;rounded=0;orthogonalLoop=1;jettySize=auto;html=1;entryX=0;entryY=0.5;entryDx=0;entryDy=0;" edge="1" parent="fA2I_pHYrqz7Ve5M-0mP-1">
          <mxGeometry relative="1" as="geometry">
            <mxPoint x="823" y="147.46" as="sourcePoint" />
            <mxPoint x="842" y="147.46" as="targetPoint" />
          </mxGeometry>
        </mxCell>
        <mxCell id="fA2I_pHYrqz7Ve5M-0mP-61" style="edgeStyle=orthogonalEdgeStyle;rounded=0;orthogonalLoop=1;jettySize=auto;html=1;entryX=0;entryY=0.5;entryDx=0;entryDy=0;" edge="1" parent="fA2I_pHYrqz7Ve5M-0mP-1">
          <mxGeometry relative="1" as="geometry">
            <mxPoint x="1061" y="346.46" as="sourcePoint" />
            <mxPoint x="1081" y="346.46" as="targetPoint" />
          </mxGeometry>
        </mxCell>
        <mxCell id="fA2I_pHYrqz7Ve5M-0mP-62" style="edgeStyle=orthogonalEdgeStyle;rounded=0;orthogonalLoop=1;jettySize=auto;html=1;entryX=-0.016;entryY=0.65;entryDx=0;entryDy=0;entryPerimeter=0;" edge="1" parent="fA2I_pHYrqz7Ve5M-0mP-1" source="fA2I_pHYrqz7Ve5M-0mP-38" target="fA2I_pHYrqz7Ve5M-0mP-36">
          <mxGeometry relative="1" as="geometry" />
        </mxCell>
        <mxCell id="fA2I_pHYrqz7Ve5M-0mP-63" style="edgeStyle=orthogonalEdgeStyle;rounded=0;orthogonalLoop=1;jettySize=auto;html=1;entryX=0;entryY=0.124;entryDx=0;entryDy=0;entryPerimeter=0;" edge="1" parent="fA2I_pHYrqz7Ve5M-0mP-1" source="fA2I_pHYrqz7Ve5M-0mP-33" target="fA2I_pHYrqz7Ve5M-0mP-36">
          <mxGeometry relative="1" as="geometry" />
        </mxCell>
        <mxCell id="fA2I_pHYrqz7Ve5M-0mP-64" value="" style="endArrow=classic;html=1;rounded=0;entryX=0.5;entryY=1;entryDx=0;entryDy=0;" edge="1" parent="fA2I_pHYrqz7Ve5M-0mP-1" target="fA2I_pHYrqz7Ve5M-0mP-33">
          <mxGeometry width="50" height="50" relative="1" as="geometry">
            <mxPoint x="1130" y="377.75" as="sourcePoint" />
            <mxPoint x="1180" y="327.75" as="targetPoint" />
          </mxGeometry>
        </mxCell>
        <mxCell id="fA2I_pHYrqz7Ve5M-0mP-65" value="" style="endArrow=classic;html=1;rounded=0;entryX=0;entryY=0.5;entryDx=0;entryDy=0;" edge="1" parent="fA2I_pHYrqz7Ve5M-0mP-1" target="fA2I_pHYrqz7Ve5M-0mP-41">
          <mxGeometry width="50" height="50" relative="1" as="geometry">
            <mxPoint x="1430" y="348" as="sourcePoint" />
            <mxPoint x="1480" y="296.55" as="targetPoint" />
          </mxGeometry>
        </mxCell>
        <mxCell id="fA2I_pHYrqz7Ve5M-0mP-66" style="edgeStyle=orthogonalEdgeStyle;rounded=0;orthogonalLoop=1;jettySize=auto;html=1;entryX=0;entryY=0.5;entryDx=0;entryDy=0;" edge="1" parent="fA2I_pHYrqz7Ve5M-0mP-1" source="fA2I_pHYrqz7Ve5M-0mP-67" target="fA2I_pHYrqz7Ve5M-0mP-34">
          <mxGeometry relative="1" as="geometry" />
        </mxCell>
        <mxCell id="fA2I_pHYrqz7Ve5M-0mP-67" value="" style="ellipse;whiteSpace=wrap;html=1;" vertex="1" parent="fA2I_pHYrqz7Ve5M-0mP-1">
          <mxGeometry x="996" y="382.72" width="30" height="27.75" as="geometry" />
        </mxCell>
        <mxCell id="fA2I_pHYrqz7Ve5M-0mP-68" value="Logistics allocation" style="text;html=1;align=center;verticalAlign=middle;whiteSpace=wrap;rounded=0;" vertex="1" parent="fA2I_pHYrqz7Ve5M-0mP-1">
          <mxGeometry x="981" y="415.47" width="60" height="30" as="geometry" />
        </mxCell>
      </root>
    </mxGraphModel>
  </diagram>
  <diagram name=" FG  Picking and Loading" id="lc4OtPwcH37KuJ3Rdd96">
    <mxGraphModel dx="2037" dy="781" grid="1" gridSize="10" guides="1" tooltips="1" connect="1" arrows="1" fold="1" page="1" pageScale="1" pageWidth="1169" pageHeight="827" math="0" shadow="0">
      <root>
        <mxCell id="1C5PQYeX8WK9iFXKlTwn-0" />
        <mxCell id="1C5PQYeX8WK9iFXKlTwn-1" parent="1C5PQYeX8WK9iFXKlTwn-0" />
        <mxCell id="1C5PQYeX8WK9iFXKlTwn-2" value="&lt;font style=&quot;font-size: 24px;&quot;&gt;FG Picking and Loading information flow&lt;/font&gt;" style="text;html=1;align=center;verticalAlign=middle;whiteSpace=wrap;rounded=0;" parent="1C5PQYeX8WK9iFXKlTwn-1" vertex="1">
          <mxGeometry x="10" y="10" width="440" height="30" as="geometry" />
        </mxCell>
        <mxCell id="1C5PQYeX8WK9iFXKlTwn-3" value="Sales&lt;div&gt;B2C&lt;/div&gt;" style="whiteSpace=wrap;html=1;rounded=0;" parent="1C5PQYeX8WK9iFXKlTwn-1" vertex="1">
          <mxGeometry x="40" y="80" width="70" height="137.75" as="geometry" />
        </mxCell>
        <mxCell id="1C5PQYeX8WK9iFXKlTwn-5" value="Warehouse" style="whiteSpace=wrap;html=1;rounded=0;" parent="1C5PQYeX8WK9iFXKlTwn-1" vertex="1">
          <mxGeometry x="40" y="327.75" width="150" height="37.75" as="geometry" />
        </mxCell>
        <mxCell id="1C5PQYeX8WK9iFXKlTwn-9" value="Logistics" style="whiteSpace=wrap;html=1;rounded=0;" parent="1C5PQYeX8WK9iFXKlTwn-1" vertex="1">
          <mxGeometry x="40" y="378.09000000000003" width="150" height="37.75" as="geometry" />
        </mxCell>
        <mxCell id="1C5PQYeX8WK9iFXKlTwn-26" value="Sales&lt;div&gt;B2B&lt;/div&gt;" style="whiteSpace=wrap;html=1;rounded=0;" parent="1C5PQYeX8WK9iFXKlTwn-1" vertex="1">
          <mxGeometry x="120" y="80" width="70" height="137.75" as="geometry" />
        </mxCell>
        <mxCell id="cAK7XN6voFNeegH4oCLL-1" style="edgeStyle=orthogonalEdgeStyle;rounded=0;orthogonalLoop=1;jettySize=auto;html=1;entryX=0;entryY=0.5;entryDx=0;entryDy=0;" parent="1C5PQYeX8WK9iFXKlTwn-1" source="2y71QAIGeUX0__StYfel-0" target="cAK7XN6voFNeegH4oCLL-0" edge="1">
          <mxGeometry relative="1" as="geometry" />
        </mxCell>
        <mxCell id="2y71QAIGeUX0__StYfel-0" value="&lt;font style=&quot;font-size: 11px;&quot;&gt;Export Sales Order with DO code&lt;/font&gt;" style="whiteSpace=wrap;html=1;rounded=0;shape=label;fixedSize=1;" parent="1C5PQYeX8WK9iFXKlTwn-1" vertex="1">
          <mxGeometry x="240" y="327.75" width="100" height="37.75" as="geometry" />
        </mxCell>
        <mxCell id="VAIqP2A_iayKq7jaivWc-0" value="" style="shape=image;verticalLabelPosition=bottom;labelBackgroundColor=default;verticalAlign=top;aspect=fixed;imageAspect=0;image=https://i.ytimg.com/vi/Gkpk4LcL1lk/sddefault.jpg;clipPath=inset(66.89% 0.67% 10% 66%);" parent="1C5PQYeX8WK9iFXKlTwn-1" vertex="1">
          <mxGeometry x="310" y="312.15000000000003" width="30" height="15.6" as="geometry" />
        </mxCell>
        <mxCell id="c2dbOsznNqgAbT3EDqx6-2" style="edgeStyle=orthogonalEdgeStyle;rounded=0;orthogonalLoop=1;jettySize=auto;html=1;entryX=0;entryY=0.5;entryDx=0;entryDy=0;" parent="1C5PQYeX8WK9iFXKlTwn-1" source="VAIqP2A_iayKq7jaivWc-1" target="ulif39kqq7doQhcI8xT--4" edge="1">
          <mxGeometry relative="1" as="geometry" />
        </mxCell>
        <mxCell id="VAIqP2A_iayKq7jaivWc-1" value="Check available inventory" style="whiteSpace=wrap;html=1;rounded=1;shape=label;fixedSize=1;" parent="1C5PQYeX8WK9iFXKlTwn-1" vertex="1">
          <mxGeometry x="481" y="327.75" width="100" height="37.75" as="geometry" />
        </mxCell>
        <mxCell id="mAVixu-Et79KgxU8GCL1-3" style="edgeStyle=orthogonalEdgeStyle;rounded=0;orthogonalLoop=1;jettySize=auto;html=1;" parent="1C5PQYeX8WK9iFXKlTwn-1" source="mAVixu-Et79KgxU8GCL1-1" target="2y71QAIGeUX0__StYfel-0" edge="1">
          <mxGeometry relative="1" as="geometry" />
        </mxCell>
        <mxCell id="mAVixu-Et79KgxU8GCL1-1" value="Input Sales Order" style="whiteSpace=wrap;html=1;rounded=1;shape=label;fixedSize=1;" parent="1C5PQYeX8WK9iFXKlTwn-1" vertex="1">
          <mxGeometry x="240" y="78.88" width="100" height="140" as="geometry" />
        </mxCell>
        <mxCell id="mAVixu-Et79KgxU8GCL1-2" value="" style="shape=image;verticalLabelPosition=bottom;labelBackgroundColor=default;verticalAlign=top;aspect=fixed;imageAspect=0;image=https://i.ytimg.com/vi/Gkpk4LcL1lk/sddefault.jpg;clipPath=inset(66.89% 0.67% 10% 66%);" parent="1C5PQYeX8WK9iFXKlTwn-1" vertex="1">
          <mxGeometry x="310" y="63.28000000000004" width="30" height="15.6" as="geometry" />
        </mxCell>
        <mxCell id="cAK7XN6voFNeegH4oCLL-7" style="edgeStyle=orthogonalEdgeStyle;rounded=0;orthogonalLoop=1;jettySize=auto;html=1;entryX=0;entryY=0.5;entryDx=0;entryDy=0;" parent="1C5PQYeX8WK9iFXKlTwn-1" source="ulif39kqq7doQhcI8xT--0" target="cAK7XN6voFNeegH4oCLL-6" edge="1">
          <mxGeometry relative="1" as="geometry" />
        </mxCell>
        <mxCell id="ulif39kqq7doQhcI8xT--0" value="Export Delivery Order" style="whiteSpace=wrap;html=1;rounded=1;shape=label;fixedSize=1;" parent="1C5PQYeX8WK9iFXKlTwn-1" vertex="1">
          <mxGeometry x="961" y="80" width="100" height="140" as="geometry" />
        </mxCell>
        <mxCell id="ulif39kqq7doQhcI8xT--1" value="Recheck picked item" style="whiteSpace=wrap;html=1;rounded=1;shape=label;fixedSize=1;" parent="1C5PQYeX8WK9iFXKlTwn-1" vertex="1">
          <mxGeometry x="961" y="327.75" width="100" height="37.75" as="geometry" />
        </mxCell>
        <mxCell id="c2dbOsznNqgAbT3EDqx6-6" style="edgeStyle=orthogonalEdgeStyle;rounded=0;orthogonalLoop=1;jettySize=auto;html=1;entryX=0;entryY=0.5;entryDx=0;entryDy=0;" parent="1C5PQYeX8WK9iFXKlTwn-1" source="ulif39kqq7doQhcI8xT--4" target="c2dbOsznNqgAbT3EDqx6-5" edge="1">
          <mxGeometry relative="1" as="geometry" />
        </mxCell>
        <mxCell id="ulif39kqq7doQhcI8xT--4" value="Update available inventory" style="whiteSpace=wrap;html=1;rounded=1;shape=label;fixedSize=1;" parent="1C5PQYeX8WK9iFXKlTwn-1" vertex="1">
          <mxGeometry x="601" y="327.75" width="100" height="37.75" as="geometry" />
        </mxCell>
        <mxCell id="c2dbOsznNqgAbT3EDqx6-0" value="" style="shape=image;html=1;verticalAlign=top;verticalLabelPosition=bottom;labelBackgroundColor=#ffffff;imageAspect=0;aspect=fixed;image=https://cdn1.iconfinder.com/data/icons/office-icons-17/512/ilustracoes_04-14-128.png" parent="1C5PQYeX8WK9iFXKlTwn-1" vertex="1">
          <mxGeometry x="430" y="301.56" width="30" height="30" as="geometry" />
        </mxCell>
        <mxCell id="c2dbOsznNqgAbT3EDqx6-1" value="" style="shape=image;html=1;verticalAlign=top;verticalLabelPosition=bottom;labelBackgroundColor=#ffffff;imageAspect=0;aspect=fixed;image=https://cdn1.iconfinder.com/data/icons/office-icons-17/512/ilustracoes_04-14-128.png" parent="1C5PQYeX8WK9iFXKlTwn-1" vertex="1">
          <mxGeometry x="671" y="296.55" width="30" height="30" as="geometry" />
        </mxCell>
        <mxCell id="c2dbOsznNqgAbT3EDqx6-4" value="" style="shape=image;html=1;verticalAlign=top;verticalLabelPosition=bottom;labelBackgroundColor=#ffffff;imageAspect=0;aspect=fixed;image=https://cdn0.iconfinder.com/data/icons/phosphor-fill-vol-3/256/hand-fill-128.png" parent="1C5PQYeX8WK9iFXKlTwn-1" vertex="1">
          <mxGeometry x="557" y="299.75" width="28" height="28" as="geometry" />
        </mxCell>
        <mxCell id="QagkEz8Ni6_hyG9Oev6B-1" style="edgeStyle=orthogonalEdgeStyle;rounded=0;orthogonalLoop=1;jettySize=auto;html=1;" parent="1C5PQYeX8WK9iFXKlTwn-1" source="s0AkHZhy8GFQsrbh6nYP-7" target="ulif39kqq7doQhcI8xT--1" edge="1">
          <mxGeometry relative="1" as="geometry" />
        </mxCell>
        <mxCell id="s0AkHZhy8GFQsrbh6nYP-1" style="edgeStyle=orthogonalEdgeStyle;rounded=0;orthogonalLoop=1;jettySize=auto;html=1;entryX=0.5;entryY=1;entryDx=0;entryDy=0;" parent="1C5PQYeX8WK9iFXKlTwn-1" source="c2dbOsznNqgAbT3EDqx6-5" target="s0AkHZhy8GFQsrbh6nYP-0" edge="1">
          <mxGeometry relative="1" as="geometry" />
        </mxCell>
        <mxCell id="c2dbOsznNqgAbT3EDqx6-5" value="Inform available inventory to sales" style="whiteSpace=wrap;html=1;rounded=1;shape=label;fixedSize=1;" parent="1C5PQYeX8WK9iFXKlTwn-1" vertex="1">
          <mxGeometry x="721" y="327.75" width="100" height="37.75" as="geometry" />
        </mxCell>
        <mxCell id="QagkEz8Ni6_hyG9Oev6B-0" value="" style="image;aspect=fixed;perimeter=ellipsePerimeter;html=1;align=center;shadow=0;dashed=0;spacingTop=3;image=img/lib/active_directory/cell_phone.svg;" parent="1C5PQYeX8WK9iFXKlTwn-1" vertex="1">
          <mxGeometry x="810" y="299.75" width="11" height="26.19" as="geometry" />
        </mxCell>
        <mxCell id="QagkEz8Ni6_hyG9Oev6B-3" style="edgeStyle=orthogonalEdgeStyle;rounded=0;orthogonalLoop=1;jettySize=auto;html=1;entryX=0.5;entryY=0;entryDx=0;entryDy=0;exitX=0.5;exitY=1;exitDx=0;exitDy=0;" parent="1C5PQYeX8WK9iFXKlTwn-1" source="QagkEz8Ni6_hyG9Oev6B-2" target="VAIqP2A_iayKq7jaivWc-1" edge="1">
          <mxGeometry relative="1" as="geometry" />
        </mxCell>
        <mxCell id="QagkEz8Ni6_hyG9Oev6B-5" style="edgeStyle=orthogonalEdgeStyle;rounded=0;orthogonalLoop=1;jettySize=auto;html=1;" parent="1C5PQYeX8WK9iFXKlTwn-1" source="QagkEz8Ni6_hyG9Oev6B-2" target="mAVixu-Et79KgxU8GCL1-1" edge="1">
          <mxGeometry relative="1" as="geometry" />
        </mxCell>
        <mxCell id="QagkEz8Ni6_hyG9Oev6B-2" value="Adhoc Sales Order" style="whiteSpace=wrap;html=1;rounded=0;shape=label;fixedSize=1;" parent="1C5PQYeX8WK9iFXKlTwn-1" vertex="1">
          <mxGeometry x="481" y="79" width="100" height="140" as="geometry" />
        </mxCell>
        <mxCell id="QagkEz8Ni6_hyG9Oev6B-4" value="" style="image;aspect=fixed;perimeter=ellipsePerimeter;html=1;align=center;shadow=0;dashed=0;spacingTop=3;image=img/lib/active_directory/cell_phone.svg;" parent="1C5PQYeX8WK9iFXKlTwn-1" vertex="1">
          <mxGeometry x="570" y="51.56" width="11" height="26.19" as="geometry" />
        </mxCell>
        <mxCell id="QagkEz8Ni6_hyG9Oev6B-9" value="" style="shape=image;html=1;verticalAlign=top;verticalLabelPosition=bottom;labelBackgroundColor=#ffffff;imageAspect=0;aspect=fixed;image=https://cdn1.iconfinder.com/data/icons/office-icons-17/512/ilustracoes_04-14-128.png" parent="1C5PQYeX8WK9iFXKlTwn-1" vertex="1">
          <mxGeometry x="1150" y="48.87999999999999" width="30" height="30" as="geometry" />
        </mxCell>
        <mxCell id="QagkEz8Ni6_hyG9Oev6B-10" value="" style="shape=image;verticalLabelPosition=bottom;labelBackgroundColor=default;verticalAlign=top;aspect=fixed;imageAspect=0;image=https://i.ytimg.com/vi/Gkpk4LcL1lk/sddefault.jpg;clipPath=inset(66.89% 0.67% 10% 66%);" parent="1C5PQYeX8WK9iFXKlTwn-1" vertex="1">
          <mxGeometry x="1031" y="63.28000000000002" width="30" height="15.6" as="geometry" />
        </mxCell>
        <mxCell id="QagkEz8Ni6_hyG9Oev6B-12" value="Reorder picked item by car" style="whiteSpace=wrap;html=1;rounded=1;shape=label;fixedSize=1;" parent="1C5PQYeX8WK9iFXKlTwn-1" vertex="1">
          <mxGeometry x="1080" y="327.75" width="100" height="37.75" as="geometry" />
        </mxCell>
        <mxCell id="QagkEz8Ni6_hyG9Oev6B-13" value="Logistics allocation" style="whiteSpace=wrap;html=1;rounded=0;shape=label;fixedSize=1;" parent="1C5PQYeX8WK9iFXKlTwn-1" vertex="1">
          <mxGeometry x="1080" y="378.09000000000003" width="100" height="37.75" as="geometry" />
        </mxCell>
        <mxCell id="QagkEz8Ni6_hyG9Oev6B-16" value="" style="image;aspect=fixed;perimeter=ellipsePerimeter;html=1;align=center;shadow=0;dashed=0;spacingTop=3;image=img/lib/active_directory/cell_phone.svg;" parent="1C5PQYeX8WK9iFXKlTwn-1" vertex="1">
          <mxGeometry x="1169" y="400" width="11" height="26.19" as="geometry" />
        </mxCell>
        <mxCell id="QagkEz8Ni6_hyG9Oev6B-17" value="Confirm loading item" style="whiteSpace=wrap;html=1;rounded=1;shape=label;fixedSize=1;" parent="1C5PQYeX8WK9iFXKlTwn-1" vertex="1">
          <mxGeometry x="1330" y="328.95" width="100" height="142.25" as="geometry" />
        </mxCell>
        <mxCell id="QagkEz8Ni6_hyG9Oev6B-20" value="3PL" style="whiteSpace=wrap;html=1;rounded=0;" parent="1C5PQYeX8WK9iFXKlTwn-1" vertex="1">
          <mxGeometry x="40" y="428.34000000000003" width="150" height="37.75" as="geometry" />
        </mxCell>
        <mxCell id="QagkEz8Ni6_hyG9Oev6B-22" value="Delivery invoice" style="whiteSpace=wrap;html=1;rounded=0;shape=label;fixedSize=1;" parent="1C5PQYeX8WK9iFXKlTwn-1" vertex="1">
          <mxGeometry x="1200" y="378.34000000000003" width="100" height="87.75" as="geometry" />
        </mxCell>
        <mxCell id="QagkEz8Ni6_hyG9Oev6B-28" style="edgeStyle=orthogonalEdgeStyle;rounded=0;orthogonalLoop=1;jettySize=auto;html=1;" parent="1C5PQYeX8WK9iFXKlTwn-1" source="QagkEz8Ni6_hyG9Oev6B-24" target="QagkEz8Ni6_hyG9Oev6B-27" edge="1">
          <mxGeometry relative="1" as="geometry" />
        </mxCell>
        <mxCell id="QagkEz8Ni6_hyG9Oev6B-30" style="edgeStyle=orthogonalEdgeStyle;rounded=0;orthogonalLoop=1;jettySize=auto;html=1;entryX=0;entryY=0.5;entryDx=0;entryDy=0;" parent="1C5PQYeX8WK9iFXKlTwn-1" source="QagkEz8Ni6_hyG9Oev6B-24" target="QagkEz8Ni6_hyG9Oev6B-29" edge="1">
          <mxGeometry relative="1" as="geometry" />
        </mxCell>
        <mxCell id="QagkEz8Ni6_hyG9Oev6B-24" value="Loading" style="whiteSpace=wrap;html=1;rounded=1;shape=label;fixedSize=1;" parent="1C5PQYeX8WK9iFXKlTwn-1" vertex="1">
          <mxGeometry x="1450" y="328.95" width="100" height="37.75" as="geometry" />
        </mxCell>
        <mxCell id="QagkEz8Ni6_hyG9Oev6B-26" value="" style="shape=image;html=1;verticalAlign=top;verticalLabelPosition=bottom;labelBackgroundColor=#ffffff;imageAspect=0;aspect=fixed;image=https://cdn1.iconfinder.com/data/icons/office-icons-17/512/ilustracoes_04-14-128.png" parent="1C5PQYeX8WK9iFXKlTwn-1" vertex="1">
          <mxGeometry x="1270" y="378.34000000000003" width="30" height="30" as="geometry" />
        </mxCell>
        <mxCell id="QagkEz8Ni6_hyG9Oev6B-27" value="Delivery" style="whiteSpace=wrap;html=1;rounded=1;shape=label;fixedSize=1;" parent="1C5PQYeX8WK9iFXKlTwn-1" vertex="1">
          <mxGeometry x="1450" y="379.54" width="100" height="87.75" as="geometry" />
        </mxCell>
        <mxCell id="QagkEz8Ni6_hyG9Oev6B-32" style="edgeStyle=orthogonalEdgeStyle;rounded=0;orthogonalLoop=1;jettySize=auto;html=1;entryX=0;entryY=0.5;entryDx=0;entryDy=0;" parent="1C5PQYeX8WK9iFXKlTwn-1" source="QagkEz8Ni6_hyG9Oev6B-29" target="QagkEz8Ni6_hyG9Oev6B-31" edge="1">
          <mxGeometry relative="1" as="geometry" />
        </mxCell>
        <mxCell id="QagkEz8Ni6_hyG9Oev6B-29" value="Update inventory" style="whiteSpace=wrap;html=1;rounded=1;shape=label;fixedSize=1;" parent="1C5PQYeX8WK9iFXKlTwn-1" vertex="1">
          <mxGeometry x="1570" y="328.95" width="100" height="37.75" as="geometry" />
        </mxCell>
        <mxCell id="QagkEz8Ni6_hyG9Oev6B-31" value="Update inventory" style="whiteSpace=wrap;html=1;rounded=1;shape=label;fixedSize=1;" parent="1C5PQYeX8WK9iFXKlTwn-1" vertex="1">
          <mxGeometry x="1690" y="328.95" width="100" height="37.75" as="geometry" />
        </mxCell>
        <mxCell id="QagkEz8Ni6_hyG9Oev6B-33" value="" style="shape=image;verticalLabelPosition=bottom;labelBackgroundColor=default;verticalAlign=top;aspect=fixed;imageAspect=0;image=https://i.ytimg.com/vi/Gkpk4LcL1lk/sddefault.jpg;clipPath=inset(66.89% 0.67% 10% 66%);" parent="1C5PQYeX8WK9iFXKlTwn-1" vertex="1">
          <mxGeometry x="1760" y="312.15000000000003" width="30" height="15.6" as="geometry" />
        </mxCell>
        <mxCell id="hr2VkhHxJWsnX6IxtBP0-0" value="" style="shape=image;html=1;verticalAlign=top;verticalLabelPosition=bottom;labelBackgroundColor=#ffffff;imageAspect=0;aspect=fixed;image=https://cdn3.iconfinder.com/data/icons/document-icons-2/30/647714-excel-128.png" parent="1C5PQYeX8WK9iFXKlTwn-1" vertex="1">
          <mxGeometry x="1652" y="312.15" width="18" height="18" as="geometry" />
        </mxCell>
        <mxCell id="cAK7XN6voFNeegH4oCLL-2" style="edgeStyle=orthogonalEdgeStyle;rounded=0;orthogonalLoop=1;jettySize=auto;html=1;entryX=0;entryY=0.5;entryDx=0;entryDy=0;" parent="1C5PQYeX8WK9iFXKlTwn-1" source="cAK7XN6voFNeegH4oCLL-0" target="VAIqP2A_iayKq7jaivWc-1" edge="1">
          <mxGeometry relative="1" as="geometry" />
        </mxCell>
        <mxCell id="cAK7XN6voFNeegH4oCLL-0" value="Sales Order with DO code" style="whiteSpace=wrap;html=1;rounded=0;shape=label;fixedSize=1;" parent="1C5PQYeX8WK9iFXKlTwn-1" vertex="1">
          <mxGeometry x="360" y="327.75" width="100" height="37.75" as="geometry" />
        </mxCell>
        <mxCell id="s0AkHZhy8GFQsrbh6nYP-15" style="edgeStyle=orthogonalEdgeStyle;rounded=0;orthogonalLoop=1;jettySize=auto;html=1;entryX=0.5;entryY=0;entryDx=0;entryDy=0;exitX=0.469;exitY=1.003;exitDx=0;exitDy=0;exitPerimeter=0;" parent="1C5PQYeX8WK9iFXKlTwn-1" source="cAK7XN6voFNeegH4oCLL-6" target="ulif39kqq7doQhcI8xT--1" edge="1">
          <mxGeometry relative="1" as="geometry" />
        </mxCell>
        <mxCell id="cAK7XN6voFNeegH4oCLL-6" value="Delivery Order" style="whiteSpace=wrap;html=1;rounded=0;shape=label;fixedSize=1;" parent="1C5PQYeX8WK9iFXKlTwn-1" vertex="1">
          <mxGeometry x="1080" y="80" width="100" height="140" as="geometry" />
        </mxCell>
        <mxCell id="s0AkHZhy8GFQsrbh6nYP-0" value="Check available inventory from Warehouse" style="whiteSpace=wrap;html=1;rounded=1;shape=label;fixedSize=1;" parent="1C5PQYeX8WK9iFXKlTwn-1" vertex="1">
          <mxGeometry x="721" y="77.75" width="100" height="140" as="geometry" />
        </mxCell>
        <mxCell id="s0AkHZhy8GFQsrbh6nYP-16" style="edgeStyle=orthogonalEdgeStyle;rounded=0;orthogonalLoop=1;jettySize=auto;html=1;entryX=0.5;entryY=0;entryDx=0;entryDy=0;" parent="1C5PQYeX8WK9iFXKlTwn-1" source="s0AkHZhy8GFQsrbh6nYP-2" target="mAVixu-Et79KgxU8GCL1-1" edge="1">
          <mxGeometry relative="1" as="geometry">
            <Array as="points">
              <mxPoint x="892" y="50" />
              <mxPoint x="290" y="50" />
            </Array>
          </mxGeometry>
        </mxCell>
        <mxCell id="s0AkHZhy8GFQsrbh6nYP-2" value="Inform customer for partial delivery" style="whiteSpace=wrap;html=1;rounded=1;shape=label;fixedSize=1;" parent="1C5PQYeX8WK9iFXKlTwn-1" vertex="1">
          <mxGeometry x="842" y="78.88" width="100" height="140" as="geometry" />
        </mxCell>
        <mxCell id="s0AkHZhy8GFQsrbh6nYP-4" value="" style="image;aspect=fixed;perimeter=ellipsePerimeter;html=1;align=center;shadow=0;dashed=0;spacingTop=3;image=img/lib/active_directory/cell_phone.svg;" parent="1C5PQYeX8WK9iFXKlTwn-1" vertex="1">
          <mxGeometry x="810" y="51.56" width="11" height="26.19" as="geometry" />
        </mxCell>
        <mxCell id="s0AkHZhy8GFQsrbh6nYP-5" value="" style="image;aspect=fixed;perimeter=ellipsePerimeter;html=1;align=center;shadow=0;dashed=0;spacingTop=3;image=img/lib/active_directory/cell_phone.svg;" parent="1C5PQYeX8WK9iFXKlTwn-1" vertex="1">
          <mxGeometry x="931" y="52.690000000000005" width="11" height="26.19" as="geometry" />
        </mxCell>
        <mxCell id="s0AkHZhy8GFQsrbh6nYP-8" value="" style="edgeStyle=orthogonalEdgeStyle;rounded=0;orthogonalLoop=1;jettySize=auto;html=1;" parent="1C5PQYeX8WK9iFXKlTwn-1" source="c2dbOsznNqgAbT3EDqx6-5" target="s0AkHZhy8GFQsrbh6nYP-7" edge="1">
          <mxGeometry relative="1" as="geometry">
            <mxPoint x="840" y="347" as="sourcePoint" />
            <mxPoint x="1040" y="347" as="targetPoint" />
          </mxGeometry>
        </mxCell>
        <mxCell id="s0AkHZhy8GFQsrbh6nYP-7" value="Pick item" style="whiteSpace=wrap;html=1;rounded=1;shape=label;fixedSize=1;" parent="1C5PQYeX8WK9iFXKlTwn-1" vertex="1">
          <mxGeometry x="842" y="327.75" width="100" height="37.75" as="geometry" />
        </mxCell>
        <mxCell id="s0AkHZhy8GFQsrbh6nYP-14" style="edgeStyle=orthogonalEdgeStyle;rounded=0;orthogonalLoop=1;jettySize=auto;html=1;entryX=0;entryY=0.5;entryDx=0;entryDy=0;" parent="1C5PQYeX8WK9iFXKlTwn-1" edge="1">
          <mxGeometry relative="1" as="geometry">
            <mxPoint x="823" y="147.46" as="sourcePoint" />
            <mxPoint x="842" y="147.46" as="targetPoint" />
          </mxGeometry>
        </mxCell>
        <mxCell id="ep6Sbam4aRjIv4f4Ylm8-0" style="edgeStyle=orthogonalEdgeStyle;rounded=0;orthogonalLoop=1;jettySize=auto;html=1;entryX=0;entryY=0.5;entryDx=0;entryDy=0;" edge="1" parent="1C5PQYeX8WK9iFXKlTwn-1">
          <mxGeometry relative="1" as="geometry">
            <mxPoint x="1061" y="346.46" as="sourcePoint" />
            <mxPoint x="1081" y="346.46" as="targetPoint" />
          </mxGeometry>
        </mxCell>
        <mxCell id="ep6Sbam4aRjIv4f4Ylm8-4" style="edgeStyle=orthogonalEdgeStyle;rounded=0;orthogonalLoop=1;jettySize=auto;html=1;entryX=-0.016;entryY=0.65;entryDx=0;entryDy=0;entryPerimeter=0;" edge="1" parent="1C5PQYeX8WK9iFXKlTwn-1" source="QagkEz8Ni6_hyG9Oev6B-22" target="QagkEz8Ni6_hyG9Oev6B-17">
          <mxGeometry relative="1" as="geometry" />
        </mxCell>
        <mxCell id="ep6Sbam4aRjIv4f4Ylm8-5" style="edgeStyle=orthogonalEdgeStyle;rounded=0;orthogonalLoop=1;jettySize=auto;html=1;entryX=0;entryY=0.124;entryDx=0;entryDy=0;entryPerimeter=0;" edge="1" parent="1C5PQYeX8WK9iFXKlTwn-1" source="QagkEz8Ni6_hyG9Oev6B-12" target="QagkEz8Ni6_hyG9Oev6B-17">
          <mxGeometry relative="1" as="geometry" />
        </mxCell>
        <mxCell id="ep6Sbam4aRjIv4f4Ylm8-7" value="" style="endArrow=classic;html=1;rounded=0;entryX=0.5;entryY=1;entryDx=0;entryDy=0;" edge="1" parent="1C5PQYeX8WK9iFXKlTwn-1" target="QagkEz8Ni6_hyG9Oev6B-12">
          <mxGeometry width="50" height="50" relative="1" as="geometry">
            <mxPoint x="1130" y="377.75" as="sourcePoint" />
            <mxPoint x="1180" y="327.75" as="targetPoint" />
          </mxGeometry>
        </mxCell>
        <mxCell id="ep6Sbam4aRjIv4f4Ylm8-9" value="" style="endArrow=classic;html=1;rounded=0;entryX=0;entryY=0.5;entryDx=0;entryDy=0;" edge="1" parent="1C5PQYeX8WK9iFXKlTwn-1" target="QagkEz8Ni6_hyG9Oev6B-24">
          <mxGeometry width="50" height="50" relative="1" as="geometry">
            <mxPoint x="1430" y="348" as="sourcePoint" />
            <mxPoint x="1480" y="296.55" as="targetPoint" />
          </mxGeometry>
        </mxCell>
        <mxCell id="tApEZTqv-LWamsDeQr7P-2" style="edgeStyle=orthogonalEdgeStyle;rounded=0;orthogonalLoop=1;jettySize=auto;html=1;entryX=0;entryY=0.5;entryDx=0;entryDy=0;" edge="1" parent="1C5PQYeX8WK9iFXKlTwn-1" source="tApEZTqv-LWamsDeQr7P-0" target="QagkEz8Ni6_hyG9Oev6B-13">
          <mxGeometry relative="1" as="geometry" />
        </mxCell>
        <mxCell id="tApEZTqv-LWamsDeQr7P-0" value="" style="ellipse;whiteSpace=wrap;html=1;" vertex="1" parent="1C5PQYeX8WK9iFXKlTwn-1">
          <mxGeometry x="996" y="382.72" width="30" height="27.75" as="geometry" />
        </mxCell>
        <mxCell id="tApEZTqv-LWamsDeQr7P-1" value="Logistics allocation" style="text;html=1;align=center;verticalAlign=middle;whiteSpace=wrap;rounded=0;" vertex="1" parent="1C5PQYeX8WK9iFXKlTwn-1">
          <mxGeometry x="981" y="415.47" width="60" height="30" as="geometry" />
        </mxCell>
      </root>
    </mxGraphModel>
  </diagram>
  <diagram name="backup" id="_vS0HbCAa2YZTwf6c06K">
    <mxGraphModel dx="2954" dy="1132" grid="1" gridSize="10" guides="1" tooltips="1" connect="1" arrows="1" fold="1" page="1" pageScale="1" pageWidth="1169" pageHeight="827" math="0" shadow="0">
      <root>
        <mxCell id="kJBh9cPumE43FrWZTEhA-0" />
        <mxCell id="kJBh9cPumE43FrWZTEhA-1" parent="kJBh9cPumE43FrWZTEhA-0" />
        <mxCell id="kJBh9cPumE43FrWZTEhA-2" value="Admin B2B" style="whiteSpace=wrap;html=1;rounded=0;" vertex="1" parent="kJBh9cPumE43FrWZTEhA-1">
          <mxGeometry x="1320" y="182.25" width="120" height="60" as="geometry" />
        </mxCell>
        <mxCell id="kJBh9cPumE43FrWZTEhA-3" value="Sales B2B" style="whiteSpace=wrap;html=1;rounded=0;" vertex="1" parent="kJBh9cPumE43FrWZTEhA-1">
          <mxGeometry x="1490" y="135.75" width="120" height="60" as="geometry" />
        </mxCell>
        <mxCell id="kJBh9cPumE43FrWZTEhA-4" value="Sales Wet Market" style="whiteSpace=wrap;html=1;rounded=0;" vertex="1" parent="kJBh9cPumE43FrWZTEhA-1">
          <mxGeometry x="1490" y="57.75" width="120" height="60" as="geometry" />
        </mxCell>
        <mxCell id="kJBh9cPumE43FrWZTEhA-5" value="" style="endArrow=classic;html=1;rounded=0;exitX=0;exitY=0.5;exitDx=0;exitDy=0;entryX=1;entryY=0.5;entryDx=0;entryDy=0;" edge="1" parent="kJBh9cPumE43FrWZTEhA-1" source="kJBh9cPumE43FrWZTEhA-4" target="kJBh9cPumE43FrWZTEhA-2">
          <mxGeometry width="50" height="50" relative="1" as="geometry">
            <mxPoint x="1480" y="129.25" as="sourcePoint" />
            <mxPoint x="970" y="534.25" as="targetPoint" />
            <Array as="points">
              <mxPoint x="1470" y="88.25" />
              <mxPoint x="1470" y="212.25" />
            </Array>
          </mxGeometry>
        </mxCell>
        <mxCell id="kJBh9cPumE43FrWZTEhA-6" value="&lt;font style=&quot;font-size: 24px;&quot;&gt;Raw Material Planning Information flow&lt;/font&gt;" style="text;html=1;align=center;verticalAlign=middle;whiteSpace=wrap;rounded=0;" vertex="1" parent="kJBh9cPumE43FrWZTEhA-1">
          <mxGeometry x="10" y="10" width="440" height="30" as="geometry" />
        </mxCell>
        <mxCell id="kJBh9cPumE43FrWZTEhA-7" value="" style="endArrow=none;html=1;rounded=0;" edge="1" parent="kJBh9cPumE43FrWZTEhA-1">
          <mxGeometry width="50" height="50" relative="1" as="geometry">
            <mxPoint x="1470" y="163.25" as="sourcePoint" />
            <mxPoint x="1490" y="163.25" as="targetPoint" />
          </mxGeometry>
        </mxCell>
        <mxCell id="kJBh9cPumE43FrWZTEhA-8" value="Sales Invoice?" style="text;html=1;align=center;verticalAlign=middle;whiteSpace=wrap;rounded=0;" vertex="1" parent="kJBh9cPumE43FrWZTEhA-1">
          <mxGeometry x="1370" y="640" width="100" height="30" as="geometry" />
        </mxCell>
        <mxCell id="kJBh9cPumE43FrWZTEhA-9" value="Sales&lt;div&gt;B2C&lt;/div&gt;" style="whiteSpace=wrap;html=1;rounded=0;" vertex="1" parent="kJBh9cPumE43FrWZTEhA-1">
          <mxGeometry x="40" y="80" width="70" height="137.75" as="geometry" />
        </mxCell>
        <mxCell id="kJBh9cPumE43FrWZTEhA-10" value="Production" style="whiteSpace=wrap;html=1;rounded=0;" vertex="1" parent="kJBh9cPumE43FrWZTEhA-1">
          <mxGeometry x="40" y="228.75" width="150" height="37.75" as="geometry" />
        </mxCell>
        <mxCell id="kJBh9cPumE43FrWZTEhA-11" value="Warehouse" style="whiteSpace=wrap;html=1;rounded=0;" vertex="1" parent="kJBh9cPumE43FrWZTEhA-1">
          <mxGeometry x="40" y="327.75" width="150" height="37.75" as="geometry" />
        </mxCell>
        <mxCell id="kJBh9cPumE43FrWZTEhA-12" value="Purchasing" style="whiteSpace=wrap;html=1;rounded=0;" vertex="1" parent="kJBh9cPumE43FrWZTEhA-1">
          <mxGeometry x="40" y="278.75" width="150" height="37.75" as="geometry" />
        </mxCell>
        <mxCell id="kJBh9cPumE43FrWZTEhA-13" value="Supplier" style="whiteSpace=wrap;html=1;rounded=0;" vertex="1" parent="kJBh9cPumE43FrWZTEhA-1">
          <mxGeometry x="40" y="428.75" width="150" height="37.75" as="geometry" />
        </mxCell>
        <mxCell id="kJBh9cPumE43FrWZTEhA-14" value="Finance" style="whiteSpace=wrap;html=1;rounded=0;" vertex="1" parent="kJBh9cPumE43FrWZTEhA-1">
          <mxGeometry x="40" y="380" width="150" height="37.75" as="geometry" />
        </mxCell>
        <mxCell id="kJBh9cPumE43FrWZTEhA-15" value="System" style="whiteSpace=wrap;html=1;rounded=0;" vertex="1" parent="kJBh9cPumE43FrWZTEhA-1">
          <mxGeometry x="40" y="479.75" width="150" height="37.75" as="geometry" />
        </mxCell>
        <mxCell id="kJBh9cPumE43FrWZTEhA-16" style="edgeStyle=orthogonalEdgeStyle;rounded=0;orthogonalLoop=1;jettySize=auto;html=1;entryX=0.5;entryY=0;entryDx=0;entryDy=0;" edge="1" parent="kJBh9cPumE43FrWZTEhA-1" source="kJBh9cPumE43FrWZTEhA-17">
          <mxGeometry relative="1" as="geometry">
            <mxPoint x="330" y="477.63" as="targetPoint" />
          </mxGeometry>
        </mxCell>
        <mxCell id="kJBh9cPumE43FrWZTEhA-17" value="Sales Forecast" style="whiteSpace=wrap;html=1;rounded=0;" vertex="1" parent="kJBh9cPumE43FrWZTEhA-1">
          <mxGeometry x="280" y="79.88000000000001" width="100" height="137.75" as="geometry" />
        </mxCell>
        <mxCell id="kJBh9cPumE43FrWZTEhA-18" style="edgeStyle=orthogonalEdgeStyle;rounded=0;orthogonalLoop=1;jettySize=auto;html=1;entryX=0.5;entryY=1;entryDx=0;entryDy=0;" edge="1" parent="kJBh9cPumE43FrWZTEhA-1" source="kJBh9cPumE43FrWZTEhA-19" target="kJBh9cPumE43FrWZTEhA-22">
          <mxGeometry relative="1" as="geometry" />
        </mxCell>
        <mxCell id="kJBh9cPumE43FrWZTEhA-19" value="CD" style="whiteSpace=wrap;html=1;rounded=0;" vertex="1" parent="kJBh9cPumE43FrWZTEhA-1">
          <mxGeometry x="280" y="477.63" width="100" height="37.75" as="geometry" />
        </mxCell>
        <mxCell id="kJBh9cPumE43FrWZTEhA-20" style="edgeStyle=orthogonalEdgeStyle;rounded=0;orthogonalLoop=1;jettySize=auto;html=1;exitX=1;exitY=0.5;exitDx=0;exitDy=0;entryX=0.5;entryY=0;entryDx=0;entryDy=0;" edge="1" parent="kJBh9cPumE43FrWZTEhA-1" source="kJBh9cPumE43FrWZTEhA-22" target="kJBh9cPumE43FrWZTEhA-25">
          <mxGeometry relative="1" as="geometry" />
        </mxCell>
        <mxCell id="kJBh9cPumE43FrWZTEhA-21" style="edgeStyle=orthogonalEdgeStyle;rounded=0;orthogonalLoop=1;jettySize=auto;html=1;entryX=0.5;entryY=0;entryDx=0;entryDy=0;" edge="1" parent="kJBh9cPumE43FrWZTEhA-1" source="kJBh9cPumE43FrWZTEhA-22" target="kJBh9cPumE43FrWZTEhA-28">
          <mxGeometry relative="1" as="geometry" />
        </mxCell>
        <mxCell id="kJBh9cPumE43FrWZTEhA-22" value="Raw Material Plan" style="whiteSpace=wrap;html=1;rounded=0;" vertex="1" parent="kJBh9cPumE43FrWZTEhA-1">
          <mxGeometry x="410" y="228.63" width="100" height="37.75" as="geometry" />
        </mxCell>
        <mxCell id="kJBh9cPumE43FrWZTEhA-23" style="edgeStyle=orthogonalEdgeStyle;rounded=0;orthogonalLoop=1;jettySize=auto;html=1;exitX=0.5;exitY=1;exitDx=0;exitDy=0;entryX=0.5;entryY=0;entryDx=0;entryDy=0;" edge="1" parent="kJBh9cPumE43FrWZTEhA-1" source="kJBh9cPumE43FrWZTEhA-25" target="kJBh9cPumE43FrWZTEhA-30">
          <mxGeometry relative="1" as="geometry" />
        </mxCell>
        <mxCell id="kJBh9cPumE43FrWZTEhA-24" style="edgeStyle=orthogonalEdgeStyle;rounded=0;orthogonalLoop=1;jettySize=auto;html=1;entryX=0.5;entryY=0;entryDx=0;entryDy=0;" edge="1" parent="kJBh9cPumE43FrWZTEhA-1" source="kJBh9cPumE43FrWZTEhA-25" target="kJBh9cPumE43FrWZTEhA-28">
          <mxGeometry relative="1" as="geometry" />
        </mxCell>
        <mxCell id="kJBh9cPumE43FrWZTEhA-25" value="Raw Material PO" style="whiteSpace=wrap;html=1;rounded=0;" vertex="1" parent="kJBh9cPumE43FrWZTEhA-1">
          <mxGeometry x="540" y="278.63" width="100" height="37.75" as="geometry" />
        </mxCell>
        <mxCell id="kJBh9cPumE43FrWZTEhA-26" value="" style="shape=image;html=1;verticalAlign=top;verticalLabelPosition=bottom;labelBackgroundColor=#ffffff;imageAspect=0;aspect=fixed;image=https://cdn3.iconfinder.com/data/icons/document-icons-2/30/647714-excel-128.png" vertex="1" parent="kJBh9cPumE43FrWZTEhA-1">
          <mxGeometry x="321" y="160.88" width="18" height="18" as="geometry" />
        </mxCell>
        <mxCell id="kJBh9cPumE43FrWZTEhA-27" style="edgeStyle=orthogonalEdgeStyle;rounded=0;orthogonalLoop=1;jettySize=auto;html=1;entryX=0;entryY=0.5;entryDx=0;entryDy=0;" edge="1" parent="kJBh9cPumE43FrWZTEhA-1" source="kJBh9cPumE43FrWZTEhA-28" target="kJBh9cPumE43FrWZTEhA-37">
          <mxGeometry relative="1" as="geometry" />
        </mxCell>
        <mxCell id="kJBh9cPumE43FrWZTEhA-28" value="Raw Material Receive process" style="whiteSpace=wrap;html=1;rounded=0;" vertex="1" parent="kJBh9cPumE43FrWZTEhA-1">
          <mxGeometry x="670" y="327.63" width="100" height="90" as="geometry" />
        </mxCell>
        <mxCell id="kJBh9cPumE43FrWZTEhA-29" style="edgeStyle=orthogonalEdgeStyle;rounded=0;orthogonalLoop=1;jettySize=auto;html=1;entryX=0;entryY=0.5;entryDx=0;entryDy=0;" edge="1" parent="kJBh9cPumE43FrWZTEhA-1" source="kJBh9cPumE43FrWZTEhA-30" target="kJBh9cPumE43FrWZTEhA-28">
          <mxGeometry relative="1" as="geometry">
            <Array as="points">
              <mxPoint x="650" y="447.63" />
              <mxPoint x="650" y="372.63" />
            </Array>
          </mxGeometry>
        </mxCell>
        <mxCell id="kJBh9cPumE43FrWZTEhA-30" value="Raw Material Invoice" style="whiteSpace=wrap;html=1;rounded=0;" vertex="1" parent="kJBh9cPumE43FrWZTEhA-1">
          <mxGeometry x="540" y="428.63" width="100" height="37.75" as="geometry" />
        </mxCell>
        <mxCell id="kJBh9cPumE43FrWZTEhA-31" value="CD" style="whiteSpace=wrap;html=1;rounded=0;" vertex="1" parent="kJBh9cPumE43FrWZTEhA-1">
          <mxGeometry x="800" y="477.63" width="100" height="37.75" as="geometry" />
        </mxCell>
        <mxCell id="kJBh9cPumE43FrWZTEhA-32" style="edgeStyle=orthogonalEdgeStyle;rounded=0;orthogonalLoop=1;jettySize=auto;html=1;" edge="1" parent="kJBh9cPumE43FrWZTEhA-1" source="kJBh9cPumE43FrWZTEhA-33" target="kJBh9cPumE43FrWZTEhA-34">
          <mxGeometry relative="1" as="geometry" />
        </mxCell>
        <mxCell id="kJBh9cPumE43FrWZTEhA-33" value="Payment Process" style="whiteSpace=wrap;html=1;rounded=0;" vertex="1" parent="kJBh9cPumE43FrWZTEhA-1">
          <mxGeometry x="930" y="379.88" width="100" height="37.75" as="geometry" />
        </mxCell>
        <mxCell id="kJBh9cPumE43FrWZTEhA-34" value="Payment Received" style="whiteSpace=wrap;html=1;rounded=0;" vertex="1" parent="kJBh9cPumE43FrWZTEhA-1">
          <mxGeometry x="930" y="428.63" width="100" height="37.75" as="geometry" />
        </mxCell>
        <mxCell id="kJBh9cPumE43FrWZTEhA-35" style="edgeStyle=orthogonalEdgeStyle;rounded=0;orthogonalLoop=1;jettySize=auto;html=1;entryX=0.5;entryY=0;entryDx=0;entryDy=0;" edge="1" parent="kJBh9cPumE43FrWZTEhA-1" source="kJBh9cPumE43FrWZTEhA-37" target="kJBh9cPumE43FrWZTEhA-31">
          <mxGeometry relative="1" as="geometry" />
        </mxCell>
        <mxCell id="kJBh9cPumE43FrWZTEhA-36" style="edgeStyle=orthogonalEdgeStyle;rounded=0;orthogonalLoop=1;jettySize=auto;html=1;entryX=0;entryY=0.5;entryDx=0;entryDy=0;exitX=0.5;exitY=1;exitDx=0;exitDy=0;" edge="1" parent="kJBh9cPumE43FrWZTEhA-1" source="kJBh9cPumE43FrWZTEhA-37" target="kJBh9cPumE43FrWZTEhA-33">
          <mxGeometry relative="1" as="geometry" />
        </mxCell>
        <mxCell id="kJBh9cPumE43FrWZTEhA-37" value="Raw Material receipt" style="whiteSpace=wrap;html=1;rounded=0;" vertex="1" parent="kJBh9cPumE43FrWZTEhA-1">
          <mxGeometry x="800" y="327.63" width="100" height="37.75" as="geometry" />
        </mxCell>
        <mxCell id="kJBh9cPumE43FrWZTEhA-38" value="Sales&lt;div&gt;B2B&lt;/div&gt;" style="whiteSpace=wrap;html=1;rounded=0;" vertex="1" parent="kJBh9cPumE43FrWZTEhA-1">
          <mxGeometry x="120" y="80" width="70" height="137.75" as="geometry" />
        </mxCell>
        <mxCell id="kJBh9cPumE43FrWZTEhA-39" style="edgeStyle=orthogonalEdgeStyle;rounded=0;orthogonalLoop=1;jettySize=auto;html=1;entryX=0;entryY=0.5;entryDx=0;entryDy=0;" edge="1" parent="kJBh9cPumE43FrWZTEhA-1" source="kJBh9cPumE43FrWZTEhA-40" target="kJBh9cPumE43FrWZTEhA-17">
          <mxGeometry relative="1" as="geometry" />
        </mxCell>
        <mxCell id="kJBh9cPumE43FrWZTEhA-40" value="" style="ellipse;whiteSpace=wrap;html=1;" vertex="1" parent="kJBh9cPumE43FrWZTEhA-1">
          <mxGeometry x="210" y="135.75" width="30" height="27.75" as="geometry" />
        </mxCell>
        <mxCell id="kJBh9cPumE43FrWZTEhA-41" value="Sales Forecasting" style="text;html=1;align=center;verticalAlign=middle;whiteSpace=wrap;rounded=0;" vertex="1" parent="kJBh9cPumE43FrWZTEhA-1">
          <mxGeometry x="195" y="165.75" width="60" height="30" as="geometry" />
        </mxCell>
        <mxCell id="kJBh9cPumE43FrWZTEhA-42" style="edgeStyle=orthogonalEdgeStyle;rounded=0;orthogonalLoop=1;jettySize=auto;html=1;exitX=1;exitY=0.5;exitDx=0;exitDy=0;entryX=0;entryY=0.5;entryDx=0;entryDy=0;" edge="1" parent="kJBh9cPumE43FrWZTEhA-1" source="kJBh9cPumE43FrWZTEhA-43" target="kJBh9cPumE43FrWZTEhA-22">
          <mxGeometry relative="1" as="geometry" />
        </mxCell>
        <mxCell id="kJBh9cPumE43FrWZTEhA-43" value="" style="ellipse;whiteSpace=wrap;html=1;" vertex="1" parent="kJBh9cPumE43FrWZTEhA-1">
          <mxGeometry x="348" y="233.75" width="30" height="27.75" as="geometry" />
        </mxCell>
        <mxCell id="kJBh9cPumE43FrWZTEhA-44" value="Production Planning" style="text;html=1;align=center;verticalAlign=middle;whiteSpace=wrap;rounded=0;" vertex="1" parent="kJBh9cPumE43FrWZTEhA-1">
          <mxGeometry x="333" y="266.38" width="60" height="30" as="geometry" />
        </mxCell>
      </root>
    </mxGraphModel>
  </diagram>
</mxfile>
